<svg fill="none" height="300" viewBox="0 0 24 24" width="300" xmlns="http://www.w3.org/2000/svg" xmlns:xlink="http://www.w3.org/1999/xlink" version="1.1" xmlns:svgjs="http://svgjs.dev/svgjs"><g width="100%" height="100%" transform="matrix(1,0,0,1,0,0)"><clipPath id="clip0_9076_8874"><path d="m0 0h24v24h-24z" fill="#000000" fill-opacity="1" data-original-color="#000000ff" stroke="none" stroke-opacity="1"/></clipPath><g clip-path="url(#clip0_9076_8874)"><path d="m6 2c-.53043 0-1.03914.21071-1.41421.58579-.37508.37507-.58579.88378-.58579 1.41421v16c0 .5304.21071 1.0391.58579 1.4142.37507.3751.88378.5858 1.41421.5858h12c.5304 0 1.0391-.2107 1.4142-.5858s.5858-.8838.5858-1.4142v-12.5c0-.26522-.1054-.51957-.2929-.70711l-4.5-4.5c-.1875-.18753-.4419-.29289-.7071-.29289z" fill="url(#SvgjsLinearGradient1014)" fill-opacity="1" data-original-color="#aacffcff" stroke="none" stroke-opacity="1"/><g clip-rule="evenodd" fill="#2a88f9" fill-rule="evenodd"><path d="m8 11c0-.5523.44772-1 1-1h3c.5523 0 1 .4477 1 1v6c0 .5523-.4477 1-1 1s-1-.4477-1-1v-5h-2c-.55228 0-1-.4477-1-1z" fill="#ffffff" fill-opacity="1" data-original-color="#2a88f9ff" stroke="none" stroke-opacity="1"/><path d="m15 16c.5523 0 1 .4477 1 1v.01c0 .5523-.4477 1-1 1s-1-.4477-1-1v-.01c0-.5523.4477-1 1-1z" fill="#ffffff" fill-opacity="1" data-original-color="#2a88f9ff" stroke="none" stroke-opacity="1"/><path d="m15 13c.5523 0 1 .4477 1 1v.01c0 .5523-.4477 1-1 1s-1-.4477-1-1v-.01c0-.5523.4477-1 1-1z" fill="#ffffff" fill-opacity="1" data-original-color="#2a88f9ff" stroke="none" stroke-opacity="1"/><path d="m15 10c.5523 0 1 .4477 1 1v.01c0 .5523-.4477 1-1 1s-1-.4477-1-1v-.01c0-.5523.4477-1 1-1z" fill="#ffffff" fill-opacity="1" data-original-color="#2a88f9ff" stroke="none" stroke-opacity="1"/><path d="m9 13c.55228 0 1 .4477 1 1v.01c0 .5523-.44772 1-1 1s-1-.4477-1-1v-.01c0-.5523.44772-1 1-1z" fill="#ffffff" fill-opacity="1" data-original-color="#2a88f9ff" stroke="none" stroke-opacity="1"/><path d="m9 16c.55228 0 1 .4477 1 1v.01c0 .5523-.44772 1-1 1s-1-.4477-1-1v-.01c0-.5523.44772-1 1-1z" fill="#ffffff" fill-opacity="1" data-original-color="#2a88f9ff" stroke="none" stroke-opacity="1"/></g></g></g><defs><linearGradient id="SvgjsLinearGradient1014"><stop stop-opacity="1" stop-color="#4c9540" offset="0"/><stop stop-opacity="1" stop-color="#0f5130" offset="1"/></linearGradient></defs></svg>