<svg width="300" height="140" viewBox="0 0 300 140" fill="none" xmlns="http://www.w3.org/2000/svg">
<mask id="mask0_31898_7150" style="mask-type:alpha" maskUnits="userSpaceOnUse" x="0" y="0" width="300" height="140">
<path d="M0 140H300V0H0V140Z" fill="url(#paint0_linear_31898_7150)"/>
<path d="M0 140H300V0H0V140Z" stroke="white"/>
</mask>
<g mask="url(#mask0_31898_7150)">
<rect x="300" width="186" height="300" transform="rotate(90 300 0)" fill="url(#paint1_linear_31898_7150)"/>
<rect x="60" y="-58" width="175" height="374" rx="23" fill="white" stroke="black" stroke-width="6"/>
<rect x="57.5" y="-60.5" width="180" height="379" rx="25.5" stroke="#7B7A7B"/>
<rect x="87.6318" y="5.88599" width="22.0226" height="5.08214" rx="2.54107" fill="#EEF1F6"/>
<rect x="190.727" y="5.88599" width="16.4564" height="5.08214" rx="2.54107" fill="#EEF1F6"/>
<rect x="76.863" y="-28.8421" width="141.332" height="51.0634" rx="9.31725" stroke="#EEF1F6" stroke-width="0.726019"/>
<rect x="111.349" y="47.0271" width="52.0314" height="5.08214" rx="2.54107" fill="#EEF1F6"/>
<rect x="190.727" y="47.0271" width="16.4564" height="5.08214" rx="2.54107" fill="#EEF1F6"/>
<rect x="111.349" y="53.5613" width="22.0226" height="5.08214" rx="2.54107" fill="#EEF1F6"/>
<rect x="87.6318" y="67.3556" width="22.0226" height="5.08214" rx="2.54107" fill="#EEF1F6"/>
<rect x="87.6318" y="79.6979" width="37.753" height="5.08214" rx="2.54107" fill="#EEF1F6"/>
<rect x="87.6318" y="92.0403" width="22.0226" height="5.08214" rx="2.54107" fill="#EEF1F6"/>
<rect x="190.727" y="67.3556" width="16.4564" height="5.08214" rx="2.54107" fill="#EEF1F6"/>
<rect x="190.727" y="79.6979" width="16.4564" height="5.08214" rx="2.54107" fill="#EEF1F6"/>
<rect x="181.047" y="92.0403" width="26.1367" height="5.08214" rx="2.54107" fill="#EEF1F6"/>
<g clip-path="url(#clip0_31898_7150)">
<path d="M95.7391 60.0953C100.217 60.0953 103.846 56.4656 103.846 51.9881C103.846 47.5106 100.217 43.8809 95.7391 43.8809C91.2616 43.8809 87.6318 47.5106 87.6318 51.9881C87.6318 56.4656 91.2616 60.0953 95.7391 60.0953Z" fill="#9FCFF2"/>
<path d="M90.3688 47.8858C90.1256 47.8331 89.8621 47.8695 89.6229 47.9871C88.9257 48.3316 88.5447 48.7411 88.5771 49.114C88.5974 49.3207 88.7433 49.4788 88.9703 49.5437C89.0392 49.5639 89.1162 49.5721 89.1973 49.5721C89.5459 49.5721 89.9837 49.3815 90.3404 48.9073C90.4418 48.7735 90.5107 48.6073 90.5309 48.437C90.535 48.3965 90.5431 48.36 90.5472 48.3235C90.5796 48.0965 90.6039 47.9303 90.3688 47.8817V47.8858Z" fill="#4C76BF"/>
<path d="M101.812 48.6357C101.374 48.5992 101.098 48.4493 100.96 48.1736C100.94 48.1331 100.944 48.0844 100.973 48.048C100.985 48.0317 101.025 47.9912 101.09 48.0034L101.163 48.0196C101.581 48.1088 101.852 48.1696 102.043 47.6993C102.108 47.5372 102.095 47.3548 102.002 47.2089C101.581 46.5278 101.037 46.1063 100.397 45.9644C99.3917 45.7374 98.3337 46.24 97.6284 46.6981C97.1865 46.9859 96.765 47.3629 96.3839 47.825C96.0596 48.2141 95.7232 48.4533 95.4557 48.6438C95.1557 48.8587 94.9165 49.0249 94.9044 49.2924C94.8881 49.637 95.257 50.0666 96.4164 51.0557C96.4366 51.0719 96.4569 51.0841 96.4812 51.0882C96.8825 51.1611 97.1095 51.1409 97.2473 51.0152C97.4095 50.8652 97.373 50.6139 97.3365 50.322C97.2798 49.8964 97.2109 49.3694 97.6041 48.8181C97.9365 48.4979 98.1756 48.4493 98.277 48.506C98.3864 48.5668 98.4188 48.7898 98.354 49.0816C98.3094 49.2843 98.3256 49.487 98.4026 49.6694L98.4391 49.7586C98.6458 50.2531 98.9539 50.999 98.6256 51.3922C98.3378 51.7367 97.5919 51.7813 96.4083 51.5259C95.4759 51.3233 95.2287 51.5868 94.8557 51.98C94.7584 52.0853 94.649 52.2029 94.5112 52.3245C94.2274 52.4542 93.9801 52.5556 93.7815 52.6366C92.8208 53.0298 92.6749 53.1271 93.0721 54.2297C93.0965 54.2905 93.1086 54.3554 93.1127 54.4202C93.1167 54.4729 93.1248 54.5378 93.1248 54.5824C93.1248 54.5905 93.1208 54.5945 93.1127 54.5945C93.0762 54.5905 93.0194 54.5824 92.9667 54.5743C92.9019 54.5621 92.8289 54.5499 92.7397 54.5378C92.3911 54.4891 92.0506 54.6432 91.856 54.9391C91.6655 55.2269 91.6574 55.5877 91.8317 55.8795C91.8763 55.9525 91.929 56.0336 91.9979 56.1227C92.1236 56.2849 92.2817 56.4227 92.46 56.5159C93.2018 56.9132 93.5018 56.4673 93.7653 56.0741C93.9274 55.8309 94.0977 55.5755 94.3774 55.462C94.572 55.3809 94.7382 55.2918 94.88 55.1823C95.8043 54.4932 96.5015 54.9715 97.1784 55.4296C97.6405 55.7458 98.0783 56.0417 98.5404 55.8998C98.9661 55.766 99.335 55.2674 99.6998 54.331C99.6998 54.331 99.6998 54.331 99.6998 54.327C100.016 54.0149 100.089 54.0513 100.219 54.1203C100.377 54.2054 100.588 54.3189 101.054 54.1203C101.054 54.1203 101.058 54.1203 101.062 54.1203C101.504 54.1648 101.666 54.3148 101.808 54.5743C101.856 54.6675 101.877 54.7729 101.852 54.8783C101.812 55.0364 101.694 55.1539 101.54 55.1904C101.439 55.2147 101.333 55.2391 101.22 55.2634C100.182 55.4985 99.4971 55.6809 99.4768 56.0538C99.4606 56.3011 99.7565 56.524 100.429 56.7632C100.429 56.7632 100.429 56.7632 100.433 56.7632C100.705 56.9943 100.839 57.2334 100.798 57.4118C100.762 57.578 100.571 57.7158 100.263 57.805H100.255C99.9349 57.7077 99.6714 57.6226 99.4606 57.5537C98.5323 57.2537 98.358 57.1929 97.7297 57.5496C97.7297 57.5496 97.7297 57.5496 97.7257 57.5496C96.8825 57.6307 96.5299 57.2578 96.1894 56.901C95.7272 56.4146 95.2895 55.9525 93.8747 56.7429C93.3478 56.974 92.9667 56.974 92.6587 56.9781C92.079 56.9781 91.7871 57.0307 91.5723 58.1171C91.5723 58.1171 91.5723 58.1212 91.5682 58.1252C91.325 58.3198 91.1345 58.4455 90.9805 58.5387C92.3182 59.5156 93.9559 60.0953 95.7395 60.0953C100.219 60.0953 103.644 56.447 103.847 51.988C103.847 50.5733 103.47 49.2924 102.833 48.1371C102.61 48.279 102.395 48.3844 102.136 48.5587C102.043 48.6236 101.929 48.6519 101.82 48.6438L101.812 48.6357Z" fill="#4C76BF"/>
<path d="M92.9702 50.5531C92.7067 50.4031 92.3824 50.4355 92.3054 50.5044C92.2973 50.5085 92.2932 50.5166 92.2851 50.5247C92.2121 50.5652 92.1392 50.6463 92.1189 50.8165C92.0703 51.2422 92.4108 52.134 92.8202 52.2312C92.8445 52.2394 92.8729 52.2434 92.9012 52.2434C93.0391 52.2434 93.2093 52.1542 93.335 51.8056C93.335 51.7975 93.339 51.7935 93.339 51.7854C93.4688 51.0233 93.2053 50.699 92.9661 50.5612L92.9702 50.5531Z" fill="#4C76BF"/>
<path d="M91.4712 51.9759C91.3212 51.9881 91.1996 52.1219 91.1266 52.3529C91.0658 52.5515 91.1388 52.7623 91.3091 52.8758C91.4104 52.9447 91.4996 52.965 91.5685 52.965C91.6009 52.965 91.6293 52.961 91.6496 52.9569C91.7185 52.9407 91.8198 52.888 91.8928 52.7502C91.9576 52.6286 91.9617 52.4745 91.8968 52.3448C91.7712 52.0854 91.6252 51.9597 91.4672 51.9719L91.4712 51.9759Z" fill="#4C76BF"/>
<path fill-rule="evenodd" clip-rule="evenodd" d="M95.7391 59.6902C99.9927 59.6902 103.441 56.2419 103.441 51.9883C103.441 47.7347 99.9927 44.2865 95.7391 44.2865C91.4854 44.2865 88.0372 47.7347 88.0372 51.9883C88.0372 56.2419 91.4854 59.6902 95.7391 59.6902ZM95.7391 60.0955C100.217 60.0955 103.846 56.4658 103.846 51.9883C103.846 47.5108 100.217 43.8811 95.7391 43.8811C91.2616 43.8811 87.6318 47.5108 87.6318 51.9883C87.6318 56.4658 91.2616 60.0955 95.7391 60.0955Z" fill="#E2E7EE"/>
</g>
<rect x="76.863" y="32.6275" width="141.332" height="75.506" rx="9.31725" stroke="#EEF1F6" stroke-width="0.726019"/>
<rect x="111.349" y="132.939" width="52.0314" height="5.08214" rx="2.54107" fill="#EEF1F6"/>
<rect x="190.727" y="132.939" width="16.4564" height="5.08214" rx="2.54107" fill="#EEF1F6"/>
<rect x="111.349" y="139.473" width="22.0226" height="5.08214" rx="2.54107" fill="#EEF1F6"/>
<g opacity="0.4" clip-path="url(#clip1_31898_7150)">
<path d="M95.7391 146.008C100.217 146.008 103.846 142.378 103.846 137.9C103.846 133.423 100.217 129.793 95.7391 129.793C91.2616 129.793 87.6318 133.423 87.6318 137.9C87.6318 142.378 91.2616 146.008 95.7391 146.008Z" fill="#9FCFF2"/>
<path d="M89.5654 142.878C89.5411 142.481 89.4884 142.201 89.4479 141.995C89.3749 141.614 89.3546 141.512 89.5938 141.322C89.7032 141.232 89.8492 141.204 89.9748 141.249C90.0883 141.289 90.1045 141.35 90.1329 141.455V141.476C90.1978 141.695 90.3883 141.832 90.6153 141.82C90.8382 141.812 91.0125 141.658 91.0531 141.439C91.0774 141.305 91.0531 141.208 91.0288 141.111C91.0044 141.014 90.9801 140.916 91.0125 140.758C91.049 140.584 91.1666 140.43 91.3328 140.349C92.6664 139.7 93.3231 138.95 93.2947 138.127C93.2866 137.925 93.1893 137.738 93.0231 137.617C92.7799 137.434 92.6259 137.292 92.6178 137.163C92.6137 137.049 92.7151 136.903 92.9461 136.684C93.7568 136.21 94.0568 136.287 94.377 136.368C94.6851 136.449 95.0094 136.53 95.7188 136.121C96.0796 135.91 96.943 135.724 97.1578 135.772C97.1659 135.772 97.1659 135.78 97.1619 135.788C97.1132 135.857 96.9349 136.04 96.262 136.425C96.0512 136.546 95.9012 136.749 95.8485 136.988C95.7431 137.467 95.5364 138.594 95.8931 138.768C96.1201 138.877 96.3957 138.585 96.5863 138.354C97.3119 137.856 97.4091 137.633 97.5267 137.353C97.628 137.114 97.7578 136.814 98.3901 136.194C98.5077 136.076 98.6577 135.995 98.8198 135.951C98.8847 135.934 98.9455 135.918 99.0022 135.906C99.6508 135.744 99.8008 135.707 99.9224 135.148C99.9548 134.998 100.044 134.872 100.174 134.803C100.498 134.625 100.745 134.698 101.009 134.775C101.37 134.88 101.738 134.994 102.164 134.349C102.233 134.244 102.229 134.106 102.152 134.009V134.017C102.123 133.981 102.095 133.944 102.075 133.916C101.868 133.644 101.848 133.632 101.544 133.555C101.471 133.535 101.382 133.514 101.268 133.478C101.26 133.478 101.252 133.478 101.24 133.474C100.295 133.413 100.125 133.316 99.9629 133.227C99.8129 133.141 99.667 133.06 99.0792 133.012C99.0306 133.008 98.9779 133.012 98.9252 133.02C97.6159 133.267 97.4213 133.283 96.7281 132.902C96.3066 132.671 96.1079 132.643 95.8363 132.606C95.5485 132.566 95.1594 132.513 94.2716 132.181C94.2676 132.181 94.2595 132.181 94.2554 132.177C93.0231 131.901 92.5367 132.112 92.184 132.266C91.8841 132.396 91.7057 132.477 91.1585 132.152C90.8707 131.982 90.6153 131.885 90.3721 131.824C88.702 133.304 87.6318 135.476 87.6318 137.9C87.6318 139.875 88.3372 141.682 89.5087 143.089C89.5249 143.032 89.5451 142.98 89.5614 142.915C89.5614 142.903 89.5654 142.89 89.5614 142.878H89.5654Z" fill="#4C76BF"/>
<path d="M92.9539 130.782C92.8039 130.77 92.6702 130.863 92.6337 131.005C92.5972 131.143 92.6175 131.269 92.6985 131.374C92.8688 131.601 93.262 131.646 93.4768 131.65H93.4849C93.5336 131.65 93.5782 131.638 93.6187 131.617C93.8943 131.479 93.9268 131.329 93.9065 131.228C93.8538 130.953 93.3593 130.815 92.9539 130.782Z" fill="#4C76BF"/>
<path d="M93.972 139.538C93.445 139.4 93.1208 139.416 92.9627 139.587C92.7681 139.797 92.9019 140.146 92.9991 140.397C92.9991 140.397 92.9991 140.406 93.0032 140.41C93.0437 140.519 93.0316 140.641 92.9586 140.738C92.7762 140.989 92.6384 141.005 92.5249 141.018C92.3627 141.038 92.2371 141.074 92.1601 141.346C92.1398 141.415 92.1033 141.476 92.0506 141.516C91.9898 141.561 91.9371 141.581 91.8844 141.593C91.7182 141.642 91.6534 141.723 91.6574 141.913C91.6574 142.067 91.7425 142.209 91.8763 142.286C92.002 142.359 92.0911 142.396 92.1682 142.396C92.2776 142.396 92.3546 142.327 92.4519 142.197C92.5654 142.051 92.7276 141.836 93.1897 141.638C93.2991 141.589 93.3842 141.5 93.4329 141.391C93.7531 140.592 94.0085 140.345 94.1504 140.211C94.272 140.097 94.3206 140.02 94.3004 139.887C94.272 139.716 94.1382 139.587 93.972 139.542V139.538Z" fill="#4C76BF"/>
<path fill-rule="evenodd" clip-rule="evenodd" d="M95.7391 145.602C99.9927 145.602 103.441 142.154 103.441 137.901C103.441 133.647 99.9927 130.199 95.7391 130.199C91.4854 130.199 88.0372 133.647 88.0372 137.901C88.0372 142.154 91.4854 145.602 95.7391 145.602ZM95.7391 146.008C100.217 146.008 103.846 142.378 103.846 137.901C103.846 133.423 100.217 129.793 95.7391 129.793C91.2616 129.793 87.6318 133.423 87.6318 137.901C87.6318 142.378 91.2616 146.008 95.7391 146.008Z" fill="#E2E7EE"/>
</g>
<rect x="76.863" y="118.54" width="141.332" height="75.506" rx="9.31725" stroke="#EEF1F6" stroke-width="0.726019"/>
<g style="mix-blend-mode:saturation">
<circle cx="95.74" cy="137.9" r="8.10722" fill="#EEF1F6"/>
</g>
<rect x="76.1348" y="32" width="142" height="77" fill="white"/>
<g filter="url(#filter0_d_31898_7150)">
<rect x="103.5" y="32.5" width="160" height="75" rx="9.18303" fill="white" stroke="#EEF1F6"/>
<rect x="119.062" y="76.502" width="37.2005" height="5.12456" rx="2.56228" fill="#EEF1F6"/>
<rect x="228" y="76.5018" width="20.3085" height="5.12456" rx="2.56228" fill="#EEF1F6"/>
<rect x="153.638" y="57.522" width="24.8636" height="5.12456" rx="2.56228" fill="#EEF1F6"/>
<rect x="153.638" y="48.9812" width="53.1436" height="5.12456" rx="2.56228" fill="#EEF1F6"/>
<rect x="119.062" y="90.1677" width="20.3085" height="5.12456" rx="2.56228" fill="#EEF1F6"/>
<rect x="228" y="90.1676" width="20.3085" height="5.12456" rx="2.56228" fill="#EEF1F6"/>
<path d="M238 45C234.688 45 232 47.688 232 51C232 54.312 234.688 57 238 57C241.312 57 244 54.312 244 51C244 47.688 241.312 45 238 45ZM238 55.8C235.348 55.8 233.2 53.652 233.2 51C233.2 48.348 235.348 46.2 238 46.2C240.652 46.2 242.8 48.348 242.8 51C242.8 53.652 240.652 55.8 238 55.8Z" fill="black"/>
<path d="M238 54C239.657 54 241 52.6569 241 51C241 49.3431 239.657 48 238 48C236.343 48 235 49.3431 235 51C235 52.6569 236.343 54 238 54Z" fill="black"/>
<g clip-path="url(#clip2_31898_7150)">
<path d="M130.79 66.965C137.302 66.965 142.581 61.6862 142.581 55.1746C142.581 48.663 137.302 43.3843 130.79 43.3843C124.279 43.3843 119 48.663 119 55.1746C119 61.6862 124.279 66.965 130.79 66.965Z" fill="#9FCFF2"/>
<path d="M124.453 63.198C124.748 63.0506 124.942 62.9504 125.214 62.2253C125.214 62.2253 125.214 62.2194 125.214 62.2135C125.308 61.8126 125.485 61.4825 125.638 61.1936C125.844 60.8045 126.004 60.5039 125.868 60.2209C125.709 59.8967 125.172 59.6786 124.023 59.4722C123.846 59.3131 123.681 59.1598 123.522 59.0242C121.394 57.0965 121.346 57.0552 119.295 57.7862C119.896 60.4449 121.394 62.7617 123.451 64.4006C123.563 64.2414 123.669 64.0174 123.758 63.6873C124.058 63.3925 124.276 63.2864 124.447 63.198H124.453Z" fill="#4C76BF"/>
<path d="M119.342 53.6124C119.353 53.5416 119.359 53.4827 119.365 53.4355C119.383 53.3176 119.477 53.182 119.654 53.0288C119.731 52.9639 119.825 52.8755 119.949 52.7635C119.966 52.7458 119.978 52.7281 119.978 52.7045C119.99 52.5925 119.996 52.51 120.002 52.4392C120.002 52.3626 120.014 52.286 120.025 52.2742C120.037 52.2624 120.102 52.2506 120.161 52.2329C120.22 52.2211 120.297 52.2034 120.397 52.174H120.409C121.157 51.8379 121.081 51.4665 121.022 51.2013C120.992 51.0716 120.98 51.0008 121.022 50.9419C121.14 50.7945 121.676 50.7237 122.649 50.7237C122.69 50.7237 122.719 50.7002 122.737 50.6648C122.749 50.6294 122.743 50.5882 122.714 50.5646C122.419 50.2698 122.26 49.9161 122.1 49.5801C121.876 49.0849 121.693 48.7548 121.063 48.6899C120.013 50.2522 119.277 51.9499 119.064 53.9307C119.135 53.8541 119.218 53.7716 119.318 53.6595C119.33 53.6478 119.336 53.6301 119.342 53.6124Z" fill="#4C76BF"/>
<path d="M123.032 46.8035C123.032 46.8035 123.032 46.8153 123.032 46.8271C123.003 47.3399 123.286 48.2124 123.828 48.4659C123.911 48.5072 124.017 48.5367 124.135 48.5367C124.318 48.5367 124.542 48.4659 124.789 48.236C124.801 48.2242 124.807 48.2124 124.813 48.1947C125.166 47.1867 125.379 47.1749 125.656 47.1513C125.874 47.1336 126.145 47.1159 126.505 46.7209C126.823 46.491 126.988 46.4792 127.159 46.4675C127.395 46.4498 127.613 46.4321 128.108 45.9546C128.126 45.9369 128.138 45.9133 128.138 45.8897C128.191 44.9465 128.267 44.5279 128.303 44.3098C128.35 44.0386 128.35 44.0151 128.208 43.7675C128.197 43.7439 128.179 43.7144 128.161 43.6849C126.251 44.1212 124.524 45.0231 123.091 46.2611C123.144 46.4026 123.121 46.5441 123.044 46.7976L123.032 46.8035Z" fill="#4C76BF"/>
<path d="M122.695 50.995C122.489 50.9242 122.259 51.0303 122.159 51.2426C122.159 51.2426 122.147 51.2838 122.153 51.3015C122.194 51.4961 122.283 51.6316 122.407 51.7024C122.477 51.7437 122.56 51.7613 122.648 51.7613C122.719 51.7613 122.796 51.7496 122.878 51.7201C122.908 51.7083 122.937 51.6847 122.943 51.6493C123.037 51.2544 122.878 51.048 122.695 50.9832V50.995Z" fill="#4C76BF"/>
<path d="M120.231 55.9292C120.231 55.9292 120.208 55.9174 120.19 55.9174L119.819 55.9056C119.789 55.9056 119.76 55.9174 119.736 55.941C119.553 56.1827 119.595 56.3537 119.665 56.4598C119.789 56.6543 120.084 56.731 120.326 56.731C120.391 56.731 120.455 56.7251 120.508 56.7133C120.721 56.6661 120.768 56.5541 120.774 56.4893C120.797 56.3183 120.621 56.1356 120.226 55.9292H120.231Z" fill="#4C76BF"/>
<path d="M128.997 47.275C128.997 47.2456 129.003 47.2161 129.009 47.1925C129.033 47.0216 129.05 46.8978 128.874 46.8565C128.691 46.8152 128.49 46.8447 128.308 46.9331C127.777 47.1925 127.488 47.505 127.518 47.7879C127.529 47.9412 127.641 48.065 127.812 48.1181C127.865 48.1357 127.924 48.1416 127.983 48.1416C128.249 48.1416 128.579 47.9943 128.85 47.6347C128.927 47.5344 128.98 47.4106 128.997 47.2809V47.275Z" fill="#4C76BF"/>
<path d="M137.558 47.4225C137.228 47.393 137.016 47.281 136.91 47.0746C136.892 47.0452 136.898 47.0039 136.921 46.9803C136.933 46.9685 136.963 46.939 137.01 46.9449L137.069 46.9567C137.387 47.0216 137.593 47.0687 137.741 46.715C137.788 46.5912 137.782 46.4556 137.711 46.3436C137.393 45.8249 136.98 45.5065 136.491 45.4004C135.731 45.2294 134.929 45.6067 134.386 45.9546C134.05 46.1727 133.732 46.4615 133.443 46.8094C133.196 47.1041 132.942 47.2869 132.736 47.4283C132.506 47.5875 132.329 47.7172 132.317 47.9176C132.305 48.177 132.583 48.5072 133.467 49.2558C133.479 49.2676 133.496 49.2735 133.514 49.2794C133.821 49.3384 133.991 49.3207 134.092 49.2205C134.216 49.1026 134.186 48.9139 134.162 48.6958C134.121 48.3716 134.068 47.9707 134.369 47.5521C134.622 47.3104 134.799 47.2751 134.876 47.3163C134.958 47.3635 134.982 47.5286 134.935 47.7526C134.899 47.9059 134.911 48.0591 134.97 48.1947L135 48.2655C135.153 48.6369 135.389 49.2028 135.141 49.5034C134.923 49.7687 134.357 49.7982 133.455 49.6037C132.748 49.4504 132.559 49.6508 132.276 49.9515C132.199 50.0281 132.117 50.1224 132.017 50.2109C131.798 50.3111 131.616 50.3877 131.462 50.4467C130.737 50.7473 130.619 50.8181 130.926 51.6552C130.944 51.7023 130.955 51.7495 130.955 51.7967C130.955 51.8379 130.961 51.8851 130.961 51.9205C130.961 51.9205 130.961 51.9323 130.95 51.9264C130.92 51.9264 130.879 51.9146 130.838 51.9087C130.79 51.9028 130.731 51.891 130.667 51.8851C130.401 51.8497 130.142 51.9676 129.995 52.1916C129.853 52.4098 129.841 52.6809 129.977 52.905C130.012 52.9639 130.054 53.0229 130.101 53.0877C130.195 53.2115 130.319 53.3117 130.448 53.3884C131.014 53.689 131.238 53.353 131.439 53.0523C131.563 52.8637 131.692 52.675 131.905 52.5866C132.052 52.5277 132.176 52.4569 132.288 52.3744C132.989 51.8497 133.52 52.2152 134.033 52.563C134.386 52.8047 134.717 53.0288 135.064 52.9167C135.389 52.8165 135.666 52.4392 135.943 51.7259C136.184 51.4901 136.238 51.5196 136.338 51.5726C136.456 51.6375 136.621 51.7259 136.974 51.5726C137.31 51.608 137.434 51.72 137.54 51.9146C137.576 51.9853 137.593 52.0678 137.576 52.1445C137.546 52.2683 137.452 52.3567 137.34 52.3803C137.263 52.398 137.181 52.4157 137.098 52.4333C136.308 52.6102 135.79 52.7517 135.772 53.0347C135.76 53.2233 135.984 53.3884 136.497 53.577C136.703 53.7539 136.803 53.9307 136.774 54.0722C136.745 54.196 136.603 54.3021 136.367 54.367C136.126 54.2903 135.925 54.2255 135.766 54.1783C135.064 53.9484 134.929 53.9071 134.451 54.1783C133.809 54.2373 133.543 53.9543 133.284 53.6831C132.93 53.3117 132.6 52.9639 131.527 53.5652C131.126 53.7421 130.838 53.7421 130.602 53.7421C130.166 53.7421 129.942 53.7833 129.776 54.6028C129.547 54.7855 129.376 54.8916 129.246 54.9683C128.922 55.1628 128.833 55.2394 128.792 55.8231C128.792 55.829 128.792 55.8408 128.792 55.8466C128.798 55.9056 128.792 56.0117 128.792 56.1296C128.757 56.8606 128.674 58.582 130.743 58.7883C130.755 58.7883 130.767 58.7883 130.779 58.7883C130.944 58.7471 131.085 58.7058 131.209 58.6704C131.628 58.5466 131.822 58.4936 132.111 58.6115C132.258 58.6704 132.4 58.7117 132.529 58.7294C132.748 58.7589 132.783 58.8237 132.765 58.9947C132.724 59.3837 132.801 59.7492 132.989 60.044C133.06 60.1619 133.137 60.2562 133.213 60.3506C133.443 60.6453 133.597 60.8399 133.42 61.2407C133.225 61.6888 133.202 62.1781 133.355 62.6261C133.479 62.9857 133.655 63.3807 133.809 63.7344C133.921 63.982 134.021 64.2178 134.098 64.4064C134.216 64.7071 134.422 64.9429 134.693 65.0785C134.835 65.1492 134.97 65.1787 135.1 65.1787C135.778 65.1787 136.279 64.2826 136.768 63.4101C137.033 62.9385 137.305 62.4492 137.605 62.1014C137.794 61.8774 137.906 61.6062 137.912 61.335C137.912 61.1995 137.888 61.1287 137.823 60.9401C137.8 60.8752 137.77 60.7868 137.735 60.6807C137.54 59.761 137.717 59.6372 138.23 59.2717C138.425 59.1362 138.66 58.9652 138.938 58.7117C139.055 58.6056 139.15 58.47 139.215 58.3285C139.338 58.0455 139.356 57.8687 139.268 57.739C139.132 57.5445 138.796 57.5504 138.295 57.5857C138.248 57.5857 138.201 57.5857 138.159 57.5798C138.142 57.5798 138.118 57.5739 138.1 57.568C137.77 57.5209 137.399 57.4678 136.992 55.2512V55.2453C137.075 55.1569 137.116 55.151 137.134 55.151C137.228 55.1628 137.34 55.434 137.44 55.6757C137.711 56.3183 138.118 57.2969 139.268 57.1259C139.274 57.1259 139.279 57.1259 139.291 57.1259L139.368 57.0964C139.839 56.9255 140.099 56.8311 140.429 56.0471C140.512 55.8525 140.464 55.6285 140.311 55.487C140.229 55.4045 140.158 55.3927 140.058 55.3809C139.934 55.3573 139.722 55.322 139.256 55.1039C139.044 54.8622 139.002 54.6735 139.055 54.6028C139.108 54.5261 139.309 54.5084 139.633 54.6381C140.246 55.0921 140.276 55.1039 140.912 55.2277C141.03 55.2512 141.178 55.2807 141.355 55.3161C141.926 55.5224 142.038 55.6757 142.286 56.0589C142.321 55.6993 142.58 55.546 142.58 55.1746C142.58 51.8203 141 48.7725 138.749 46.6266C138.43 46.8094 138.242 47.0511 137.812 47.3458C137.741 47.393 137.658 47.4166 137.57 47.4107L137.558 47.4225Z" fill="#4C76BF"/>
<path d="M133.856 43.8618C133.891 43.8618 133.927 43.8441 133.968 43.8264C133.856 43.797 133.75 43.7675 133.638 43.7439C133.72 43.8264 133.791 43.8618 133.862 43.8618H133.856Z" fill="#4C76BF"/>
<path d="M138.401 63.4868C138.537 63.534 138.643 63.5634 138.731 63.5634C138.784 63.5634 138.831 63.5516 138.873 63.5281C138.985 63.4573 139.008 63.3158 139.049 63.1036C139.085 62.8914 139.132 62.6025 139.279 62.2134C139.492 61.6593 139.385 61.453 139.256 61.3763C139.032 61.2407 138.672 61.4589 138.43 61.7477C138.065 62.1781 137.853 62.856 138.36 63.4632C138.371 63.475 138.383 63.4868 138.401 63.4927V63.4868Z" fill="#4C76BF"/>
<path d="M130.737 50.1461C130.737 50.1461 130.778 50.152 130.796 50.152C130.902 50.152 131.032 50.0813 131.126 49.8219C131.126 49.8219 131.126 49.8101 131.126 49.8042C131.226 49.2265 131.026 48.9789 130.843 48.8728C130.643 48.7607 130.401 48.7843 130.336 48.8374C130.336 48.8374 130.324 48.8492 130.324 48.8551C130.271 48.8845 130.212 48.9494 130.201 49.0791C130.165 49.4033 130.425 50.0813 130.731 50.152L130.737 50.1461Z" fill="#4C76BF"/>
<path d="M129.587 50.6412C129.664 50.6943 129.729 50.7119 129.782 50.7119C129.805 50.7119 129.829 50.7119 129.847 50.7061C129.9 50.6943 129.976 50.653 130.029 50.5528C130.077 50.4585 130.082 50.3464 130.029 50.2462C129.935 50.0458 129.823 49.9515 129.705 49.9633C129.593 49.9751 129.499 50.0753 129.446 50.2521C129.399 50.4054 129.458 50.5646 129.587 50.653V50.6412Z" fill="#4C76BF"/>
<path fill-rule="evenodd" clip-rule="evenodd" d="M130.79 66.3757C136.976 66.3757 141.991 61.3609 141.991 55.1749C141.991 48.9888 136.976 43.974 130.79 43.974C124.604 43.974 119.59 48.9888 119.59 55.1749C119.59 61.3609 124.604 66.3757 130.79 66.3757ZM130.79 66.9652C137.302 66.9652 142.581 61.6865 142.581 55.1749C142.581 48.6632 137.302 43.3845 130.79 43.3845C124.279 43.3845 119 48.6632 119 55.1749C119 61.6865 124.279 66.9652 130.79 66.9652Z" fill="#E2E7EE"/>
</g>
</g>
<g filter="url(#filter1_d_31898_7150)">
<rect x="34" y="44" width="52" height="52" rx="26" fill="#FFF500"/>
<rect x="35.04" y="45.04" width="49.92" height="49.92" rx="24.96" stroke="white" stroke-width="2.08"/>
<g clip-path="url(#clip3_31898_7150)">
<path d="M51.71 60.4112L59.9102 60.4112L59.9102 58.1748L51.71 58.1748L49.4736 58.1748L49.4736 60.4112L49.4736 79.7935L49.4736 82.0299L51.71 82.0299L63.6376 82.0299L65.874 82.0299L65.874 79.7935L65.874 71.5933L63.6376 71.5933L63.6376 79.7935L51.71 79.7935L51.71 60.4112ZM56.1829 76.8116L55.4374 76.8116L55.4374 78.3026L56.1829 78.3026L59.1648 78.3026L59.9102 78.3026L59.9102 76.8116L59.1648 76.8116L56.1829 76.8116ZM61.4012 60.4112C66.7546 60.4112 71.0923 64.7489 71.0923 70.1024L73.3287 70.1024C73.3287 63.5142 67.9893 58.1748 61.4012 58.1748L61.4012 60.4112ZM62.8921 70.1024C63.2876 70.1024 63.6668 69.9453 63.9464 69.6657C64.226 69.3861 64.3831 69.0068 64.3831 68.6114C64.3831 68.216 64.226 67.8368 63.9464 67.5572C63.6668 67.2776 63.2876 67.1205 62.8921 67.1205C62.4967 67.1205 62.1175 67.2776 61.8379 67.5572C61.5583 67.8368 61.4012 68.216 61.4012 68.6114C61.4012 69.0068 61.5583 69.3861 61.8379 69.6657C62.1175 69.9453 62.4967 70.1024 62.8921 70.1024ZM66.6195 70.1024L68.8559 70.1024C68.8559 65.9836 65.5199 62.6476 61.4012 62.6476L61.4012 64.8841C64.2852 64.8841 66.6195 67.2183 66.6195 70.1024Z" fill="black"/>
</g>
</g>
<path d="M76.4658 46.7737C79.4333 46.7737 81.8397 49.1792 81.8398 52.1467C81.8398 55.1143 79.4334 57.5208 76.4658 57.5208C73.4983 57.5206 71.0928 55.1143 71.0928 52.1467C71.0929 49.1793 73.4984 46.7738 76.4658 46.7737Z" fill="#2AD22A"/>
<path d="M76.4658 46.7737C79.4333 46.7737 81.8397 49.1792 81.8398 52.1467C81.8398 55.1143 79.4334 57.5208 76.4658 57.5208C73.4983 57.5206 71.0928 55.1143 71.0928 52.1467C71.0929 49.1793 73.4984 46.7738 76.4658 46.7737Z" stroke="white" stroke-width="2.08"/>
</g>
<defs>
<filter id="filter0_d_31898_7150" x="95.5" y="27.1" width="176" height="91" filterUnits="userSpaceOnUse" color-interpolation-filters="sRGB">
<feFlood flood-opacity="0" result="BackgroundImageFix"/>
<feColorMatrix in="SourceAlpha" type="matrix" values="0 0 0 0 0 0 0 0 0 0 0 0 0 0 0 0 0 0 127 0" result="hardAlpha"/>
<feOffset dy="2.6"/>
<feGaussianBlur stdDeviation="3.75"/>
<feComposite in2="hardAlpha" operator="out"/>
<feColorMatrix type="matrix" values="0 0 0 0 0 0 0 0 0 0 0 0 0 0 0 0 0 0 0.15 0"/>
<feBlend mode="normal" in2="BackgroundImageFix" result="effect1_dropShadow_31898_7150"/>
<feBlend mode="normal" in="SourceGraphic" in2="effect1_dropShadow_31898_7150" result="shape"/>
</filter>
<filter id="filter1_d_31898_7150" x="26.7778" y="39.2815" width="66.4444" height="66.4444" filterUnits="userSpaceOnUse" color-interpolation-filters="sRGB">
<feFlood flood-opacity="0" result="BackgroundImageFix"/>
<feColorMatrix in="SourceAlpha" type="matrix" values="0 0 0 0 0 0 0 0 0 0 0 0 0 0 0 0 0 0 127 0" result="hardAlpha"/>
<feOffset dy="2.5037"/>
<feGaussianBlur stdDeviation="3.61111"/>
<feComposite in2="hardAlpha" operator="out"/>
<feColorMatrix type="matrix" values="0 0 0 0 0 0 0 0 0 0 0 0 0 0 0 0 0 0 0.15 0"/>
<feBlend mode="normal" in2="BackgroundImageFix" result="effect1_dropShadow_31898_7150"/>
<feBlend mode="normal" in="SourceGraphic" in2="effect1_dropShadow_31898_7150" result="shape"/>
</filter>
<linearGradient id="paint0_linear_31898_7150" x1="300" y1="70" x2="-1296" y2="70" gradientUnits="userSpaceOnUse">
<stop stop-color="#9FCFF2"/>
<stop offset="1" stop-color="#B6D2E1"/>
</linearGradient>
<linearGradient id="paint1_linear_31898_7150" x1="390.168" y1="306.738" x2="557.724" y2="243.53" gradientUnits="userSpaceOnUse">
<stop stop-color="#9FCFF2"/>
<stop offset="1" stop-color="#E2E7EE"/>
</linearGradient>
<clipPath id="clip0_31898_7150">
<rect width="16.2144" height="16.2144" fill="white" transform="translate(87.6318 43.8809)"/>
</clipPath>
<clipPath id="clip1_31898_7150">
<rect width="16.2144" height="16.2144" fill="white" transform="translate(87.6318 129.793)"/>
</clipPath>
<clipPath id="clip2_31898_7150">
<rect width="23.5807" height="23.5807" fill="white" transform="translate(119 43.3843)"/>
</clipPath>
<clipPath id="clip3_31898_7150">
<rect width="23.8551" height="23.8551" fill="white" transform="translate(49.4736 58.1748)"/>
</clipPath>
</defs>
</svg>
