<svg width="300" height="140" viewBox="0 0 300 140" fill="none" xmlns="http://www.w3.org/2000/svg">
<mask id="mask0_3292_4794" style="mask-type:alpha" maskUnits="userSpaceOnUse" x="0" y="0" width="300" height="140">
<path d="M0 140H300V0H0V140Z" fill="url(#paint0_linear_3292_4794)"/>
<path d="M0 140H300V0H0V140Z" stroke="white"/>
</mask>
<g mask="url(#mask0_3292_4794)">
<path d="M20 0C8.95432 0 0 8.95431 0 20V140H300V20C300 8.95431 291.046 1.03088e-06 280 0H20Z" fill="url(#paint1_linear_3292_4794)"/>
<path d="M20 0C8.95432 0 0 8.95431 0 20V140H300V20C300 8.95431 291.046 1.03088e-06 280 0H20Z" stroke="white"/>
<rect x="300" width="186" height="300" transform="rotate(90 300 0)" fill="url(#paint2_linear_3292_4794)"/>
<path opacity="0.3" d="M145.401 -59.7129C148.153 -60.9291 151.287 -60.9292 154.038 -59.7129L257.812 -13.8389C264.422 -10.9169 268.689 -4.35074 268.689 2.90039V21.6826C268.689 98.9079 223.243 168.842 152.834 199.967C150.85 200.844 148.59 200.844 146.605 199.967C76.1964 168.842 30.75 98.9079 30.75 21.6826V2.90039C30.75 -4.35079 35.0172 -10.917 41.627 -13.8389L145.401 -59.7129Z" stroke="white" stroke-opacity="0.6" stroke-width="0.75"/>
<path opacity="0.45" d="M146.238 -34.6494C148.473 -35.6355 151.018 -35.6355 153.253 -34.6494L238.185 2.83203C243.57 5.20847 247.046 10.5482 247.046 16.4453V31.792C247.046 94.861 209.867 151.975 152.267 177.395C150.66 178.103 148.831 178.103 147.225 177.395C89.6241 151.975 52.4453 94.861 52.4453 31.792V16.4453C52.4453 10.5482 55.9216 5.20848 61.3066 2.83203L146.238 -34.6494Z" stroke="white" stroke-opacity="0.6" stroke-width="0.75"/>
<path opacity="0.5" d="M147.143 -12.165C148.868 -12.924 150.833 -12.9241 152.559 -12.165L218.934 17.0381C223.113 18.8767 225.81 23.008 225.81 27.5693V39.5264C225.809 88.6325 196.774 133.103 151.788 152.896C150.554 153.439 149.147 153.439 147.912 152.896C102.926 133.103 73.8908 88.6324 73.8906 39.5264V27.5693C73.8906 23.0081 76.5877 18.8767 80.7666 17.0381L147.143 -12.165Z" stroke="white" stroke-opacity="0.6" stroke-width="0.75"/>
<path opacity="0.7" d="M147.951 9.99609C149.183 9.45461 150.586 9.45461 151.818 9.99609L200.208 31.2656C203.218 32.5886 205.16 35.5612 205.16 38.8428V47.5518C205.16 83.2774 184.016 115.631 151.257 130.03C150.383 130.414 149.387 130.414 148.513 130.03C115.753 115.631 94.6094 83.2774 94.6094 47.5518V38.8428C94.6094 35.5612 96.5517 32.5886 99.5615 31.2656L147.951 9.99609Z" stroke="white" stroke-opacity="0.6" stroke-width="0.75"/>
<g filter="url(#filter0_d_3292_4794)">
<rect x="17" y="34" width="105" height="72" rx="8" fill="white" shape-rendering="crispEdges"/>
<path d="M29.2346 51.7861C28.0615 51.4402 27.0904 50.626 26.5361 49.5625H28.0551C28.343 50.4971 28.7963 51.2361 29.2346 51.7861ZM29.9479 51.0234C29.6557 50.6367 29.3613 50.1512 29.1422 49.5604H31.8557C31.6365 50.149 31.3443 50.6346 31.05 51.0234C30.8588 51.277 30.6676 51.4875 30.4979 51.6551C30.3281 51.4875 30.1369 51.277 29.9457 51.0234H29.9479ZM28.7812 47.5C28.7812 47.1326 28.8113 46.791 28.8672 46.4688H32.1328C32.1865 46.791 32.2188 47.1326 32.2188 47.5C32.2188 47.8674 32.1887 48.209 32.1328 48.5312H28.8672C28.8135 48.209 28.7812 47.8674 28.7812 47.5ZM27.823 46.4688C27.7758 46.7932 27.75 47.1369 27.75 47.5C27.75 47.8631 27.7758 48.2068 27.823 48.5312H26.1516C26.0742 48.2004 26.0312 47.8545 26.0312 47.5C26.0312 47.1455 26.0721 46.7996 26.1516 46.4688H27.823ZM29.1422 45.4375C29.3613 44.8488 29.6535 44.3633 29.9479 43.9744C30.1391 43.7209 30.3303 43.5104 30.5 43.3428C30.6697 43.5104 30.8609 43.7209 31.0521 43.9744C31.3443 44.3611 31.6387 44.8467 31.8578 45.4375H29.1443H29.1422ZM33.177 46.4688H34.8484C34.9258 46.7996 34.9688 47.1455 34.9688 47.5C34.9688 47.8545 34.9279 48.2004 34.8484 48.5312H33.177C33.2242 48.2068 33.25 47.8631 33.25 47.5C33.25 47.1369 33.2242 46.7932 33.177 46.4688ZM34.466 45.4375H32.9471C32.6592 44.5029 32.2059 43.7639 31.7676 43.2139C32.9406 43.5598 33.9117 44.374 34.466 45.4375ZM28.0551 45.4375H26.5361C27.0904 44.3719 28.0637 43.5598 29.2346 43.2139C28.7963 43.7639 28.343 44.5029 28.0551 45.4375ZM31.7654 51.7861C32.2037 51.2361 32.657 50.4971 32.9449 49.5625H34.4639C33.9096 50.6281 32.9363 51.4402 31.7654 51.7861ZM30.5 53C31.9587 53 33.3576 52.4205 34.3891 51.3891C35.4205 50.3576 36 48.9587 36 47.5C36 46.0413 35.4205 44.6424 34.3891 43.6109C33.3576 42.5795 31.9587 42 30.5 42C29.0413 42 27.6424 42.5795 26.6109 43.6109C25.5795 44.6424 25 46.0413 25 47.5C25 48.9587 25.5795 50.3576 26.6109 51.3891C27.6424 52.4205 29.0413 53 30.5 53Z" fill="black"/>
<rect x="103" y="42" width="11" height="11" rx="5.5" fill="#2AD22A" fill-opacity="0.2"/>
<circle cx="108.5" cy="47.5" r="2.36806" fill="#2AD22A" stroke="white" stroke-width="0.611111"/>
<path d="M31.612 65.369L29.18 72H27.565L25.133 65.369H26.558L28.382 70.6415L30.1965 65.369H31.612ZM33.0839 66.11C32.8496 66.11 32.6532 66.0372 32.4949 65.8915C32.3429 65.7395 32.2669 65.5527 32.2669 65.331C32.2669 65.1093 32.3429 64.9257 32.4949 64.78C32.6532 64.628 32.8496 64.552 33.0839 64.552C33.3182 64.552 33.5114 64.628 33.6634 64.78C33.8217 64.9257 33.9009 65.1093 33.9009 65.331C33.9009 65.5527 33.8217 65.7395 33.6634 65.8915C33.5114 66.0372 33.3182 66.11 33.0839 66.11ZM33.7394 66.737V72H32.4094V66.737H33.7394ZM36.3834 67.554C36.5544 67.2753 36.7761 67.0568 37.0484 66.8985C37.3271 66.7402 37.6438 66.661 37.9984 66.661V68.0575H37.6469C37.2289 68.0575 36.9123 68.1557 36.6969 68.352C36.4879 68.5483 36.3834 68.8903 36.3834 69.378V72H35.0534V66.737H36.3834V67.554ZM40.4428 67.8295V70.3755C40.4428 70.5528 40.4839 70.6827 40.5663 70.765C40.6549 70.841 40.8006 70.879 41.0033 70.879H41.6208V72H40.7848C39.6638 72 39.1033 71.4553 39.1033 70.366V67.8295H38.4763V66.737H39.1033V65.4355H40.4428V66.737H41.6208V67.8295H40.4428ZM47.5459 66.737V72H46.2064V71.335C46.0354 71.563 45.8105 71.7435 45.5319 71.8765C45.2595 72.0032 44.9619 72.0665 44.6389 72.0665C44.2272 72.0665 43.863 71.981 43.5464 71.81C43.2297 71.6327 42.9795 71.3762 42.7959 71.0405C42.6185 70.6985 42.5299 70.2932 42.5299 69.8245V66.737H43.8599V69.6345C43.8599 70.0525 43.9644 70.3755 44.1734 70.6035C44.3824 70.8252 44.6674 70.936 45.0284 70.936C45.3957 70.936 45.6839 70.8252 45.8929 70.6035C46.1019 70.3755 46.2064 70.0525 46.2064 69.6345V66.737H47.5459ZM48.5161 69.3495C48.5161 68.8175 48.6206 68.3457 48.8296 67.934C49.045 67.5223 49.3331 67.2057 49.6941 66.984C50.0615 66.7623 50.47 66.6515 50.9196 66.6515C51.3123 66.6515 51.6543 66.7307 51.9456 66.889C52.2433 67.0473 52.4808 67.2468 52.6581 67.4875V66.737H53.9976V72H52.6581V71.2305C52.4871 71.4775 52.2496 71.6833 51.9456 71.848C51.648 72.0063 51.3028 72.0855 50.9101 72.0855C50.4668 72.0855 50.0615 71.9715 49.6941 71.7435C49.3331 71.5155 49.045 71.1957 48.8296 70.784C48.6206 70.366 48.5161 69.8878 48.5161 69.3495ZM52.6581 69.3685C52.6581 69.0455 52.5948 68.77 52.4681 68.542C52.3415 68.3077 52.1705 68.1303 51.9551 68.01C51.7398 67.8833 51.5086 67.82 51.2616 67.82C51.0146 67.82 50.7866 67.8802 50.5776 68.0005C50.3686 68.1208 50.1976 68.2982 50.0646 68.5325C49.938 68.7605 49.8746 69.0328 49.8746 69.3495C49.8746 69.6662 49.938 69.9448 50.0646 70.1855C50.1976 70.4198 50.3686 70.6003 50.5776 70.727C50.793 70.8537 51.021 70.917 51.2616 70.917C51.5086 70.917 51.7398 70.8568 51.9551 70.7365C52.1705 70.6098 52.3415 70.4325 52.4681 70.2045C52.5948 69.9702 52.6581 69.6915 52.6581 69.3685ZM56.6266 64.97V72H55.2966V64.97H56.6266ZM61.5343 64.97V72H60.2043V64.97H61.5343ZM65.1854 72.0855C64.6787 72.0855 64.2227 71.9747 63.8174 71.753C63.412 71.525 63.0922 71.2052 62.8579 70.7935C62.6299 70.3818 62.5159 69.9068 62.5159 69.3685C62.5159 68.8302 62.633 68.3552 62.8674 67.9435C63.108 67.5318 63.4342 67.2152 63.8459 66.9935C64.2575 66.7655 64.7167 66.6515 65.2234 66.6515C65.73 66.6515 66.1892 66.7655 66.6009 66.9935C67.0125 67.2152 67.3355 67.5318 67.5699 67.9435C67.8105 68.3552 67.9309 68.8302 67.9309 69.3685C67.9309 69.9068 67.8074 70.3818 67.5604 70.7935C67.3197 71.2052 66.9904 71.525 66.5724 71.753C66.1607 71.9747 65.6984 72.0855 65.1854 72.0855ZM65.1854 70.9265C65.426 70.9265 65.6509 70.8695 65.8599 70.7555C66.0752 70.6352 66.2462 70.4578 66.3729 70.2235C66.4995 69.9892 66.5629 69.7042 66.5629 69.3685C66.5629 68.8682 66.4299 68.485 66.1639 68.219C65.9042 67.9467 65.5844 67.8105 65.2044 67.8105C64.8244 67.8105 64.5045 67.9467 64.2449 68.219C63.9915 68.485 63.8649 68.8682 63.8649 69.3685C63.8649 69.8688 63.9884 70.2552 64.2354 70.5275C64.4887 70.7935 64.8054 70.9265 65.1854 70.9265ZM68.5645 69.3685C68.5645 68.8238 68.6753 68.3488 68.897 67.9435C69.1186 67.5318 69.4258 67.2152 69.8185 66.9935C70.2111 66.7655 70.6608 66.6515 71.1675 66.6515C71.8198 66.6515 72.3581 66.8162 72.7825 67.1455C73.2131 67.4685 73.5013 67.9245 73.647 68.5135H72.2125C72.1365 68.2855 72.0066 68.1082 71.823 67.9815C71.6456 67.8485 71.424 67.782 71.158 67.782C70.778 67.782 70.4771 67.9213 70.2555 68.2C70.0338 68.4723 69.923 68.8618 69.923 69.3685C69.923 69.8688 70.0338 70.2583 70.2555 70.537C70.4771 70.8093 70.778 70.9455 71.158 70.9455C71.6963 70.9455 72.0478 70.7048 72.2125 70.2235H73.647C73.5013 70.7935 73.2131 71.2463 72.7825 71.582C72.3518 71.9177 71.8135 72.0855 71.1675 72.0855C70.6608 72.0855 70.2111 71.9747 69.8185 71.753C69.4258 71.525 69.1186 71.2083 68.897 70.803C68.6753 70.3913 68.5645 69.9132 68.5645 69.3685ZM74.2793 69.3495C74.2793 68.8175 74.3838 68.3457 74.5928 67.934C74.8082 67.5223 75.0963 67.2057 75.4573 66.984C75.8247 66.7623 76.2332 66.6515 76.6828 66.6515C77.0755 66.6515 77.4175 66.7307 77.7088 66.889C78.0065 67.0473 78.244 67.2468 78.4213 67.4875V66.737H79.7608V72H78.4213V71.2305C78.2503 71.4775 78.0128 71.6833 77.7088 71.848C77.4112 72.0063 77.066 72.0855 76.6733 72.0855C76.23 72.0855 75.8247 71.9715 75.4573 71.7435C75.0963 71.5155 74.8082 71.1957 74.5928 70.784C74.3838 70.366 74.2793 69.8878 74.2793 69.3495ZM78.4213 69.3685C78.4213 69.0455 78.358 68.77 78.2313 68.542C78.1047 68.3077 77.9337 68.1303 77.7183 68.01C77.503 67.8833 77.2718 67.82 77.0248 67.82C76.7778 67.82 76.5498 67.8802 76.3408 68.0005C76.1318 68.1208 75.9608 68.2982 75.8278 68.5325C75.7012 68.7605 75.6378 69.0328 75.6378 69.3495C75.6378 69.6662 75.7012 69.9448 75.8278 70.1855C75.9608 70.4198 76.1318 70.6003 76.3408 70.727C76.5562 70.8537 76.7842 70.917 77.0248 70.917C77.2718 70.917 77.503 70.8568 77.7183 70.7365C77.9337 70.6098 78.1047 70.4325 78.2313 70.2045C78.358 69.9702 78.4213 69.6915 78.4213 69.3685ZM82.6083 67.8295V70.3755C82.6083 70.5528 82.6495 70.6827 82.7318 70.765C82.8205 70.841 82.9661 70.879 83.1688 70.879H83.7863V72H82.9503C81.8293 72 81.2688 71.4553 81.2688 70.366V67.8295H80.6418V66.737H81.2688V65.4355H82.6083V66.737H83.7863V67.8295H82.6083ZM85.4174 66.11C85.1831 66.11 84.9867 66.0372 84.8284 65.8915C84.6764 65.7395 84.6004 65.5527 84.6004 65.331C84.6004 65.1093 84.6764 64.9257 84.8284 64.78C84.9867 64.628 85.1831 64.552 85.4174 64.552C85.6517 64.552 85.8449 64.628 85.9969 64.78C86.1552 64.9257 86.2344 65.1093 86.2344 65.331C86.2344 65.5527 86.1552 65.7395 85.9969 65.8915C85.8449 66.0372 85.6517 66.11 85.4174 66.11ZM86.0729 66.737V72H84.7429V66.737H86.0729ZM89.7239 72.0855C89.2173 72.0855 88.7613 71.9747 88.3559 71.753C87.9506 71.525 87.6308 71.2052 87.3964 70.7935C87.1684 70.3818 87.0544 69.9068 87.0544 69.3685C87.0544 68.8302 87.1716 68.3552 87.4059 67.9435C87.6466 67.5318 87.9728 67.2152 88.3844 66.9935C88.7961 66.7655 89.2553 66.6515 89.7619 66.6515C90.2686 66.6515 90.7278 66.7655 91.1394 66.9935C91.5511 67.2152 91.8741 67.5318 92.1084 67.9435C92.3491 68.3552 92.4694 68.8302 92.4694 69.3685C92.4694 69.9068 92.3459 70.3818 92.0989 70.7935C91.8583 71.2052 91.5289 71.525 91.1109 71.753C90.6993 71.9747 90.2369 72.0855 89.7239 72.0855ZM89.7239 70.9265C89.9646 70.9265 90.1894 70.8695 90.3984 70.7555C90.6138 70.6352 90.7848 70.4578 90.9114 70.2235C91.0381 69.9892 91.1014 69.7042 91.1014 69.3685C91.1014 68.8682 90.9684 68.485 90.7024 68.219C90.4428 67.9467 90.1229 67.8105 89.7429 67.8105C89.3629 67.8105 89.0431 67.9467 88.7834 68.219C88.5301 68.485 88.4034 68.8682 88.4034 69.3685C88.4034 69.8688 88.5269 70.2552 88.7739 70.5275C89.0273 70.7935 89.3439 70.9265 89.7239 70.9265ZM96.3616 66.661C96.9886 66.661 97.4952 66.8605 97.8816 67.2595C98.2679 67.6522 98.4611 68.2032 98.4611 68.9125V72H97.1311V69.093C97.1311 68.675 97.0266 68.3552 96.8176 68.1335C96.6086 67.9055 96.3236 67.7915 95.9626 67.7915C95.5952 67.7915 95.3039 67.9055 95.0886 68.1335C94.8796 68.3552 94.7751 68.675 94.7751 69.093V72H93.4451V66.737H94.7751V67.3925C94.9524 67.1645 95.1772 66.9872 95.4496 66.8605C95.7282 66.7275 96.0322 66.661 96.3616 66.661Z" fill="black"/>
<rect x="25" y="82" width="22.8952" height="16" rx="8" fill="#FFF500"/>
<path d="M33.8886 92.556C33.3713 92.556 32.8993 92.436 32.4726 92.196C32.046 91.9507 31.7073 91.612 31.4566 91.18C31.2113 90.7427 31.0886 90.252 31.0886 89.708C31.0886 89.164 31.2113 88.676 31.4566 88.244C31.7073 87.8067 32.046 87.468 32.4726 87.228C32.8993 86.9827 33.3713 86.86 33.8886 86.86C34.4113 86.86 34.886 86.9827 35.3126 87.228C35.7393 87.468 36.0753 87.804 36.3206 88.236C36.566 88.668 36.6886 89.1587 36.6886 89.708C36.6886 90.2573 36.566 90.748 36.3206 91.18C36.0753 91.612 35.7393 91.9507 35.3126 92.196C34.886 92.436 34.4113 92.556 33.8886 92.556ZM33.8886 91.924C34.278 91.924 34.6273 91.8333 34.9366 91.652C35.2513 91.4707 35.4966 91.212 35.6726 90.876C35.854 90.54 35.9446 90.1507 35.9446 89.708C35.9446 89.26 35.854 88.8707 35.6726 88.54C35.4966 88.204 35.254 87.9453 34.9446 87.764C34.6353 87.5827 34.2833 87.492 33.8886 87.492C33.494 87.492 33.142 87.5827 32.8326 87.764C32.5233 87.9453 32.278 88.204 32.0966 88.54C31.9206 88.8707 31.8326 89.26 31.8326 89.708C31.8326 90.1507 31.9206 90.54 32.0966 90.876C32.278 91.212 32.5233 91.4707 32.8326 91.652C33.1473 91.8333 33.4993 91.924 33.8886 91.924ZM39.7857 88.036C40.319 88.036 40.751 88.1987 41.0817 88.524C41.4124 88.844 41.5777 89.308 41.5777 89.916V92.5H40.8577V90.02C40.8577 89.5827 40.7484 89.2493 40.5297 89.02C40.311 88.7853 40.0124 88.668 39.6337 88.668C39.2497 88.668 38.943 88.788 38.7137 89.028C38.4897 89.268 38.3777 89.6173 38.3777 90.076V92.5H37.6497V88.116H38.3777V88.74C38.5217 88.516 38.7164 88.3427 38.9617 88.22C39.2124 88.0973 39.487 88.036 39.7857 88.036Z" fill="black"/>
</g>
<g filter="url(#filter2_d_3292_4794)">
<rect x="178" y="34" width="105" height="72" rx="8" fill="white" shape-rendering="crispEdges"/>
<rect x="264" y="42" width="11" height="11" rx="5.5" fill="#2AD22A" fill-opacity="0.2"/>
<circle cx="269.5" cy="47.5" r="2.36806" fill="#2AD22A" stroke="white" stroke-width="0.611111"/>
<path d="M209.722 70.7365H207.081L206.644 72H205.247L207.632 65.3595H209.18L211.565 72H210.159L209.722 70.7365ZM209.361 69.6725L208.401 66.8985L207.441 69.6725H209.361ZM212.114 69.3495C212.114 68.8175 212.218 68.3457 212.427 67.934C212.643 67.5223 212.934 67.2057 213.301 66.984C213.669 66.7623 214.077 66.6515 214.527 66.6515C214.869 66.6515 215.195 66.7275 215.505 66.8795C215.816 67.0252 216.063 67.2215 216.246 67.4685V64.97H217.595V72H216.246V71.221C216.082 71.4807 215.85 71.6897 215.553 71.848C215.255 72.0063 214.91 72.0855 214.517 72.0855C214.074 72.0855 213.669 71.9715 213.301 71.7435C212.934 71.5155 212.643 71.1957 212.427 70.784C212.218 70.366 212.114 69.8878 212.114 69.3495ZM216.256 69.3685C216.256 69.0455 216.192 68.77 216.066 68.542C215.939 68.3077 215.768 68.1303 215.553 68.01C215.337 67.8833 215.106 67.82 214.859 67.82C214.612 67.82 214.384 67.8802 214.175 68.0005C213.966 68.1208 213.795 68.2982 213.662 68.5325C213.536 68.7605 213.472 69.0328 213.472 69.3495C213.472 69.6662 213.536 69.9448 213.662 70.1855C213.795 70.4198 213.966 70.6003 214.175 70.727C214.391 70.8537 214.619 70.917 214.859 70.917C215.106 70.917 215.337 70.8568 215.553 70.7365C215.768 70.6098 215.939 70.4325 216.066 70.2045C216.192 69.9702 216.256 69.6915 216.256 69.3685ZM222.488 67.5065C222.659 67.2532 222.893 67.0473 223.191 66.889C223.495 66.7307 223.84 66.6515 224.226 66.6515C224.676 66.6515 225.081 66.7623 225.442 66.984C225.81 67.2057 226.098 67.5223 226.307 67.934C226.522 68.3393 226.63 68.8112 226.63 69.3495C226.63 69.8878 226.522 70.366 226.307 70.784C226.098 71.1957 225.81 71.5155 225.442 71.7435C225.081 71.9715 224.676 72.0855 224.226 72.0855C223.834 72.0855 223.489 72.0095 223.191 71.8575C222.9 71.6992 222.665 71.4965 222.488 71.2495V72H221.158V64.97H222.488V67.5065ZM225.271 69.3495C225.271 69.0328 225.205 68.7605 225.072 68.5325C224.945 68.2982 224.774 68.1208 224.559 68.0005C224.35 67.8802 224.122 67.82 223.875 67.82C223.634 67.82 223.406 67.8833 223.191 68.01C222.982 68.1303 222.811 68.3077 222.678 68.542C222.551 68.7763 222.488 69.0518 222.488 69.3685C222.488 69.6852 222.551 69.9607 222.678 70.195C222.811 70.4293 222.982 70.6098 223.191 70.7365C223.406 70.8568 223.634 70.917 223.875 70.917C224.122 70.917 224.35 70.8537 224.559 70.727C224.774 70.6003 224.945 70.4198 225.072 70.1855C225.205 69.9512 225.271 69.6725 225.271 69.3495ZM228.926 64.97V72H227.596V64.97H228.926ZM232.577 72.0855C232.071 72.0855 231.615 71.9747 231.209 71.753C230.804 71.525 230.484 71.2052 230.25 70.7935C230.022 70.3818 229.908 69.9068 229.908 69.3685C229.908 68.8302 230.025 68.3552 230.259 67.9435C230.5 67.5318 230.826 67.2152 231.238 66.9935C231.65 66.7655 232.109 66.6515 232.615 66.6515C233.122 66.6515 233.581 66.7655 233.993 66.9935C234.405 67.2152 234.728 67.5318 234.962 67.9435C235.203 68.3552 235.323 68.8302 235.323 69.3685C235.323 69.9068 235.199 70.3818 234.952 70.7935C234.712 71.2052 234.382 71.525 233.964 71.753C233.553 71.9747 233.09 72.0855 232.577 72.0855ZM232.577 70.9265C232.818 70.9265 233.043 70.8695 233.252 70.7555C233.467 70.6352 233.638 70.4578 233.765 70.2235C233.892 69.9892 233.955 69.7042 233.955 69.3685C233.955 68.8682 233.822 68.485 233.556 68.219C233.296 67.9467 232.976 67.8105 232.596 67.8105C232.216 67.8105 231.897 67.9467 231.637 68.219C231.384 68.485 231.257 68.8682 231.257 69.3685C231.257 69.8688 231.38 70.2552 231.627 70.5275C231.881 70.7935 232.197 70.9265 232.577 70.9265ZM235.957 69.3685C235.957 68.8238 236.067 68.3488 236.289 67.9435C236.511 67.5318 236.818 67.2152 237.211 66.9935C237.603 66.7655 238.053 66.6515 238.56 66.6515C239.212 66.6515 239.75 66.8162 240.175 67.1455C240.605 67.4685 240.893 67.9245 241.039 68.5135H239.605C239.529 68.2855 239.399 68.1082 239.215 67.9815C239.038 67.8485 238.816 67.782 238.55 67.782C238.17 67.782 237.869 67.9213 237.648 68.2C237.426 68.4723 237.315 68.8618 237.315 69.3685C237.315 69.8688 237.426 70.2583 237.648 70.537C237.869 70.8093 238.17 70.9455 238.55 70.9455C239.088 70.9455 239.44 70.7048 239.605 70.2235H241.039C240.893 70.7935 240.605 71.2463 240.175 71.582C239.744 71.9177 239.206 72.0855 238.56 72.0855C238.053 72.0855 237.603 71.9747 237.211 71.753C236.818 71.525 236.511 71.2083 236.289 70.803C236.067 70.3913 235.957 69.9132 235.957 69.3685ZM245.129 72L243.343 69.758V72H242.013V64.97H243.343V68.9695L245.11 66.737H246.839L244.521 69.378L246.858 72H245.129ZM252.454 69.2545C252.454 69.4445 252.441 69.6155 252.416 69.7675H248.568C248.6 70.1475 248.733 70.4452 248.967 70.6605C249.202 70.8758 249.49 70.9835 249.832 70.9835C250.326 70.9835 250.677 70.7713 250.886 70.347H252.321C252.169 70.8537 251.877 71.2717 251.447 71.601C251.016 71.924 250.487 72.0855 249.86 72.0855C249.354 72.0855 248.898 71.9747 248.492 71.753C248.093 71.525 247.78 71.2052 247.552 70.7935C247.33 70.3818 247.219 69.9068 247.219 69.3685C247.219 68.8238 247.33 68.3457 247.552 67.934C247.773 67.5223 248.084 67.2057 248.483 66.984C248.882 66.7623 249.341 66.6515 249.86 66.6515C250.361 66.6515 250.807 66.7592 251.2 66.9745C251.599 67.1898 251.906 67.497 252.121 67.896C252.343 68.2887 252.454 68.7415 252.454 69.2545ZM251.076 68.8745C251.07 68.5325 250.946 68.2602 250.706 68.0575C250.465 67.8485 250.171 67.744 249.822 67.744C249.493 67.744 249.214 67.8453 248.986 68.048C248.765 68.2443 248.628 68.5198 248.578 68.8745H251.076ZM254.755 67.554C254.926 67.2753 255.147 67.0568 255.42 66.8985C255.698 66.7402 256.015 66.661 256.37 66.661V68.0575H256.018C255.6 68.0575 255.283 68.1557 255.068 68.352C254.859 68.5483 254.755 68.8903 254.755 69.378V72H253.425V66.737H254.755V67.554Z" fill="black"/>
<rect x="205" y="82" width="22.8952" height="16" rx="8" fill="#FFF500"/>
<path d="M213.889 92.556C213.371 92.556 212.899 92.436 212.473 92.196C212.046 91.9507 211.707 91.612 211.457 91.18C211.211 90.7427 211.089 90.252 211.089 89.708C211.089 89.164 211.211 88.676 211.457 88.244C211.707 87.8067 212.046 87.468 212.473 87.228C212.899 86.9827 213.371 86.86 213.889 86.86C214.411 86.86 214.886 86.9827 215.313 87.228C215.739 87.468 216.075 87.804 216.321 88.236C216.566 88.668 216.689 89.1587 216.689 89.708C216.689 90.2573 216.566 90.748 216.321 91.18C216.075 91.612 215.739 91.9507 215.313 92.196C214.886 92.436 214.411 92.556 213.889 92.556ZM213.889 91.924C214.278 91.924 214.627 91.8333 214.937 91.652C215.251 91.4707 215.497 91.212 215.673 90.876C215.854 90.54 215.945 90.1507 215.945 89.708C215.945 89.26 215.854 88.8707 215.673 88.54C215.497 88.204 215.254 87.9453 214.945 87.764C214.635 87.5827 214.283 87.492 213.889 87.492C213.494 87.492 213.142 87.5827 212.833 87.764C212.523 87.9453 212.278 88.204 212.097 88.54C211.921 88.8707 211.833 89.26 211.833 89.708C211.833 90.1507 211.921 90.54 212.097 90.876C212.278 91.212 212.523 91.4707 212.833 91.652C213.147 91.8333 213.499 91.924 213.889 91.924ZM219.786 88.036C220.319 88.036 220.751 88.1987 221.082 88.524C221.412 88.844 221.578 89.308 221.578 89.916V92.5H220.858V90.02C220.858 89.5827 220.748 89.2493 220.53 89.02C220.311 88.7853 220.012 88.668 219.634 88.668C219.25 88.668 218.943 88.788 218.714 89.028C218.49 89.268 218.378 89.6173 218.378 90.076V92.5H217.65V88.116H218.378V88.74C218.522 88.516 218.716 88.3427 218.962 88.22C219.212 88.0973 219.487 88.036 219.786 88.036Z" fill="black"/>
<path d="M213.274 51.0041L206.996 44.7264C206.392 45.4869 206.031 46.4516 206.031 47.5C206.031 49.9686 208.031 51.9688 210.5 51.9688C211.548 51.9688 212.513 51.6078 213.274 51.0041ZM214.002 50.2758C214.608 49.5131 214.969 48.5484 214.969 47.5C214.969 45.0314 212.969 43.0312 210.5 43.0312C209.452 43.0312 208.487 43.3922 207.726 43.9959L214.004 50.2736L214.002 50.2758ZM205 47.5C205 46.0413 205.579 44.6424 206.611 43.6109C207.642 42.5795 209.041 42 210.5 42C211.959 42 213.358 42.5795 214.389 43.6109C215.421 44.6424 216 46.0413 216 47.5C216 48.9587 215.421 50.3576 214.389 51.3891C213.358 52.4205 211.959 53 210.5 53C209.041 53 207.642 52.4205 206.611 51.3891C205.579 50.3576 205 48.9587 205 47.5Z" fill="black"/>
</g>
<g filter="url(#filter4_d_3292_4794)">
<rect x="103.156" y="25" width="94" height="90" rx="8" fill="white"/>
<rect x="103.656" y="25.5" width="93" height="89" rx="7.5" stroke="#D9D9D9"/>
<g clip-path="url(#clip0_3292_4794)">
<path d="M112.509 35.9531L117.007 34.207L121.507 35.9531C121.53 36.9727 121.345 38.4586 120.715 39.9094C120.051 41.4305 118.908 42.9 117.007 43.7719C115.106 42.9023 113.962 41.4305 113.301 39.9094C112.671 38.4586 112.486 36.9727 112.509 35.9531ZM122.62 35.6484L122.592 35.168L122.142 34.9922L117.279 33.1055L117.007 33L116.735 33.1055L111.872 34.9922L111.424 35.168L111.396 35.6484C111.328 36.818 111.511 38.6086 112.27 40.357C113.037 42.1195 114.403 43.8727 116.709 44.8711L117.007 45L117.305 44.8711C119.611 43.8727 120.977 42.1219 121.744 40.357C122.503 38.6062 122.686 36.818 122.618 35.6484H122.62ZM118.319 37.875C118.319 37.1508 117.731 36.5625 117.007 36.5625C116.283 36.5625 115.694 37.1508 115.694 37.875C115.694 38.3977 116.001 38.85 116.444 39.0609V40.6875V41.25H117.569V40.6875V39.0609C118.012 38.85 118.319 38.3977 118.319 37.875Z" fill="black"/>
</g>
<rect x="177.156" y="33" width="12" height="12" rx="6" fill="#2AD22A" fill-opacity="0.2"/>
<circle cx="183.156" cy="39" r="2.58333" fill="#2AD22A" stroke="white" stroke-width="0.666667"/>
<path d="M120.675 73.369L118.823 80H117.255L116.011 75.2785L114.709 80L113.151 80.0095L111.365 73.369H112.79L113.959 78.518L115.308 73.369H116.79L118.063 78.4895L119.241 73.369H120.675ZM126.436 77.2545C126.436 77.4445 126.424 77.6155 126.398 77.7675H122.551C122.582 78.1475 122.715 78.4452 122.95 78.6605C123.184 78.8758 123.472 78.9835 123.814 78.9835C124.308 78.9835 124.66 78.7713 124.869 78.347H126.303C126.151 78.8537 125.86 79.2717 125.429 79.601C124.999 79.924 124.47 80.0855 123.843 80.0855C123.336 80.0855 122.88 79.9747 122.475 79.753C122.076 79.525 121.762 79.2052 121.534 78.7935C121.313 78.3818 121.202 77.9068 121.202 77.3685C121.202 76.8238 121.313 76.3457 121.534 75.934C121.756 75.5223 122.066 75.2057 122.465 74.984C122.864 74.7623 123.323 74.6515 123.843 74.6515C124.343 74.6515 124.79 74.7592 125.182 74.9745C125.581 75.1898 125.888 75.497 126.104 75.896C126.325 76.2887 126.436 76.7415 126.436 77.2545ZM125.059 76.8745C125.052 76.5325 124.929 76.2602 124.688 76.0575C124.448 75.8485 124.153 75.744 123.805 75.744C123.475 75.744 123.197 75.8453 122.969 76.048C122.747 76.2443 122.611 76.5198 122.56 76.8745H125.059ZM128.737 75.5065C128.908 75.2532 129.142 75.0473 129.44 74.889C129.744 74.7307 130.089 74.6515 130.475 74.6515C130.925 74.6515 131.33 74.7623 131.691 74.984C132.059 75.2057 132.347 75.5223 132.556 75.934C132.771 76.3393 132.879 76.8112 132.879 77.3495C132.879 77.8878 132.771 78.366 132.556 78.784C132.347 79.1957 132.059 79.5155 131.691 79.7435C131.33 79.9715 130.925 80.0855 130.475 80.0855C130.083 80.0855 129.738 80.0095 129.44 79.8575C129.149 79.6992 128.914 79.4965 128.737 79.2495V80H127.407V72.97H128.737V75.5065ZM131.52 77.3495C131.52 77.0328 131.454 76.7605 131.321 76.5325C131.194 76.2982 131.023 76.1208 130.808 76.0005C130.599 75.8802 130.371 75.82 130.124 75.82C129.883 75.82 129.655 75.8833 129.44 76.01C129.231 76.1303 129.06 76.3077 128.927 76.542C128.8 76.7763 128.737 77.0518 128.737 77.3685C128.737 77.6852 128.8 77.9607 128.927 78.195C129.06 78.4293 129.231 78.6098 129.44 78.7365C129.655 78.8568 129.883 78.917 130.124 78.917C130.371 78.917 130.599 78.8537 130.808 78.727C131.023 78.6003 131.194 78.4198 131.321 78.1855C131.454 77.9512 131.52 77.6725 131.52 77.3495ZM137.439 75.497C137.61 75.2563 137.844 75.0568 138.142 74.8985C138.446 74.7338 138.791 74.6515 139.178 74.6515C139.627 74.6515 140.033 74.7623 140.394 74.984C140.761 75.2057 141.049 75.5223 141.258 75.934C141.473 76.3393 141.581 76.8112 141.581 77.3495C141.581 77.8878 141.473 78.366 141.258 78.784C141.049 79.1957 140.761 79.5155 140.394 79.7435C140.033 79.9715 139.627 80.0855 139.178 80.0855C138.791 80.0855 138.449 80.0063 138.152 79.848C137.86 79.6897 137.623 79.4902 137.439 79.2495V82.508H136.109V74.737H137.439V75.497ZM140.223 77.3495C140.223 77.0328 140.156 76.7605 140.023 76.5325C139.896 76.2982 139.725 76.1208 139.51 76.0005C139.301 75.8802 139.073 75.82 138.826 75.82C138.585 75.82 138.357 75.8833 138.142 76.01C137.933 76.1303 137.762 76.3077 137.629 76.542C137.502 76.7763 137.439 77.0518 137.439 77.3685C137.439 77.6852 137.502 77.9607 137.629 78.195C137.762 78.4293 137.933 78.6098 138.142 78.7365C138.357 78.8568 138.585 78.917 138.826 78.917C139.073 78.917 139.301 78.8537 139.51 78.727C139.725 78.6003 139.896 78.4198 140.023 78.1855C140.156 77.9512 140.223 77.6725 140.223 77.3495ZM143.878 75.554C144.049 75.2753 144.27 75.0568 144.543 74.8985C144.821 74.7402 145.138 74.661 145.493 74.661V76.0575H145.141C144.723 76.0575 144.406 76.1557 144.191 76.352C143.982 76.5483 143.878 76.8903 143.878 77.378V80H142.548V74.737H143.878V75.554ZM148.725 80.0855C148.219 80.0855 147.763 79.9747 147.357 79.753C146.952 79.525 146.632 79.2052 146.398 78.7935C146.17 78.3818 146.056 77.9068 146.056 77.3685C146.056 76.8302 146.173 76.3552 146.407 75.9435C146.648 75.5318 146.974 75.2152 147.386 74.9935C147.798 74.7655 148.257 74.6515 148.763 74.6515C149.27 74.6515 149.729 74.7655 150.141 74.9935C150.553 75.2152 150.876 75.5318 151.11 75.9435C151.351 76.3552 151.471 76.8302 151.471 77.3685C151.471 77.9068 151.347 78.3818 151.1 78.7935C150.86 79.2052 150.53 79.525 150.112 79.753C149.701 79.9747 149.238 80.0855 148.725 80.0855ZM148.725 78.9265C148.966 78.9265 149.191 78.8695 149.4 78.7555C149.615 78.6352 149.786 78.4578 149.913 78.2235C150.04 77.9892 150.103 77.7042 150.103 77.3685C150.103 76.8682 149.97 76.485 149.704 76.219C149.444 75.9467 149.124 75.8105 148.744 75.8105C148.364 75.8105 148.045 75.9467 147.785 76.219C147.532 76.485 147.405 76.8682 147.405 77.3685C147.405 77.8688 147.528 78.2552 147.775 78.5275C148.029 78.7935 148.345 78.9265 148.725 78.9265ZM153.995 75.8295V78.3755C153.995 78.5528 154.036 78.6827 154.119 78.765C154.207 78.841 154.353 78.879 154.556 78.879H155.173V80H154.337C153.216 80 152.656 79.4553 152.656 78.366V75.8295H152.029V74.737H152.656V73.4355H153.995V74.737H155.173V75.8295H153.995ZM161.022 77.2545C161.022 77.4445 161.009 77.6155 160.984 77.7675H157.137C157.168 78.1475 157.301 78.4452 157.536 78.6605C157.77 78.8758 158.058 78.9835 158.4 78.9835C158.894 78.9835 159.246 78.7713 159.455 78.347H160.889C160.737 78.8537 160.446 79.2717 160.015 79.601C159.584 79.924 159.056 80.0855 158.429 80.0855C157.922 80.0855 157.466 79.9747 157.061 79.753C156.662 79.525 156.348 79.2052 156.12 78.7935C155.898 78.3818 155.788 77.9068 155.788 77.3685C155.788 76.8238 155.898 76.3457 156.12 75.934C156.342 75.5223 156.652 75.2057 157.051 74.984C157.45 74.7623 157.909 74.6515 158.429 74.6515C158.929 74.6515 159.375 74.7592 159.768 74.9745C160.167 75.1898 160.474 75.497 160.69 75.896C160.911 76.2887 161.022 76.7415 161.022 77.2545ZM159.645 76.8745C159.638 76.5325 159.515 76.2602 159.274 76.0575C159.033 75.8485 158.739 75.744 158.391 75.744C158.061 75.744 157.783 75.8453 157.555 76.048C157.333 76.2443 157.197 76.5198 157.146 76.8745H159.645ZM161.651 77.3685C161.651 76.8238 161.762 76.3488 161.983 75.9435C162.205 75.5318 162.512 75.2152 162.905 74.9935C163.298 74.7655 163.747 74.6515 164.254 74.6515C164.906 74.6515 165.445 74.8162 165.869 75.1455C166.3 75.4685 166.588 75.9245 166.733 76.5135H165.299C165.223 76.2855 165.093 76.1082 164.909 75.9815C164.732 75.8485 164.51 75.782 164.244 75.782C163.864 75.782 163.564 75.9213 163.342 76.2C163.12 76.4723 163.009 76.8618 163.009 77.3685C163.009 77.8688 163.12 78.2583 163.342 78.537C163.564 78.8093 163.864 78.9455 164.244 78.9455C164.783 78.9455 165.134 78.7048 165.299 78.2235H166.733C166.588 78.7935 166.3 79.2463 165.869 79.582C165.438 79.9177 164.9 80.0855 164.254 80.0855C163.747 80.0855 163.298 79.9747 162.905 79.753C162.512 79.525 162.205 79.2083 161.983 78.803C161.762 78.3913 161.651 77.9132 161.651 77.3685ZM169.256 75.8295V78.3755C169.256 78.5528 169.297 78.6827 169.38 78.765C169.468 78.841 169.614 78.879 169.817 78.879H170.434V80H169.598C168.477 80 167.917 79.4553 167.917 78.366V75.8295H167.29V74.737H167.917V73.4355H169.256V74.737H170.434V75.8295H169.256ZM172.065 74.11C171.831 74.11 171.635 74.0372 171.476 73.8915C171.324 73.7395 171.248 73.5527 171.248 73.331C171.248 73.1093 171.324 72.9257 171.476 72.78C171.635 72.628 171.831 72.552 172.065 72.552C172.3 72.552 172.493 72.628 172.645 72.78C172.803 72.9257 172.882 73.1093 172.882 73.331C172.882 73.5527 172.803 73.7395 172.645 73.8915C172.493 74.0372 172.3 74.11 172.065 74.11ZM172.721 74.737V80H171.391V74.737H172.721ZM176.372 80.0855C175.865 80.0855 175.409 79.9747 175.004 79.753C174.599 79.525 174.279 79.2052 174.044 78.7935C173.816 78.3818 173.702 77.9068 173.702 77.3685C173.702 76.8302 173.82 76.3552 174.054 75.9435C174.295 75.5318 174.621 75.2152 175.032 74.9935C175.444 74.7655 175.903 74.6515 176.41 74.6515C176.917 74.6515 177.376 74.7655 177.787 74.9935C178.199 75.2152 178.522 75.5318 178.756 75.9435C178.997 76.3552 179.117 76.8302 179.117 77.3685C179.117 77.9068 178.994 78.3818 178.747 78.7935C178.506 79.2052 178.177 79.525 177.759 79.753C177.347 79.9747 176.885 80.0855 176.372 80.0855ZM176.372 78.9265C176.613 78.9265 176.837 78.8695 177.046 78.7555C177.262 78.6352 177.433 78.4578 177.559 78.2235C177.686 77.9892 177.749 77.7042 177.749 77.3685C177.749 76.8682 177.616 76.485 177.35 76.219C177.091 75.9467 176.771 75.8105 176.391 75.8105C176.011 75.8105 175.691 75.9467 175.431 76.219C175.178 76.485 175.051 76.8682 175.051 77.3685C175.051 77.8688 175.175 78.2552 175.422 78.5275C175.675 78.7935 175.992 78.9265 176.372 78.9265ZM183.01 74.661C183.637 74.661 184.143 74.8605 184.53 75.2595C184.916 75.6522 185.109 76.2032 185.109 76.9125V80H183.779V77.093C183.779 76.675 183.675 76.3552 183.466 76.1335C183.257 75.9055 182.972 75.7915 182.611 75.7915C182.243 75.7915 181.952 75.9055 181.737 76.1335C181.528 76.3552 181.423 76.675 181.423 77.093V80H180.093V74.737H181.423V75.3925C181.6 75.1645 181.825 74.9872 182.098 74.8605C182.376 74.7275 182.68 74.661 183.01 74.661Z" fill="black"/>
<rect x="111.156" y="90" width="22.8952" height="16" rx="8" fill="#FFF500"/>
<path d="M119.99 100.557C119.462 100.557 118.98 100.435 118.544 100.189C118.108 99.9389 117.762 99.593 117.506 99.1517C117.255 98.705 117.13 98.2038 117.13 97.6482C117.13 97.0925 117.255 96.5941 117.506 96.1528C117.762 95.7061 118.108 95.3602 118.544 95.1151C118.98 94.8645 119.462 94.7392 119.99 94.7392C120.524 94.7392 121.009 94.8645 121.445 95.1151C121.88 95.3602 122.224 95.7034 122.474 96.1447C122.725 96.5859 122.85 97.0871 122.85 97.6482C122.85 98.2093 122.725 98.7105 122.474 99.1517C122.224 99.593 121.88 99.9389 121.445 100.189C121.009 100.435 120.524 100.557 119.99 100.557ZM119.99 99.9117C120.388 99.9117 120.745 99.8191 121.061 99.6338C121.382 99.4486 121.633 99.1844 121.812 98.8412C121.997 98.498 122.09 98.1003 122.09 97.6482C122.09 97.1906 121.997 96.7929 121.812 96.4552C121.633 96.112 121.385 95.8478 121.069 95.6626C120.753 95.4773 120.393 95.3847 119.99 95.3847C119.587 95.3847 119.227 95.4773 118.911 95.6626C118.595 95.8478 118.345 96.112 118.16 96.4552C117.98 96.7929 117.89 97.1906 117.89 97.6482C117.89 98.1003 117.98 98.498 118.16 98.8412C118.345 99.1844 118.595 99.4486 118.911 99.6338C119.233 99.8191 119.592 99.9117 119.99 99.9117ZM126.013 95.9404C126.558 95.9404 126.999 96.1065 127.337 96.4388C127.675 96.7657 127.844 97.2396 127.844 97.8606V100.5H127.108V97.9669C127.108 97.5202 126.997 97.1797 126.773 96.9455C126.55 96.7058 126.245 96.5859 125.858 96.5859C125.466 96.5859 125.153 96.7085 124.918 96.9536C124.69 97.1988 124.575 97.5556 124.575 98.0241V100.5H123.832V96.0221H124.575V96.6595C124.722 96.4307 124.921 96.2536 125.172 96.1283C125.428 96.003 125.708 95.9404 126.013 95.9404Z" fill="black"/>
</g>
</g>
<defs>
<filter id="filter0_d_3292_4794" x="9.5" y="29.1" width="120" height="87" filterUnits="userSpaceOnUse" color-interpolation-filters="sRGB">
<feFlood flood-opacity="0" result="BackgroundImageFix"/>
<feColorMatrix in="SourceAlpha" type="matrix" values="0 0 0 0 0 0 0 0 0 0 0 0 0 0 0 0 0 0 127 0" result="hardAlpha"/>
<feOffset dy="2.6"/>
<feGaussianBlur stdDeviation="3.75"/>
<feComposite in2="hardAlpha" operator="out"/>
<feColorMatrix type="matrix" values="0 0 0 0 0 0 0 0 0 0 0 0 0 0 0 0 0 0 0.15 0"/>
<feBlend mode="normal" in2="BackgroundImageFix" result="effect1_dropShadow_3292_4794"/>
<feBlend mode="normal" in="SourceGraphic" in2="effect1_dropShadow_3292_4794" result="shape"/>
</filter>
<filter id="filter2_d_3292_4794" x="170.5" y="29.1" width="120" height="87" filterUnits="userSpaceOnUse" color-interpolation-filters="sRGB">
<feFlood flood-opacity="0" result="BackgroundImageFix"/>
<feColorMatrix in="SourceAlpha" type="matrix" values="0 0 0 0 0 0 0 0 0 0 0 0 0 0 0 0 0 0 127 0" result="hardAlpha"/>
<feOffset dy="2.6"/>
<feGaussianBlur stdDeviation="3.75"/>
<feComposite in2="hardAlpha" operator="out"/>
<feColorMatrix type="matrix" values="0 0 0 0 0 0 0 0 0 0 0 0 0 0 0 0 0 0 0.15 0"/>
<feBlend mode="normal" in2="BackgroundImageFix" result="effect1_dropShadow_3292_4794"/>
<feBlend mode="normal" in="SourceGraphic" in2="effect1_dropShadow_3292_4794" result="shape"/>
</filter>
<filter id="filter4_d_3292_4794" x="95.6562" y="20.1" width="109" height="105" filterUnits="userSpaceOnUse" color-interpolation-filters="sRGB">
<feFlood flood-opacity="0" result="BackgroundImageFix"/>
<feColorMatrix in="SourceAlpha" type="matrix" values="0 0 0 0 0 0 0 0 0 0 0 0 0 0 0 0 0 0 127 0" result="hardAlpha"/>
<feOffset dy="2.6"/>
<feGaussianBlur stdDeviation="3.75"/>
<feComposite in2="hardAlpha" operator="out"/>
<feColorMatrix type="matrix" values="0 0 0 0 0 0 0 0 0 0 0 0 0 0 0 0 0 0 0.15 0"/>
<feBlend mode="normal" in2="BackgroundImageFix" result="effect1_dropShadow_3292_4794"/>
<feBlend mode="normal" in="SourceGraphic" in2="effect1_dropShadow_3292_4794" result="shape"/>
</filter>
<linearGradient id="paint0_linear_3292_4794" x1="948" y1="70" x2="-658" y2="70" gradientUnits="userSpaceOnUse">
<stop stop-color="#9FCFF2"/>
<stop offset="1" stop-color="#B6D2E1"/>
</linearGradient>
<linearGradient id="paint1_linear_3292_4794" x1="948" y1="70" x2="-658" y2="70" gradientUnits="userSpaceOnUse">
<stop stop-color="#9FCFF2"/>
<stop offset="1" stop-color="#B6D2E1"/>
</linearGradient>
<linearGradient id="paint2_linear_3292_4794" x1="390.168" y1="306.738" x2="557.724" y2="243.53" gradientUnits="userSpaceOnUse">
<stop stop-color="#9FCFF2"/>
<stop offset="1" stop-color="#E2E7EE"/>
</linearGradient>
<clipPath id="clip0_3292_4794">
<rect width="12" height="12" fill="white" transform="translate(111 33)"/>
</clipPath>
</defs>
</svg>
