<svg width="300" height="140" viewBox="0 0 300 140" fill="none" xmlns="http://www.w3.org/2000/svg">
<mask id="mask0_31898_6997" style="mask-type:alpha" maskUnits="userSpaceOnUse" x="0" y="0" width="300" height="140">
<path d="M0 140H300V0H0V140Z" fill="url(#paint0_linear_31898_6997)"/>
<path d="M0 140H300V0H0V140Z" stroke="white"/>
</mask>
<g mask="url(#mask0_31898_6997)">
<path fill-rule="evenodd" clip-rule="evenodd" d="M-224.074 249.212L-261.294 246.192L-257.242 196.256L-220.022 199.276C-204.45 200.54 -189.193 194.398 -178.839 182.699C-158.034 159.191 -127.376 146.85 -96.0865 149.389C-80.515 150.653 -65.2572 144.511 -54.9034 132.812C-34.0988 109.304 -3.44027 96.9632 27.8489 99.5021C43.4205 100.766 58.6782 94.624 69.032 82.9249C89.8367 59.4169 120.495 47.076 151.784 49.6149C167.356 50.8785 182.614 44.7369 192.967 33.0377C213.772 9.52971 244.431 -2.81112 275.72 -0.27221C291.291 0.991316 306.549 -5.15031 316.903 -16.8495C337.708 -40.3574 368.366 -52.6983 399.655 -50.1594C415.227 -48.8958 430.485 -55.0375 440.838 -66.7366L465.586 -94.7004L503.104 -61.4975L478.356 -33.5337C457.551 -10.0258 426.892 2.31508 395.603 -0.223819C380.032 -1.48737 364.774 4.65426 354.42 16.3534C333.616 39.8614 302.957 52.2022 271.668 49.6633C256.096 48.3998 240.839 54.5414 230.485 66.2406C209.68 89.7486 179.022 102.089 147.732 99.5505C132.161 98.287 116.903 104.429 106.549 116.128C85.7447 139.636 55.0861 151.977 23.797 149.438C8.22537 148.174 -7.03238 154.316 -17.3861 166.015C-38.1908 189.523 -68.8493 201.864 -100.138 199.325C-115.71 198.061 -130.968 204.203 -141.322 215.902C-162.126 239.41 -192.785 251.751 -224.074 249.212Z" fill="#FFF500"/>
<rect x="300" width="186" height="300" transform="rotate(90 300 0)" fill="url(#paint1_linear_31898_6997)"/>
<g filter="url(#filter0_d_31898_6997)">
<rect x="195.423" y="35.1702" width="69.0693" height="90.8448" rx="5.27376" transform="rotate(90 195.423 35.1702)" fill="white" stroke="black" stroke-width="0.340243"/>
<mask id="mask1_31898_6997" style="mask-type:alpha" maskUnits="userSpaceOnUse" x="104" y="34" width="92" height="71">
<rect x="195.423" y="35.1698" width="69.0693" height="90.8448" rx="5.27376" transform="rotate(90 195.423 35.1698)" fill="white" stroke="black" stroke-width="0.340243"/>
</mask>
<g mask="url(#mask1_31898_6997)">
<path d="M303.17 176.799L277.423 160.28C272.165 156.906 267.768 152.351 264.583 146.978L256.891 134.002C250.438 123.117 239.226 115.916 226.644 114.576L221.988 114.08C209.474 112.746 198.311 105.615 191.841 94.8198L189.198 90.4106C182.724 79.6095 171.553 72.4766 159.031 71.1487L154.386 70.6561C141.828 69.3244 130.632 62.1554 124.167 51.3077L121.71 47.1858C115.252 36.3487 104.07 29.1825 91.5263 27.8412L76.3161 26.2147C70.1223 25.5524 64.1679 23.4562 58.9251 20.0925L33.1571 3.55981" stroke="#FFF500" stroke-width="33.3324"/>
</g>
<rect x="195.293" y="35.3001" width="68.8095" height="90.5851" rx="5.14388" transform="rotate(90 195.293 35.3001)" stroke="#D9D9D9" stroke-width="0.6"/>
<path d="M121.039 60.4207L121.039 89.1667C121.039 89.9295 121.598 90.4998 122.23 90.4998L177.09 90.4998C177.722 90.4995 178.28 89.9293 178.28 89.1667L178.28 49.5632C178.28 48.8004 177.722 48.2295 177.09 48.2292L132.317 48.2292C131.93 48.2293 131.554 48.3953 131.272 48.699L121.483 59.2595C121.201 59.564 121.039 59.9812 121.039 60.4207Z" stroke="#D9D9D9" stroke-width="0.6"/>
<path d="M195.293 47.6293L184.705 47.6293C184.495 47.6293 184.324 47.4593 184.324 47.2494L184.324 42.4857C184.324 42.2756 184.495 42.1049 184.705 42.1049L195.293 42.1049L195.293 47.6293Z" fill="white" stroke="#D9D9D9" stroke-width="0.6"/>
<path d="M115.676 42.4857L115.676 47.2494C115.676 47.4593 115.505 47.6293 115.295 47.6293L104.707 47.6293L104.707 42.1049L115.295 42.1049C115.505 42.1049 115.676 42.2756 115.676 42.4857Z" fill="white" stroke="#D9D9D9" stroke-width="0.6"/>
<path d="M195.293 96.6235L184.705 96.6235C184.495 96.6235 184.324 96.4536 184.324 96.2437L184.324 91.48C184.324 91.2698 184.495 91.0991 184.705 91.0991L195.293 91.0991L195.293 96.6235Z" fill="white" stroke="#D9D9D9" stroke-width="0.6"/>
<path d="M115.676 91.48L115.676 96.2437C115.676 96.4536 115.505 96.6235 115.295 96.6235L104.707 96.6235L104.707 91.0991L115.295 91.0991C115.505 91.0991 115.676 91.2698 115.676 91.48Z" fill="white" stroke="#D9D9D9" stroke-width="0.6"/>
<path d="M195.293 80.2921L184.705 80.2921C184.495 80.2921 184.324 80.1222 184.324 79.9122L184.324 75.1486C184.324 74.9384 184.495 74.7677 184.705 74.7677L195.293 74.7677L195.293 80.2921Z" fill="white" stroke="#D9D9D9" stroke-width="0.6"/>
<path d="M115.676 75.1486L115.676 79.9122C115.676 80.1222 115.505 80.2921 115.295 80.2921L104.707 80.2921L104.707 74.7677L115.295 74.7677C115.505 74.7677 115.676 74.9384 115.676 75.1486Z" fill="white" stroke="#D9D9D9" stroke-width="0.6"/>
<path d="M195.293 63.9607L184.705 63.9607C184.495 63.9607 184.324 63.7907 184.324 63.5808L184.324 58.8171C184.324 58.607 184.495 58.4363 184.705 58.4363L195.293 58.4363L195.293 63.9607Z" fill="white" stroke="#D9D9D9" stroke-width="0.6"/>
<path d="M115.676 58.8171L115.676 63.5808C115.676 63.7907 115.505 63.9607 115.295 63.9607L104.707 63.9607L104.707 58.4363L115.295 58.4363C115.505 58.4363 115.676 58.607 115.676 58.8171Z" fill="white" stroke="#D9D9D9" stroke-width="0.6"/>
<path d="M149.505 72.5386C146.729 72.5386 145.091 72.2496 143.453 71.6907L143.106 68.5302L143.203 68.4916C144.764 69.4167 147.269 69.9177 149.177 69.9177C151.239 69.9177 152.068 69.4167 152.068 68.6651C152.068 67.9906 151.123 67.8171 150.391 67.7015L147.404 67.2005C145.342 66.8536 143.106 66.0827 143.106 63.4811C143.106 60.3784 146.344 59.0101 149.909 59.0101C152.087 59.0101 154.265 59.3377 155.614 60.0122L154.554 62.5946C153.089 61.8623 151.258 61.5154 149.813 61.5154C147.982 61.5154 147.269 61.9972 147.269 62.6139C147.269 63.3269 148.117 63.4811 148.83 63.5967L151.547 64.0592C154.342 64.5025 156.327 65.4275 156.327 67.8171C156.327 71.1896 152.973 72.5386 149.505 72.5386Z" fill="black"/>
<path d="M142.815 79.2248L142.468 76.1793C144.044 75.4639 145.863 75.4921 147.421 76.2647L148.447 76.7739C149.261 77.1777 150.218 77.1756 151.03 76.7683L152.005 76.2796C153.572 75.4934 155.409 75.4636 156.998 76.1908L156.651 79.2357L155.886 78.854C155.071 78.447 154.111 78.4479 153.297 78.8564L152.322 79.345C150.701 80.1581 148.792 80.1623 147.167 79.3563L146.14 78.8472C145.326 78.4436 144.371 78.4455 143.559 78.8522L142.815 79.2248Z" fill="black"/>
</g>
<path d="M150 -66C225.111 -66 286 -5.11073 286 70C286 145.111 225.111 206 150 206C74.8893 206 14 145.111 14 70C14 -5.11073 74.8893 -66 150 -66ZM150 -65.2402C75.309 -65.2402 14.7598 -4.69099 14.7598 70C14.7598 144.691 75.309 205.24 150 205.24C224.691 205.24 285.24 144.691 285.24 70C285.24 -4.69099 224.691 -65.2402 150 -65.2402ZM149.999 -44.9844C213.503 -44.9844 264.983 6.49586 264.983 70C264.983 133.504 213.503 184.984 149.999 184.984C86.495 184.984 35.0148 133.504 35.0146 70C35.0147 6.49593 86.4949 -44.9843 149.999 -44.9844ZM149.999 -44.2246C86.9147 -44.2245 35.7745 6.91566 35.7744 70C35.7745 133.084 86.9147 184.225 149.999 184.225C213.083 184.225 264.223 133.084 264.224 70C264.224 6.9156 213.083 -44.2246 149.999 -44.2246ZM151.128 -17.3564C198.858 -16.752 237.363 22.1279 237.363 70.001L237.356 71.1299C236.752 118.859 197.872 157.365 149.999 157.365L148.87 157.358C101.516 156.759 63.2415 118.484 62.6416 71.1299L62.6348 70.001C62.6348 21.751 101.749 -17.3633 149.999 -17.3633L151.128 -17.3564ZM149.999 -16.6035C102.169 -16.6035 63.3945 22.1708 63.3945 70.001C63.3948 117.831 102.169 156.605 149.999 156.605C197.829 156.605 236.603 117.831 236.604 70.001C236.604 22.1708 197.829 -16.6035 149.999 -16.6035ZM150.82 6.65918C185.428 7.0974 213.349 35.2889 213.349 70.001L213.343 70.8193C212.904 105.427 184.714 133.348 150.002 133.348L149.183 133.342C114.847 132.907 87.0952 105.155 86.6602 70.8193L86.6553 70.001C86.6553 35.0156 115.017 6.6543 150.002 6.6543L150.82 6.65918ZM150.002 7.41406C115.436 7.41406 87.415 35.4354 87.415 70.001C87.4154 104.566 115.437 132.588 150.002 132.588C184.567 132.588 212.589 104.566 212.589 70.001C212.589 35.4354 184.568 7.41412 150.002 7.41406Z" fill="url(#paint2_linear_31898_6997)" fill-opacity="0.5"/>
</g>
<defs>
<filter id="filter0_d_31898_6997" x="96.9072" y="30.0996" width="106.186" height="84.41" filterUnits="userSpaceOnUse" color-interpolation-filters="sRGB">
<feFlood flood-opacity="0" result="BackgroundImageFix"/>
<feColorMatrix in="SourceAlpha" type="matrix" values="0 0 0 0 0 0 0 0 0 0 0 0 0 0 0 0 0 0 127 0" result="hardAlpha"/>
<feOffset dy="2.6"/>
<feGaussianBlur stdDeviation="3.75"/>
<feComposite in2="hardAlpha" operator="out"/>
<feColorMatrix type="matrix" values="0 0 0 0 0 0 0 0 0 0 0 0 0 0 0 0 0 0 0.15 0"/>
<feBlend mode="normal" in2="BackgroundImageFix" result="effect1_dropShadow_31898_6997"/>
<feBlend mode="normal" in="SourceGraphic" in2="effect1_dropShadow_31898_6997" result="shape"/>
</filter>
<linearGradient id="paint0_linear_31898_6997" x1="1594.5" y1="70" x2="-2.37599e-05" y2="70" gradientUnits="userSpaceOnUse">
<stop stop-color="#9FCFF2"/>
<stop offset="1" stop-color="#B6D2E1"/>
</linearGradient>
<linearGradient id="paint1_linear_31898_6997" x1="390.168" y1="306.738" x2="557.724" y2="243.53" gradientUnits="userSpaceOnUse">
<stop stop-color="#9FCFF2"/>
<stop offset="1" stop-color="#E2E7EE"/>
</linearGradient>
<linearGradient id="paint2_linear_31898_6997" x1="150" y1="-66" x2="150" y2="206" gradientUnits="userSpaceOnUse">
<stop stop-color="white"/>
<stop offset="1" stop-color="white" stop-opacity="0"/>
</linearGradient>
</defs>
</svg>
