<svg xmlns="http://www.w3.org/2000/svg" width="64" height="57" fill="none" class="flex-shrink-0 max-md:hidden"><path d="M37.618 57V37.918c0-10.437 2.036-19 6.107-25.686C47.96 5.545 54.718 1.468 64 0v10.03c-5.537.652-9.445 2.773-11.725 6.36-2.28 3.588-3.42 9.297-3.42 17.125l-7.328-.979h22.229V57H37.618ZM0 57V37.918c0-10.437 2.036-19 6.107-25.686C10.34 5.545 17.099 1.468 26.382 0v10.03c-5.537.652-9.446 2.773-11.726 6.36-2.28 3.588-3.42 9.297-3.42 17.125l-7.328-.979h22.23V57H0Z" fill="#4D4E56"></path></svg>