<svg width="96" height="96" viewBox="0 0 96 96" fill="none" xmlns="http://www.w3.org/2000/svg">
<g clip-path="url(#clip0_3872_15289)">
<g filter="url(#filter0_di_3872_15289)">
<g clip-path="url(#clip1_3872_15289)">
<rect x="-0.371094" y="-0.371094" width="96.742" height="96.742" rx="24" fill="url(#paint0_linear_3872_15289)" fill-opacity="0.04" shape-rendering="crispEdges"/>
<g style="mix-blend-mode:plus-lighter" opacity="0.5" filter="url(#filter1_f_3872_15289)">
<circle cx="47.9996" cy="48.0001" r="28.2164" fill="url(#paint1_linear_3872_15289)"/>
<path d="M58.5129 56.6284L59.7662 48.6644H51.9254V43.4986C51.9254 41.3193 53.0186 39.1938 56.5306 39.1938H60.0976V32.4136C60.0976 32.4136 56.8618 31.8755 53.7696 31.8755C47.3092 31.8755 43.0905 35.6906 43.0905 42.5946V48.6644H35.9121V56.6284H43.0905V75.882C44.5316 76.1026 46.006 76.2156 47.5079 76.2156C49.0098 76.2156 50.4842 76.1026 51.9254 75.882V56.6284H58.5129Z" fill="white"/>
</g>
<circle cx="47.9937" cy="47.9977" r="28.2164" fill="url(#paint2_linear_3872_15289)"/>
<path d="M58.5031 56.626L59.7565 48.662H51.9156V43.4962C51.9156 41.3169 53.0089 39.1913 56.5208 39.1913H60.0878V32.4112C60.0878 32.4112 56.852 31.873 53.7598 31.873C47.2994 31.873 43.0807 35.6882 43.0807 42.5921V48.662H35.9023V56.626H43.0807V75.8795C44.5219 76.1002 45.9962 76.2131 47.4982 76.2131C49.0001 76.2131 50.4744 76.1002 51.9156 75.8795V56.626H58.5031Z" fill="white"/>
<g filter="url(#filter2_f_3872_15289)">
<ellipse cx="49.0137" cy="95.3622" rx="23.1778" ry="13.1005" fill="#0A77E8"/>
</g>
</g>
<rect x="-0.371094" y="-0.371094" width="96.742" height="96.742" rx="24" stroke="url(#paint3_linear_3872_15289)" stroke-opacity="0.5" stroke-width="1.61237" shape-rendering="crispEdges"/>
</g>
<g style="mix-blend-mode:screen" filter="url(#filter3_f_3872_15289)">
<circle cx="34.2563" cy="34.2602" r="18.1391" fill="white" fill-opacity="0.18"/>
</g>
</g>
<defs>
<filter id="filter0_di_3872_15289" x="-41.4869" y="-41.4864" width="187.036" height="178.973" filterUnits="userSpaceOnUse" color-interpolation-filters="sRGB">
<feFlood flood-opacity="0" result="BackgroundImageFix"/>
<feColorMatrix in="SourceAlpha" type="matrix" values="0 0 0 0 0 0 0 0 0 0 0 0 0 0 0 0 0 0 127 0" result="hardAlpha"/>
<feOffset dx="16.1237" dy="8.06183"/>
<feGaussianBlur stdDeviation="16.1237"/>
<feComposite in2="hardAlpha" operator="out"/>
<feColorMatrix type="matrix" values="0 0 0 0 0 0 0 0 0 0 0 0 0 0 0 0 0 0 0.08 0"/>
<feBlend mode="normal" in2="BackgroundImageFix" result="effect1_dropShadow_3872_15289"/>
<feBlend mode="normal" in="SourceGraphic" in2="effect1_dropShadow_3872_15289" result="shape"/>
<feColorMatrix in="SourceAlpha" type="matrix" values="0 0 0 0 0 0 0 0 0 0 0 0 0 0 0 0 0 0 127 0" result="hardAlpha"/>
<feOffset/>
<feGaussianBlur stdDeviation="8.06183"/>
<feComposite in2="hardAlpha" operator="arithmetic" k2="-1" k3="1"/>
<feColorMatrix type="matrix" values="0 0 0 0 0.158333 0 0 0 0 0.495 0 0 0 0 1 0 0 0 0.32 0"/>
<feBlend mode="normal" in2="shape" result="effect2_innerShadow_3872_15289"/>
</filter>
<filter id="filter1_f_3872_15289" x="-8.43354" y="-8.43305" width="112.865" height="112.866" filterUnits="userSpaceOnUse" color-interpolation-filters="sRGB">
<feFlood flood-opacity="0" result="BackgroundImageFix"/>
<feBlend mode="normal" in="SourceGraphic" in2="BackgroundImageFix" result="shape"/>
<feGaussianBlur stdDeviation="12.0927" result="effect1_foregroundBlur_3872_15289"/>
</filter>
<filter id="filter2_f_3872_15289" x="-10.4423" y="45.9835" width="118.912" height="98.7576" filterUnits="userSpaceOnUse" color-interpolation-filters="sRGB">
<feFlood flood-opacity="0" result="BackgroundImageFix"/>
<feBlend mode="normal" in="SourceGraphic" in2="BackgroundImageFix" result="shape"/>
<feGaussianBlur stdDeviation="18.1391" result="effect1_foregroundBlur_3872_15289"/>
</filter>
<filter id="filter3_f_3872_15289" x="-24.192" y="-24.1881" width="116.896" height="116.897" filterUnits="userSpaceOnUse" color-interpolation-filters="sRGB">
<feFlood flood-opacity="0" result="BackgroundImageFix"/>
<feBlend mode="normal" in="SourceGraphic" in2="BackgroundImageFix" result="shape"/>
<feGaussianBlur stdDeviation="20.1546" result="effect1_foregroundBlur_3872_15289"/>
</filter>
<linearGradient id="paint0_linear_3872_15289" x1="-0.371094" y1="-0.371094" x2="96.3709" y2="96.3709" gradientUnits="userSpaceOnUse">
<stop stop-color="#F8FBFF"/>
<stop offset="1" stop-color="white" stop-opacity="0"/>
</linearGradient>
<linearGradient id="paint1_linear_3872_15289" x1="47.9996" y1="19.7837" x2="47.9996" y2="76.0491" gradientUnits="userSpaceOnUse">
<stop stop-color="#18ACFE"/>
<stop offset="1" stop-color="#0163E0"/>
</linearGradient>
<linearGradient id="paint2_linear_3872_15289" x1="47.9937" y1="19.7812" x2="47.9937" y2="76.0467" gradientUnits="userSpaceOnUse">
<stop stop-color="#18ACFE"/>
<stop offset="1" stop-color="#0163E0"/>
</linearGradient>
<linearGradient id="paint3_linear_3872_15289" x1="1.64436" y1="-2.38655" x2="93.3477" y2="96.3709" gradientUnits="userSpaceOnUse">
<stop stop-color="#D8D8D8" stop-opacity="0.05"/>
<stop offset="1" stop-color="white" stop-opacity="0.4"/>
</linearGradient>
<clipPath id="clip0_3872_15289">
<rect width="96" height="96" rx="24" fill="white"/>
</clipPath>
<clipPath id="clip1_3872_15289">
<rect x="-0.371094" y="-0.371094" width="96.742" height="96.742" rx="24" fill="white"/>
</clipPath>
</defs>
</svg>
