<svg width="96" height="96" viewBox="0 0 96 96" fill="none" xmlns="http://www.w3.org/2000/svg">
<g clip-path="url(#clip0_3872_15247)">
<g filter="url(#filter0_di_3872_15247)">
<g clip-path="url(#clip1_3872_15247)">
<rect width="96" height="96" rx="24" fill="url(#paint0_linear_3872_15247)" fill-opacity="0.04" shape-rendering="crispEdges"/>
<g style="mix-blend-mode:plus-lighter" opacity="0.5" filter="url(#filter1_f_3872_15247)">
<rect x="19.7832" y="19.7837" width="56.4328" height="56.4328" rx="12.0927" fill="url(#paint1_radial_3872_15247)"/>
<rect x="19.7832" y="19.7837" width="56.4328" height="56.4328" rx="12.0927" fill="url(#paint2_radial_3872_15247)"/>
<rect x="19.7832" y="19.7837" width="56.4328" height="56.4328" rx="12.0927" fill="url(#paint3_radial_3872_15247)"/>
</g>
<rect x="20.1562" y="20.1523" width="56.4328" height="56.4328" rx="12.0927" fill="url(#paint4_radial_3872_15247)"/>
<rect x="20.1562" y="20.1523" width="56.4328" height="56.4328" rx="12.0927" fill="url(#paint5_radial_3872_15247)"/>
<rect x="20.1562" y="20.1523" width="56.4328" height="56.4328" rx="12.0927" fill="url(#paint6_radial_3872_15247)"/>
<path d="M62.4737 37.2805C62.4737 38.9502 61.1202 40.3037 59.4505 40.3037C57.7809 40.3037 56.4273 38.9502 56.4273 37.2805C56.4273 35.6108 57.7809 34.2573 59.4505 34.2573C61.1202 34.2573 62.4737 35.6108 62.4737 37.2805Z" fill="white"/>
<path fill-rule="evenodd" clip-rule="evenodd" d="M48.3655 58.4428C53.931 58.4428 58.4428 53.931 58.4428 48.3655C58.4428 42.8 53.931 38.2882 48.3655 38.2882C42.8 38.2882 38.2882 42.8 38.2882 48.3655C38.2882 53.931 42.8 58.4428 48.3655 58.4428ZM48.3655 54.4119C51.7048 54.4119 54.4119 51.7048 54.4119 48.3655C54.4119 45.0262 51.7048 42.3191 48.3655 42.3191C45.0262 42.3191 42.3191 45.0262 42.3191 48.3655C42.3191 51.7048 45.0262 54.4119 48.3655 54.4119Z" fill="white"/>
<path fill-rule="evenodd" clip-rule="evenodd" d="M28.2109 47.5593C28.2109 40.7868 28.2109 37.4005 29.529 34.8137C30.6883 32.5383 32.5383 30.6883 34.8137 29.529C37.4005 28.2109 40.7868 28.2109 47.5593 28.2109H49.1717C55.9443 28.2109 59.3306 28.2109 61.9173 29.529C64.1927 30.6883 66.0427 32.5383 67.2021 34.8137C68.5201 37.4005 68.5201 40.7868 68.5201 47.5593V49.1717C68.5201 55.9443 68.5201 59.3306 67.2021 61.9173C66.0427 64.1927 64.1927 66.0427 61.9173 67.2021C59.3306 68.5201 55.9443 68.5201 49.1717 68.5201H47.5593C40.7868 68.5201 37.4005 68.5201 34.8137 67.2021C32.5383 66.0427 30.6883 64.1927 29.529 61.9173C28.2109 59.3306 28.2109 55.9443 28.2109 49.1717V47.5593ZM47.5593 32.2419H49.1717C52.6245 32.2419 54.9717 32.245 56.7859 32.3932C58.5532 32.5376 59.4569 32.7993 60.0873 33.1205C61.6043 33.8935 62.8376 35.1268 63.6105 36.6437C63.9317 37.2741 64.1934 38.1779 64.3378 39.9451C64.486 41.7594 64.4892 44.1065 64.4892 47.5593V49.1717C64.4892 52.6245 64.486 54.9717 64.3378 56.7859C64.1934 58.5532 63.9317 59.4569 63.6105 60.0873C62.8376 61.6043 61.6043 62.8376 60.0873 63.6105C59.4569 63.9317 58.5532 64.1934 56.7859 64.3378C54.9717 64.486 52.6245 64.4892 49.1717 64.4892H47.5593C44.1065 64.4892 41.7594 64.486 39.9451 64.3378C38.1779 64.1934 37.2741 63.9317 36.6437 63.6105C35.1268 62.8376 33.8935 61.6043 33.1205 60.0873C32.7993 59.4569 32.5376 58.5532 32.3932 56.7859C32.245 54.9717 32.2419 52.6245 32.2419 49.1717V47.5593C32.2419 44.1065 32.245 41.7594 32.3932 39.9451C32.5376 38.1779 32.7993 37.2741 33.1205 36.6437C33.8935 35.1268 35.1268 33.8935 36.6437 33.1205C37.2741 32.7993 38.1779 32.5376 39.9451 32.3932C41.7594 32.245 44.1065 32.2419 47.5593 32.2419Z" fill="white"/>
<g filter="url(#filter2_f_3872_15247)">
<ellipse cx="49.3731" cy="95.7333" rx="23.1778" ry="13.1005" fill="#D4467E"/>
</g>
</g>
<rect width="96" height="96" rx="24" stroke="url(#paint7_linear_3872_15247)" stroke-opacity="0.5" stroke-width="1.61237" shape-rendering="crispEdges"/>
</g>
</g>
<defs>
<filter id="filter0_di_3872_15247" x="-41.1158" y="-41.1153" width="186.293" height="178.231" filterUnits="userSpaceOnUse" color-interpolation-filters="sRGB">
<feFlood flood-opacity="0" result="BackgroundImageFix"/>
<feColorMatrix in="SourceAlpha" type="matrix" values="0 0 0 0 0 0 0 0 0 0 0 0 0 0 0 0 0 0 127 0" result="hardAlpha"/>
<feOffset dx="16.1237" dy="8.06183"/>
<feGaussianBlur stdDeviation="16.1237"/>
<feComposite in2="hardAlpha" operator="out"/>
<feColorMatrix type="matrix" values="0 0 0 0 0 0 0 0 0 0 0 0 0 0 0 0 0 0 0.08 0"/>
<feBlend mode="normal" in2="BackgroundImageFix" result="effect1_dropShadow_3872_15247"/>
<feBlend mode="normal" in="SourceGraphic" in2="effect1_dropShadow_3872_15247" result="shape"/>
<feColorMatrix in="SourceAlpha" type="matrix" values="0 0 0 0 0 0 0 0 0 0 0 0 0 0 0 0 0 0 127 0" result="hardAlpha"/>
<feOffset/>
<feGaussianBlur stdDeviation="8.06183"/>
<feComposite in2="hardAlpha" operator="arithmetic" k2="-1" k3="1"/>
<feColorMatrix type="matrix" values="0 0 0 0 0.744549 0 0 0 0 0.0509804 0 0 0 0 0.988235 0 0 0 0.32 0"/>
<feBlend mode="normal" in2="shape" result="effect2_innerShadow_3872_15247"/>
</filter>
<filter id="filter1_f_3872_15247" x="-8.43354" y="-8.43305" width="112.865" height="112.866" filterUnits="userSpaceOnUse" color-interpolation-filters="sRGB">
<feFlood flood-opacity="0" result="BackgroundImageFix"/>
<feBlend mode="normal" in="SourceGraphic" in2="BackgroundImageFix" result="shape"/>
<feGaussianBlur stdDeviation="12.0927" result="effect1_foregroundBlur_3872_15247"/>
</filter>
<filter id="filter2_f_3872_15247" x="-10.0829" y="46.3546" width="118.912" height="98.7576" filterUnits="userSpaceOnUse" color-interpolation-filters="sRGB">
<feFlood flood-opacity="0" result="BackgroundImageFix"/>
<feBlend mode="normal" in="SourceGraphic" in2="BackgroundImageFix" result="shape"/>
<feGaussianBlur stdDeviation="18.1391" result="effect1_foregroundBlur_3872_15247"/>
</filter>
<linearGradient id="paint0_linear_3872_15247" x1="0" y1="0" x2="96" y2="96" gradientUnits="userSpaceOnUse">
<stop stop-color="#F8FBFF"/>
<stop offset="1" stop-color="white" stop-opacity="0"/>
</linearGradient>
<radialGradient id="paint1_radial_3872_15247" cx="0" cy="0" r="1" gradientUnits="userSpaceOnUse" gradientTransform="translate(39.9378 62.1083) rotate(-55.3758) scale(51.4337)">
<stop stop-color="#B13589"/>
<stop offset="0.79309" stop-color="#C62F94"/>
<stop offset="1" stop-color="#8A3AC8"/>
</radialGradient>
<radialGradient id="paint2_radial_3872_15247" cx="0" cy="0" r="1" gradientUnits="userSpaceOnUse" gradientTransform="translate(37.9223 78.2319) rotate(-65.1363) scale(45.5377)">
<stop stop-color="#E0E8B7"/>
<stop offset="0.444662" stop-color="#FB8A2E"/>
<stop offset="0.71474" stop-color="#E2425C"/>
<stop offset="1" stop-color="#E2425C" stop-opacity="0"/>
</radialGradient>
<radialGradient id="paint3_radial_3872_15247" cx="0" cy="0" r="1" gradientUnits="userSpaceOnUse" gradientTransform="translate(16.76 21.7991) rotate(-8.1301) scale(78.3829 16.7653)">
<stop offset="0.156701" stop-color="#406ADC"/>
<stop offset="0.467799" stop-color="#6A45BE"/>
<stop offset="1" stop-color="#6A45BE" stop-opacity="0"/>
</radialGradient>
<radialGradient id="paint4_radial_3872_15247" cx="0" cy="0" r="1" gradientUnits="userSpaceOnUse" gradientTransform="translate(40.3108 62.4769) rotate(-55.3758) scale(51.4337)">
<stop stop-color="#B13589"/>
<stop offset="0.79309" stop-color="#C62F94"/>
<stop offset="1" stop-color="#8A3AC8"/>
</radialGradient>
<radialGradient id="paint5_radial_3872_15247" cx="0" cy="0" r="1" gradientUnits="userSpaceOnUse" gradientTransform="translate(38.2954 78.6006) rotate(-65.1363) scale(45.5377)">
<stop stop-color="#E0E8B7"/>
<stop offset="0.444662" stop-color="#FB8A2E"/>
<stop offset="0.71474" stop-color="#E2425C"/>
<stop offset="1" stop-color="#E2425C" stop-opacity="0"/>
</radialGradient>
<radialGradient id="paint6_radial_3872_15247" cx="0" cy="0" r="1" gradientUnits="userSpaceOnUse" gradientTransform="translate(17.1331 22.1678) rotate(-8.1301) scale(78.3829 16.7653)">
<stop offset="0.156701" stop-color="#406ADC"/>
<stop offset="0.467799" stop-color="#6A45BE"/>
<stop offset="1" stop-color="#6A45BE" stop-opacity="0"/>
</radialGradient>
<linearGradient id="paint7_linear_3872_15247" x1="2" y1="-2" x2="93" y2="96" gradientUnits="userSpaceOnUse">
<stop stop-color="#D8D8D8" stop-opacity="0.05"/>
<stop offset="1" stop-color="white" stop-opacity="0.4"/>
</linearGradient>
<clipPath id="clip0_3872_15247">
<rect width="96" height="96" rx="24" fill="white"/>
</clipPath>
<clipPath id="clip1_3872_15247">
<rect width="96" height="96" rx="24" fill="white"/>
</clipPath>
</defs>
</svg>
