<svg width="96" height="96" viewBox="0 0 96 96" fill="none" xmlns="http://www.w3.org/2000/svg">
<g clip-path="url(#clip0_3872_15248)">
<g clip-path="url(#clip1_3872_15248)">
<g filter="url(#filter0_di_3872_15248)">
<g clip-path="url(#clip2_3872_15248)">
<rect x="-0.371094" y="-0.371094" width="96.742" height="96.742" rx="24" fill="url(#paint0_linear_3872_15248)" fill-opacity="0.04" shape-rendering="crispEdges"/>
<g style="mix-blend-mode:plus-lighter" opacity="0.5" filter="url(#filter1_f_3872_15248)">
<path d="M72.1893 47.9985C72.1893 61.3558 61.3611 72.184 48.0038 72.184C42.9091 72.184 38.1823 70.6087 34.2839 67.9186L26.017 69.9853L28.1834 61.8616C25.4326 57.936 23.8184 53.1558 23.8184 47.9985C23.8184 34.6412 34.6466 23.813 48.0038 23.813C61.3611 23.813 72.1893 34.6412 72.1893 47.9985Z" fill="url(#paint1_linear_3872_15248)"/>
</g>
<path fill-rule="evenodd" clip-rule="evenodd" d="M48.0055 78.2297C63.589 78.2297 76.2219 65.5968 76.2219 50.0133C76.2219 34.4298 63.589 21.7969 48.0055 21.7969C32.422 21.7969 19.7891 34.4298 19.7891 50.0133C19.7891 55.0738 21.1213 59.8233 23.4541 63.9299L19.7891 78.2297L34.5319 74.8111C38.5356 76.9911 43.1259 78.2297 48.0055 78.2297ZM48.0055 73.8887C61.1915 73.8887 71.8809 63.1993 71.8809 50.0133C71.8809 36.8272 61.1915 26.1379 48.0055 26.1379C34.8194 26.1379 24.13 36.8272 24.13 50.0133C24.13 55.1045 25.7236 59.8234 28.4391 63.6987L26.3005 71.7182L34.4614 69.678C38.3098 72.3336 42.976 73.8887 48.0055 73.8887Z" fill="#BFC8D0"/>
<path d="M72.1913 47.998C72.1913 61.3553 61.3631 72.1835 48.0058 72.1835C42.9111 72.1835 38.1842 70.6082 34.2859 67.9181L26.019 69.9848L28.1853 61.8611C25.4345 57.9356 23.8203 53.1553 23.8203 47.998C23.8203 34.6407 34.6485 23.8125 48.0058 23.8125C61.3631 23.8125 72.1913 34.6407 72.1913 47.998Z" fill="url(#paint2_linear_3872_15248)"/>
<path fill-rule="evenodd" clip-rule="evenodd" d="M48.0055 76.2141C63.589 76.2141 76.2219 63.5811 76.2219 47.9977C76.2219 32.4142 63.589 19.7812 48.0055 19.7812C32.422 19.7812 19.7891 32.4142 19.7891 47.9977C19.7891 53.0582 21.1213 57.8076 23.4541 61.9143L19.7891 76.2141L34.5319 72.7954C38.5356 74.9754 43.1259 76.2141 48.0055 76.2141ZM48.0055 71.8731C61.1915 71.8731 71.8809 61.1837 71.8809 47.9977C71.8809 34.8116 61.1915 24.1222 48.0055 24.1222C34.8194 24.1222 24.13 34.8116 24.13 47.9977C24.13 53.0888 25.7236 57.8078 28.4391 61.683L26.3005 69.7026L34.4614 67.6623C38.3098 70.318 42.976 71.8731 48.0055 71.8731Z" fill="white"/>
<path d="M40.9442 34.8969C40.2734 33.5494 39.2442 33.6687 38.2045 33.6687C36.3465 33.6687 33.4492 35.8943 33.4492 40.0365C33.4492 43.4311 34.9451 47.1471 39.9857 52.706C44.8502 58.0706 51.242 60.8458 56.5483 60.7513C61.8546 60.6568 62.9463 56.0906 62.9463 54.5485C62.9463 53.865 62.5222 53.524 62.23 53.4313C60.4217 52.5635 57.0867 50.9465 56.3278 50.6427C55.569 50.3389 55.1728 50.7498 54.9265 50.9734C54.2383 51.6292 52.8742 53.5618 52.4071 53.9965C51.9401 54.4313 51.2438 54.2113 50.954 54.0469C49.8877 53.619 46.9965 52.333 44.6919 50.099C41.8417 47.3361 41.6745 46.3855 41.1375 45.5394C40.7079 44.8625 41.0231 44.4471 41.1804 44.2656C41.7945 43.5571 42.6424 42.4631 43.0227 41.9195C43.4029 41.3759 43.1011 40.5505 42.9199 40.0365C42.1409 37.8256 41.4809 35.9749 40.9442 34.8969Z" fill="white"/>
<g filter="url(#filter2_f_3872_15248)">
<ellipse cx="48.9942" cy="95.3622" rx="23.1778" ry="13.1005" fill="#28DD43"/>
</g>
</g>
<rect x="-0.371094" y="-0.371094" width="96.742" height="96.742" rx="24" stroke="url(#paint3_linear_3872_15248)" stroke-opacity="0.5" stroke-width="1.61237" shape-rendering="crispEdges"/>
</g>
<g style="mix-blend-mode:screen" filter="url(#filter3_f_3872_15248)">
<circle cx="34.2641" cy="34.2602" r="18.1391" fill="white" fill-opacity="0.18"/>
</g>
</g>
</g>
<defs>
<filter id="filter0_di_3872_15248" x="-41.4869" y="-41.4864" width="187.036" height="178.973" filterUnits="userSpaceOnUse" color-interpolation-filters="sRGB">
<feFlood flood-opacity="0" result="BackgroundImageFix"/>
<feColorMatrix in="SourceAlpha" type="matrix" values="0 0 0 0 0 0 0 0 0 0 0 0 0 0 0 0 0 0 127 0" result="hardAlpha"/>
<feOffset dx="16.1237" dy="8.06183"/>
<feGaussianBlur stdDeviation="16.1237"/>
<feComposite in2="hardAlpha" operator="out"/>
<feColorMatrix type="matrix" values="0 0 0 0 0 0 0 0 0 0 0 0 0 0 0 0 0 0 0.08 0"/>
<feBlend mode="normal" in2="BackgroundImageFix" result="effect1_dropShadow_3872_15248"/>
<feBlend mode="normal" in="SourceGraphic" in2="effect1_dropShadow_3872_15248" result="shape"/>
<feColorMatrix in="SourceAlpha" type="matrix" values="0 0 0 0 0 0 0 0 0 0 0 0 0 0 0 0 0 0 127 0" result="hardAlpha"/>
<feOffset/>
<feGaussianBlur stdDeviation="8.06183"/>
<feComposite in2="hardAlpha" operator="arithmetic" k2="-1" k3="1"/>
<feColorMatrix type="matrix" values="0 0 0 0 0.0509804 0 0 0 0 0.988235 0 0 0 0 0.144706 0 0 0 0.32 0"/>
<feBlend mode="normal" in2="shape" result="effect2_innerShadow_3872_15248"/>
</filter>
<filter id="filter1_f_3872_15248" x="-8.43354" y="-8.43305" width="112.865" height="112.866" filterUnits="userSpaceOnUse" color-interpolation-filters="sRGB">
<feFlood flood-opacity="0" result="BackgroundImageFix"/>
<feBlend mode="normal" in="SourceGraphic" in2="BackgroundImageFix" result="shape"/>
<feGaussianBlur stdDeviation="12.0927" result="effect1_foregroundBlur_3872_15248"/>
</filter>
<filter id="filter2_f_3872_15248" x="-10.4618" y="45.9835" width="118.912" height="98.7576" filterUnits="userSpaceOnUse" color-interpolation-filters="sRGB">
<feFlood flood-opacity="0" result="BackgroundImageFix"/>
<feBlend mode="normal" in="SourceGraphic" in2="BackgroundImageFix" result="shape"/>
<feGaussianBlur stdDeviation="18.1391" result="effect1_foregroundBlur_3872_15248"/>
</filter>
<filter id="filter3_f_3872_15248" x="-24.1841" y="-24.1881" width="116.896" height="116.897" filterUnits="userSpaceOnUse" color-interpolation-filters="sRGB">
<feFlood flood-opacity="0" result="BackgroundImageFix"/>
<feBlend mode="normal" in="SourceGraphic" in2="BackgroundImageFix" result="shape"/>
<feGaussianBlur stdDeviation="20.1546" result="effect1_foregroundBlur_3872_15248"/>
</filter>
<linearGradient id="paint0_linear_3872_15248" x1="-0.371094" y1="-0.371094" x2="96.3709" y2="96.3709" gradientUnits="userSpaceOnUse">
<stop stop-color="#F8FBFF"/>
<stop offset="1" stop-color="white" stop-opacity="0"/>
</linearGradient>
<linearGradient id="paint1_linear_3872_15248" x1="69.1661" y1="29.8594" x2="23.8184" y2="72.184" gradientUnits="userSpaceOnUse">
<stop stop-color="#5BD066"/>
<stop offset="1" stop-color="#27B43E"/>
</linearGradient>
<linearGradient id="paint2_linear_3872_15248" x1="69.1681" y1="29.8589" x2="23.8203" y2="72.1835" gradientUnits="userSpaceOnUse">
<stop stop-color="#5BD066"/>
<stop offset="1" stop-color="#27B43E"/>
</linearGradient>
<linearGradient id="paint3_linear_3872_15248" x1="1.64436" y1="-2.38655" x2="93.3477" y2="96.3709" gradientUnits="userSpaceOnUse">
<stop stop-color="#D8D8D8" stop-opacity="0.05"/>
<stop offset="1" stop-color="white" stop-opacity="0.4"/>
</linearGradient>
<clipPath id="clip0_3872_15248">
<rect width="96" height="96" rx="24" fill="white"/>
</clipPath>
<clipPath id="clip1_3872_15248">
<rect width="96" height="96" rx="24" fill="white"/>
</clipPath>
<clipPath id="clip2_3872_15248">
<rect x="-0.371094" y="-0.371094" width="96.742" height="96.742" rx="24" fill="white"/>
</clipPath>
</defs>
</svg>
