<svg xmlns="http://www.w3.org/2000/svg" width="368" height="110" fill="none"><g clip-path="url(#a)"><g clip-path="url(#b)"><mask id="d" width="368" height="270" x="0" y="-160" maskUnits="userSpaceOnUse" style="mask-type:alpha"><path fill="url(#c)" d="M0-160h368v270H0z"/></mask><g mask="url(#d)"><rect width="304" height="130" x="32" fill="#fff" rx="12"/><rect width="24" height="24" x="48" y="16" fill="#F7F7F8" rx="12"/><path fill="#F7F7F8" d="M88 28a8 8 0 0 1 8-8h84a8 8 0 0 1 0 16H96a8 8 0 0 1-8-8Z"/><path fill="#ECF9EE" d="M267 28a8 8 0 0 1 8-8h37a8 8 0 0 1 0 16h-37a8 8 0 0 1-8-8Z"/><path fill="#F7F7F8" d="M48 66.5a6 6 0 0 1 6-6h88a6 6 0 1 1 0 12H54a6 6 0 0 1-6-6ZM270 66.5a6 6 0 0 1 6-6h38a6 6 0 1 1 0 12h-38a6 6 0 0 1-6-6Z"/><path stroke="#D9D9D9" stroke-width=".5" d="M48 84.75h272"/><path fill="#F7F7F8" d="M48 103.5a6 6 0 0 1 6-6h58a6 6 0 1 1 0 12H54a6 6 0 0 1-6-6ZM220 103.5a6 6 0 0 1 6-6h88a6 6 0 1 1 0 12h-88a6 6 0 0 1-6-6Z"/></g></g></g><defs><clipPath id="a"><path fill="#fff" d="M0 0h368v110H0z"/></clipPath><clipPath id="b"><path fill="#fff" d="M0-160h368v270H0z"/></clipPath><linearGradient id="c" x1="184" x2="184" y1="68.6" y2="110" gradientUnits="userSpaceOnUse"><stop stop-color="#fff"/><stop offset="1" stop-color="#fff" stop-opacity="0"/></linearGradient></defs></svg>