<svg xmlns="http://www.w3.org/2000/svg" width="214" height="48" fill="none"><path fill="#000" fill-rule="evenodd" d="M210.495 19.5a2.992 2.992 0 0 1-2.995-3c0-1.647 1.333-3 2.995-3a3.008 3.008 0 0 1 3.005 3 3 3 0 0 1-3.005 3Zm0-5.454a2.433 2.433 0 0 0-2.427 2.454 2.433 2.433 0 0 0 2.427 2.454 2.449 2.449 0 0 0 2.437-2.454 2.449 2.449 0 0 0-2.437-2.454Zm-.449 2.934v1.233h-.71v-3.426h1.355c.667 0 1.224.35 1.224 1.08 0 .513-.273.83-.655.982l.71 1.364h-.776l-.623-1.233h-.525Zm1.148-1.09c0-.34-.284-.426-.557-.426h-.591v.85h.602c.262 0 .546-.108.546-.425ZM89.27 36 79.01 20.61V36h-4.56V13.684h5.272l9.69 14.564V13.684h4.56V36H89.27Zm7.419-7.581c0-4.532 3.733-7.98 8.35-7.98 4.589 0 8.265 3.363 8.265 7.895 0 4.588-3.733 8.008-8.322 8.008-4.617 0-8.293-3.334-8.293-7.923Zm4.56-.057c0 2.309 1.681 3.905 3.762 3.905 2.08 0 3.733-1.597 3.733-3.905 0-2.28-1.681-3.876-3.762-3.876-2.08 0-3.733 1.596-3.733 3.876Zm22.956-7.581v4.36c-.599-.113-1.226-.113-1.425-.113-2.138 0-3.62 1.482-3.62 4.303V36h-4.36V20.781h4.218v2.223h.057c.826-1.739 2.365-2.394 3.933-2.394.342 0 .883.085 1.197.171ZM137.046 36v-1.938h-.057c-1.425 2.08-3.705 2.223-4.731 2.223-4.417 0-7.239-3.819-7.239-7.923 0-3.847 2.936-7.866 7.296-7.866.884 0 2.993.171 4.56 2.024h.057V12.8h4.418V36h-4.304Zm0-7.638c0-2.28-1.681-3.847-3.762-3.847-2.08 0-3.762 1.567-3.762 3.847 0 2.309 1.682 3.905 3.762 3.905 2.081 0 3.762-1.597 3.762-3.905ZM150.798 36l-8.065-22.316h4.987l5.786 16.958 5.814-16.957h4.902L156.128 36h-5.33Zm31.593-15.162c0 4.93-3.477 7.296-8.151 7.296h-3.505V36h-4.617V13.684h8.293c4.475 0 7.98 2.423 7.98 7.154Zm-4.645.114c0-2.166-1.824-2.907-3.734-2.907h-3.277v5.785h3.306c1.824 0 3.705-.797 3.705-2.878ZM199.535 36l-10.26-15.39V36h-4.56V13.684h5.272l9.69 14.564V13.684h4.56V36h-4.702Z" clip-rule="evenodd"/><path fill="#3E5FFF" fill-rule="evenodd" d="M6.21 48A30.274 30.274 0 0 1 .5 30.246C.5 13.542 13.931 0 30.5 0c16.57 0 30 13.542 30 30.246A30.27 30.27 0 0 1 54.79 48L40.38 24.41l-1.39 2.37 1.41 6.584-9.9-17.077-6.124 10.427 1.425 6.654-5.19-8.944L6.21 48Z" clip-rule="evenodd"/></svg>