<svg fill="none" height="40" viewBox="0 0 178 40" width="178" xmlns="http://www.w3.org/2000/svg"><g clip-rule="evenodd" fill-rule="evenodd"><path d="m175.489 16.25c-1.388 0-2.503-1.1182-2.503-2.5 0-1.3727 1.115-2.5 2.503-2.5s2.511 1.1273 2.511 2.5c0 1.3818-1.123 2.5-2.511 2.5zm0-4.5457c-1.124 0-2.028.9091-2.028 2.0455s.904 2.0455 2.028 2.0455c1.114 0 2.036-.9091 2.036-2.0455s-.922-2.0455-2.036-2.0455zm-.375 2.4457v1.0273h-.593v-2.8545h1.132c.557 0 1.023.2909 1.023.9 0 .4272-.228.6909-.548.8181l.594 1.1364h-.649l-.52-1.0273zm.959-.9092c0-.2818-.237-.3546-.465-.3546h-.494v.7091h.503c.219 0 .456-.0909.456-.3545z" fill="#000"/><path d="m74.1836 30.0007-8.5741-12.825v12.825h-3.8107v-18.5962h4.4062l8.0977 12.1362v-12.1362h3.8107v18.5962zm6.1999-6.3176c0-3.7762 3.12-6.65 6.9784-6.65 3.8345 0 6.9069 2.8025 6.9069 6.5788 0 3.8237-3.12 6.6737-6.9545 6.6737-3.8584 0-6.9308-2.7787-6.9308-6.6025zm3.8107-.0474c0 1.9237 1.4052 3.2537 3.1439 3.2537 1.7386 0 3.12-1.33 3.12-3.2537 0-1.9-1.4052-3.23-3.1438-3.23-1.7387 0-3.1201 1.33-3.1201 3.23zm19.1838-6.3175v3.6338c-.5-.0951-1.024-.0951-1.191-.0951-1.786 0-3.0245 1.2351-3.0245 3.5863v5.5575h-3.644v-12.6825h3.5249v1.8525h.0477c.6907-1.4487 1.9769-1.995 3.2869-1.995.286 0 .738.0713 1 .1425zm10.732 12.6824v-1.615h-.048c-1.191 1.7338-3.096 1.8525-3.954 1.8525-3.691 0-6.049-3.1825-6.049-6.6025 0-3.2062 2.453-6.555 6.097-6.555.738 0 2.501.1425 3.811 1.6863h.047v-8.0988h3.692v19.3325zm0-6.365c0-1.9-1.406-3.2062-3.144-3.2062-1.739 0-3.144 1.3062-3.144 3.2062 0 1.9238 1.405 3.2538 3.144 3.2538 1.738 0 3.144-1.33 3.144-3.2538zm11.492 6.3651-6.74-18.5962h4.168l4.834 14.1312 4.859-14.1312h4.097l-6.764 18.5962zm26.401-12.635c0 4.1088-2.905 6.08-6.811 6.08h-2.93v6.555h-3.858v-18.5962h6.931c3.739 0 6.668 2.0187 6.668 5.9612zm-3.882.095c0-1.805-1.524-2.4225-3.12-2.4225h-2.739v4.8213h2.763c1.524 0 3.096-.665 3.096-2.3988zm18.209 12.54-8.574-12.825v12.825h-3.811v-18.5962h4.406l8.098 12.1362v-12.1362h3.811v18.5962z" fill="#000"/><path d="m4.7722 40c-3.11233-4.308-4.7823073-9.4854-4.77215397-14.795 0-13.92 11.22405397-25.205 25.07045397-25.205s25.0704 11.285 25.0704 25.205c.0104 5.3096-1.6596 10.4871-4.7722 14.795l-12.0413-19.6587-1.162 1.9749 1.1783 5.4875-8.2732-14.2312-5.1182 8.6887 1.1909 5.5451-4.3372-7.4525z" fill="#3e5fff"/></g></svg>