<svg fill="none" height="40" viewBox="0 0 211 40" width="211" xmlns="http://www.w3.org/2000/svg"><path clip-rule="evenodd" d="m4.80383 39.9934c-7.57572-10.4339-6.04214-24.9046 3.54763-33.52397 9.59634-8.62591 24.15544-8.62591 33.75174 0 9.5964 8.62587 11.13 23.09007 3.5542 33.53057l-12.1106-19.6976-1.1716 1.979 1.1848 5.4964-8.3326-14.2604-5.1471 8.7048 1.2111 5.5556-4.3769-7.4688z" fill="#dd1234" fill-rule="evenodd"/><g fill="#000"><path clip-rule="evenodd" d="m75.8613 30.5716-8.8658-13.2611v13.2611h-3.9359v-19.2374h4.5415l8.3852 12.551v-12.551h3.936v19.2374zm6.3976-6.5352c0-3.9053 3.2185-6.8771 7.2071-6.8771s7.1347 2.8994 7.1347 6.8048c0 3.9053-3.2251 6.9033-7.1808 6.9033s-7.1545-2.8731-7.1545-6.8244zm3.9425-.046c0 1.9921 1.448 3.3662 3.2448 3.3662 1.7969 0 3.2186-1.3741 3.2186-3.3662.0329-.8745-.2962-1.7292-.9083-2.3538-.6121-.6311-1.4546-.9796-2.33-.973-1.7968 0-3.2251 1.3741-3.2251 3.3268zm19.9866-6.5352v3.7607c-.408-.0724-.816-.1052-1.231-.0987-1.843 0-3.126 1.2821-3.126 3.7081v5.7463h-3.7714v-13.1164h3.6334v1.9198h.046c.711-1.5122 2.04-2.0645 3.396-2.0645.349.0132.698.0592 1.033.1447h.014zm11.077 13.1164v-1.67h-.046c-1.23 1.7949-3.192 1.9198-4.08 1.9198-3.811 0-6.247-3.2939-6.247-6.831 0-3.3268 2.534-6.7785 6.293-6.7785 1.507-.0263 2.948.6115 3.936 1.7423h.046v-8.3761h3.811v19.9935h-3.719zm0-6.5812c.033-1.1835-.572-2.288-1.592-2.8929-1.021-.5983-2.284-.5983-3.304 0-1.021.5983-1.633 1.7094-1.593 2.8929 0 1.9921 1.448 3.3662 3.245 3.3662 1.796 0 3.244-1.3741 3.244-3.3662z" fill-rule="evenodd"/><path clip-rule="evenodd" d="m208.939 13.4253h-.421v.6114h.435c.191 0 .395-.0789.395-.3024 0-.2433-.204-.3025-.402-.3025zm-.421 1.9723h-.507v-2.4589h.975c.48 0 .875.2499.875.7758 0 .3682-.198.5983-.474.7035l.513.9796h-.559l-.448-.8875h-.375zm-1.421-1.2294c0 .9796.776 1.762 1.744 1.762.967 0 1.751-.7824 1.751-1.762s-.79-1.762-1.751-1.762-1.744.7824-1.744 1.762zm-.409 0c0-1.1834.955-2.1565 2.153-2.1565s2.159.9731 2.159 2.1565-.968 2.1565-2.159 2.1565c-1.192 0-2.153-.9665-2.153-2.1565z" fill-rule="evenodd"/><path d="m126.305 29.266c-1.29-1.0519-2.106-2.4984-2.422-4.3655l3.712-.8679c.158.9993.606 1.8146 1.369 2.3932.764.5785 1.659.8415 2.738.8415.895 0 1.606-.1841 2.106-.6048.527-.4208.79-.9468.79-1.5517 0-.9467-.842-1.762-2.185-1.9986l-2.712-.5523c-1.553-.2893-2.817-.9468-3.738-1.8935-.922-.973-1.369-2.1828-1.369-3.6029 0-1.6831.789-3.2347 2.001-4.2866 1.237-1.0257 2.975-1.6831 4.798-1.6831 2.106 0 3.896.6311 5.002 1.6042 1.106 1.0256 1.738 2.209 1.922 3.4977l-3.607 1.0519c-.342-1.5779-1.448-2.6036-3.37-2.6036-.79 0-1.448.2104-2.001.6312-.526.4208-.79.9205-.79 1.4727 0 .9731.659 1.7357 1.975 1.9987l2.685.4997c1.738.3156 3.081.973 4.028 1.9987.922 1.0256 1.396 2.2353 1.396 3.6292 0 1.499-.658 2.9454-1.791 4.1025-1.184 1.1309-3.053 1.8672-5.265 1.8672-2.211 0-3.975-.526-5.272-1.5779z"/><path d="m146.341 20.7897v4.9507c0 1.052.606 1.6831 1.869 1.6831.29 0 .737-.0263 1.343-.1052v3.1098c-.632.2104-1.395.3156-2.291.3156-3.159 0-4.738-1.6042-4.738-4.7863v-5.1545h-2.528v-3.3136h2.607v-4.1026h3.738v4.1026h3.238v3.3136h-3.238z"/><path d="m155.167 25.076c.105.789.474 1.3938 1.079 1.8672.606.4734 1.29.7101 2.133.7101.579 0 1.132-.1841 1.659-.4997.526-.3156.921-.7364 1.105-1.2623l3.16 1.0782c-.422 1.2097-1.185 2.1565-2.265 2.8402-1.079.6838-2.264 1.0257-3.606 1.0257-1.343 0-2.502-.2893-3.607-.8679-1.08-.5522-1.949-1.3675-2.607-2.4194-.632-1.052-.974-2.2354-.974-3.5503 0-1.2361.316-2.3932.948-3.4451.632-1.052 1.474-1.8672 2.554-2.4984 1.053-.6049 2.211-.8941 3.449-.8941 1.948 0 3.501.6048 4.712 1.8146 1.211 1.2097 1.817 2.7876 1.817 4.7403 0 .6048-.027 1.0519-.079 1.3675h-9.485zm5.72-2.551c-.053-.4996-.264-.9993-.685-1.4727-.421-.4733-1.211-.7889-2.106-.7889-.79 0-1.422.2367-1.948.7363-.501.4997-.817 1.0257-.895 1.5253z"/><path d="m167.636 10.5781h3.844v19.9737h-3.844z"/><path d="m174.369 10.5781h3.844v19.9737h-3.844z"/><path d="m182.3 29.7389c-.869-.7363-1.29-1.6831-1.29-2.8402v-.1052c0-1.8672 1.132-2.9454 2.633-3.4714 1.053-.3945 2.027-.526 3.132-.526h1.264c.685 0 1.027-.3419 1.027-.8941 0-.9205-.737-1.6305-2.054-1.6305-1.158 0-2.053.6837-2.343 1.7883l-3.37-.7627c.158-.8941.527-1.6568 1.132-2.288.58-.6311 1.29-1.1045 2.133-1.3938.816-.2893 1.685-.4471 2.633-.4471 3.238-.0263 5.64 1.8146 5.64 5.286v6.0027c0 .7889.053 1.499.106 2.1039h-3.555c-.052-.3419-.079-.8679-.079-1.6306h-.052c-.895 1.2361-2.185 1.8935-3.897 1.8935-1.184 0-2.211-.3681-3.054-1.0782zm6.062-2.4786c.474-.4734.711-1.0782.711-1.762v-.3156h-2.291c-.474 0-.895.1315-1.29.3945-.421.263-.632.6312-.632 1.1045 0 .8679.711 1.3412 1.606 1.3412.79 0 1.422-.2629 1.896-.7626z"/><path d="m204.147 21.2084c-.342-.0526-.737-.1052-1.211-.1052-1.896 0-3.107 1.3412-3.107 3.7081v5.7331h-3.765v-13.077h3.634v1.8935h.026c.684-1.4201 1.948-2.025 3.396-2.025.342 0 .685.0526 1.027.1315v3.7344z"/></g></svg>