<svg fill="none" height="40" viewBox="0 0 222 40" width="222" xmlns="http://www.w3.org/2000/svg"><g clip-rule="evenodd" fill-rule="evenodd"><path d="m4.78198 39.9532c-3.10959-4.2855-4.78198-9.4765-4.78198-14.7653 0-13.8961 11.2364-25.1449312 25.0832-25.1449312s25.0834 11.2488312 25.0834 25.1449312c0 5.2908-1.6728 10.4798-4.7822 14.7653l-12.0406-19.6203-1.1715 1.9757 1.1715 5.4908-8.2606-14.1959-5.1173 8.6712 1.2036 5.5247-4.3469-7.4327z" fill="#ff5d01"/><path d="m119.274 28.7353h.049v1.6818h3.729v-20.1241h-3.827v8.43h-.049c-1.358-1.6065-3.187-1.7553-3.951-1.7553-3.778 0-6.323 3.4862-6.323 6.8236 0 3.56 2.445 6.8728 6.272 6.8728.889 0 2.865-.1244 4.1-1.9288zm-6.471-4.9458c0-1.978 1.457-3.3373 3.26-3.3373 1.802 0 3.26 1.3348 3.26 3.3373 0 2.0024-1.458 3.3862-3.26 3.3862-1.803 0-3.26-1.4084-3.26-3.3862zm-44.2784 6.6267v-13.3496l.0018.002 8.8898 13.3494h4.0737v-19.3585h-3.9514v12.6327l-8.3963-12.6327h-4.569v19.3567zm29.2135-6.6495c0-3.9313-3.1848-6.848-7.1608-6.848-4.0005 0-7.2381 2.9414-7.2381 6.9216 0 3.9804 3.2112 6.8725 7.1872 6.8725 3.9758 0 7.2117-3.0147 7.2117-6.9461zm-3.9496.0264c0 2.0024-1.4332 3.3864-3.2357 3.3864-1.8024 0-3.2603-1.4084-3.2603-3.3864 0-1.9778 1.4333-3.3618 3.2357-3.3618s3.2603 1.3595 3.2603 3.3618zm14.2225-2.7959c-.518-.0999-1.062-.0999-1.235-.0999-1.852 0-3.136 1.2861-3.136 3.7335v5.7845h-3.7787v-13.2023h3.6557v1.929h.049c.716-1.5086 2.049-2.0761 3.407-2.0761.296 0 .765.0736 1.038.1491zm25.882 2.5972h-3.038v6.8236h-4v-19.3585h7.187c3.878 0 6.914 2.1022 6.914 6.2052 0 4.1028-3.014 6.3297-7.063 6.3297zm-.198-8.7526h-2.84v5.0191h2.865c1.58 0 3.211-.6918 3.211-2.4962s-1.58-2.5229-3.236-2.5229zm15.311 6.0552c.173 0 .717 0 1.235.0999v-3.7822c-.273-.0755-.742-.149-1.037-.149-1.358 0-2.692.5674-3.407 2.076h-.049v-1.929h-3.656v13.2024h3.778v-5.7848c0-2.4474 1.285-3.7333 3.136-3.7333zm8.742-3.9783c3.976 0 7.16 2.9167 7.16 6.848 0 3.9314-3.236 6.9461-7.211 6.9461-3.976 0-7.187-2.8921-7.187-6.8725 0-3.9802 3.237-6.9216 7.238-6.9216zm-.025 10.2608c1.803 0 3.236-1.384 3.236-3.3864 0-2.0023-1.458-3.3618-3.261-3.3618-1.802 0-3.235 1.384-3.235 3.3618 0 1.978 1.458 3.3864 3.26 3.3864zm15.731.07c-1.282 0-1.851-.6676-1.851-1.682l-.002-5.0191h3.26v-3.3374h-3.26v-4.1292h-3.803v4.1292h-2.618v3.3374h2.569v5.2174c0 2.1513.694 4.8209 4.767 4.8209.445 0 1.407-.0244 2.296-.2958v-3.1394c-.124.0131-.23.0249-.322.0351-.42.0465-.569.0629-1.036.0629zm6.544-2.3735c.248 1.6574 1.655 2.5961 3.261 2.5961 1.112 0 2.348-.6674 2.791-1.7553l3.16 1.0879c-.863 2.5474-3.308 3.9068-5.902 3.9068-4 0-7.236-2.819-7.236-6.9217 0-3.8069 3.185-6.8971 6.99-6.8971s6.569 2.6944 6.569 6.6011c0 .4693 0 .9392-.049 1.384h-9.582zm5.782-2.5456c-.074-.9636-.89-2.2984-2.816-2.2984-1.73 0-2.715 1.433-2.866 2.2984zm12.125-5.4117c-4.051 0-7.186 3.0149-7.186 6.9218 0 3.9312 2.94 6.8743 7.089 6.8743 2.839 0 5.752-1.5083 6.593-4.5495l-3.507-1.0636c-.371 1.0126-1.358 2.0514-3.038 2.0514-1.901 0-3.183-1.4084-3.183-3.3618 0-2.1004 1.506-3.3373 3.159-3.3373s2.667 1.039 2.962 2.0269l3.507-1.0634c-.668-3.0149-3.656-4.4988-6.396-4.4988zm14.077 8.6488c0 1.0144.568 1.682 1.85 1.682.468 0 .618-.0166 1.037-.0632.092-.0102.197-.0217.321-.0348v3.1394c-.888.2714-1.851.2958-2.294.2958-4.076 0-4.768-2.6696-4.768-4.8209v-5.2174h-2.569v-3.3374h2.618v-4.1292h3.802v4.1292h3.262v3.3374h-3.262zm6.307-13.8899c-.402.4016-.635.9711-.635 1.5403h-.005c0 .2679.036.5695.169.8374.102.2676.269.5015.468.7032.202.2016.435.3695.704.4695.268.0999.534.1677.836.1677s.568-.0678.836-.1677c.267-.102.502-.2679.702-.4695.201-.2017.37-.4356.47-.7032.1-.2679.166-.5355.166-.8374 0-.5692-.233-1.1387-.634-1.5403-.4-.4016-.97-.6354-1.538-.6354-.57 0-1.138.2338-1.539.6354zm-.1 2.2097c-.1-.1998-.134-.4355-.134-.6694 0-.2356.034-.4693.134-.7371.066-.2017.199-.4016.368-.5695.166-.1677.366-.3016.568-.4016.2-.1.435-.1337.668-.1337.47 0 .903.1997 1.238.5353.299.3358.501.8033.501 1.2729 0 .5033-.166.937-.501 1.2726-.302.3336-.768.5355-1.238.5355-.233 0-.466-.0339-.668-.1339-.202-.0999-.404-.2339-.568-.4016-.167-.1679-.269-.3678-.368-.5695zm.803.5695h.466v-.9031h.368l.468.9031h.57l-.501-1.005c.166-.034.266-.1339.366-.2676.1-.134.135-.2679.135-.4356 0-.5015-.435-.7694-.903-.7694h-.969zm.501-2.01h.435c.2 0 .402.0679.402.3018 0 .2337-.2.3016-.402.3016h-.435z" fill="#000"/></g></svg>