<svg fill="none" height="40" viewBox="0 0 208 40" width="208" xmlns="http://www.w3.org/2000/svg"><path clip-rule="evenodd" d="m4.74915 40c-3.09729-4.308-4.7592085-9.4854-4.7491042-14.795 0-13.92 11.1698542-25.205 24.9493542-25.205s24.9493 11.285 24.9493 25.205c.0103 5.3096-1.6516 10.4871-4.7491 14.795l-11.9832-19.6587-1.1564 1.9749 1.1726 5.4875-8.2332-14.2312-5.0934 8.6887 1.1851 5.5451-4.3163-7.4525z" fill="#7f7aee" fill-rule="evenodd"/><g fill="#000"><path d="m74.698 29.3563h3.9108v-18.5963h-3.7923v12.1362l-8.0586-12.1362h-4.3849v18.5963h3.7923v-12.825zm6.4906-6.3176c0 3.8238 3.0575 6.6025 6.8972 6.6025 3.816 0 6.921-2.8499 6.921-6.6737 0-3.7762-3.0576-6.5787-6.8736-6.5787-3.8397 0-6.9446 2.8737-6.9446 6.6499zm3.7923-.0475c0-1.9 1.3747-3.23 3.1049-3.23 1.7303 0 3.1287 1.33 3.1287 3.23 0 1.9238-1.3747 3.2538-3.105 3.2538-1.7302 0-3.1286-1.33-3.1286-3.2538zm20.0451-6.3175c-.325-.0839-.659-.1317-.995-.1424-1.305 0-2.585.5462-3.272 1.9949h-.046v-1.8525h-3.5107v12.6826h3.6267v-5.5576c0-2.3512 1.233-3.5862 3.01-3.5862.166 0 .688 0 1.185.095v-3.6338zm10.73 12.6826h3.579v-19.3325h-3.674v8.0987h-.047c-1.304-1.5437-3.058-1.6862-3.793-1.6862-3.626 0-6.067 3.3487-6.067 6.5549 0 3.42 2.346 6.6026 6.02 6.6026.853 0 2.749-.1188 3.934-1.8525h.048zm0-6.3651c0 1.9238-1.399 3.2538-3.129 3.2538s-3.128-1.33-3.128-3.2538c0-1.9 1.398-3.2062 3.128-3.2062s3.129 1.3062 3.129 3.2062zm7.019 6.3651h11.755v-3.6576h-7.94v-14.9387h-3.816v18.5963zm12.635-6.3176c0 3.8238 3.057 6.6025 6.897 6.6025 3.816 0 6.921-2.8499 6.921-6.6737 0-3.7762-3.058-6.5787-6.874-6.5787-3.839 0-6.944 2.8737-6.944 6.6499zm3.792-.0475c0-1.9 1.375-3.23 3.105-3.23s3.129 1.33 3.129 3.23c0 1.9238-1.375 3.2538-3.105 3.2538-1.731 0-3.129-1.33-3.129-3.2538zm18.268 6.65c2.726 0 5.522-1.4487 6.328-4.37l-3.365-1.0212c-.356.9737-1.304 1.9712-2.916 1.9712-1.825 0-3.057-1.3537-3.057-3.23 0-2.0187 1.398-3.2062 3.034-3.2062 1.588 0 2.559.9975 2.844 1.9475l3.365-1.0212c-.639-2.8975-3.507-4.3225-6.138-4.3225-3.887 0-6.898 2.8974-6.898 6.6499 0 3.7763 2.821 6.6025 6.803 6.6025zm12.125-6.2937 4.48 6.0088h4.669l-5.238-6.84 5.096-5.8426h-4.717l-4.385 4.9876v-11.6613h-3.697v19.3563h3.697v-6.0088z"/><path d="m182.407 21.59c.143-.8313 1.091-2.2087 2.75-2.2087 1.849 0 2.631 1.2824 2.702 2.2087zm9.102 2.4463c.047-.4275.047-.8788.047-1.33 0-3.7525-2.536-6.3413-6.304-6.3413-3.651 0-6.708 2.9687-6.708 6.6262 0 3.9426 3.105 6.65 6.945 6.65 2.488 0 4.835-1.3062 5.664-3.7524l-3.034-1.045c-.426 1.045-1.611 1.6862-2.678 1.6862-1.54 0-2.891-.9025-3.128-2.4937zm10.062-7.3626c-.326-.0839-.66-.1317-.996-.1424-1.303 0-2.583.5462-3.27 1.9949h-.048v-1.8525h-3.508v12.6826h3.627v-5.5576c0-2.3512 1.232-3.5862 3.01-3.5862.166 0 .687 0 1.185.095zm4.094-1.8299c.309-.0011.614-.0646.897-.1866.284-.122.54-.3.753-.5235.438-.4537.685-1.0699.685-1.7124 0-.6413-.247-1.2575-.685-1.7125-.213-.2233-.469-.4011-.753-.5228-.283-.1218-.588-.1851-.897-.186-1.28 0-2.325 1.0838-2.325 2.4213s1.045 2.4225 2.325 2.4225zm0-4.3925c1.045 0 1.873.8875 1.873 1.97 0 1.085-.828 1.9624-1.873 1.9624-1.037 0-1.855-.8774-1.855-1.9624 0-1.0838.818-1.9688 1.855-1.9688zm-.358 2.3587h.393l.488.9938h.601l-.559-1.12c.144-.067.264-.1754.346-.3113.082-.1374.123-.296.117-.4563 0-.4437-.262-.885-.932-.885h-.994v2.7726h.54zm.837-.885c0 .1625-.096.37-.428.37h-.409v-.7412h.409c.358 0 .428.2087.428.3712z"/></g></svg>