<svg fill="none" height="40" viewBox="0 0 188 40" width="188" xmlns="http://www.w3.org/2000/svg"><path d="m76.0639 30.9692-8.7911-13.24v13.2386h-3.9076v-19.1956h4.5174l8.3038 12.5275v-12.5275h3.9076v19.197zm6.3577-6.5224c0-3.8974 3.1993-6.8646 7.1548-6.8646 3.9315 0 7.083 2.8937 7.083 6.791 0 3.9469-3.1993 6.8887-7.1309 6.8887-3.9569 0-7.1069-2.8683-7.1069-6.8137zm3.9076-.0481c0 1.9847 1.4406 3.3574 3.2233 3.3574s3.1993-1.3713 3.1993-3.3574c0-1.9621-1.4406-3.3362-3.2247-3.3362-1.7813 0-3.1979 1.3741-3.1979 3.3362zm19.6708-6.5225v3.7518c-.513-.099-1.051-.099-1.221-.099-1.832 0-3.102 1.2751-3.102 3.7037v5.7351h-3.7362v-13.0902h3.6142v1.9113h.048c.709-1.4957 2.028-2.0597 3.371-2.0597.293 0 .757.0735 1.026.147zm11.003 13.0916v-1.6667h-.048c-1.222 1.7897-3.175 1.9127-4.056 1.9127-3.785 0-6.202-3.2853-6.202-6.8151 0-3.3107 2.516-6.767 6.252-6.767.757 0 2.564.147 3.907 1.7401h.05v-8.3602h3.785v19.9576h-3.69zm0-6.5691c0-1.9621-1.441-3.3107-3.225-3.3107-1.781 0-3.222 1.3486-3.222 3.3107 0 1.9847 1.441 3.3574 3.224 3.3574 1.782 0 3.224-1.3713 3.224-3.3574zm68.357-4.4741c.342.0114.684-.0465 1.003-.1702.32-.1238.612-.3108.858-.5501.247-.2392.443-.5258.577-.8426.133-.3168.202-.6574.202-1.0015s-.069-.6847-.202-1.0015c-.134-.3168-.33-.6033-.577-.8426-.246-.2392-.538-.4263-.858-.55-.319-.1237-.661-.1816-1.003-.1702-1.401 0-2.545 1.1493-2.545 2.5643 0 1.4165 1.144 2.5644 2.545 2.5644zm0-4.6509c1.143 0 2.048.9387 2.048 2.0865 0 1.1479-.905 2.0767-2.048 2.0767-1.135 0-2.031-.9288-2.031-2.0767 0-1.1478.896-2.0851 2.031-2.0851zm-.392 2.4979h.43l.533 1.0532h.658l-.611-1.1875c.155-.0698.286-.1844.376-.3291.09-.1448.135-.3132.129-.4837 0-.4694-.285-.9373-1.019-.9373h-1.086v2.9376h.59zm.915-.9372c0 .1724-.105.3915-.467.3915h-.448v-.7845h.448c.391 0 .467.2205.467.393zm-46.76.4905c0-4.2833-3.162-6.4772-7.198-6.4772h-7.482v20.2063h4.166v-7.1218h3.161c4.216 0 7.353-2.1417 7.353-6.6073zm-4.192.1032c0 1.8844-1.695 2.6067-3.341 2.6067h-2.981v-5.2375h2.955c1.723 0 3.367.6701 3.367 2.6308zm10.206 13.8846c1.492 0 3.059-.5159 4.088-1.9875l.051.0254v1.7034h3.702v-8.5411c0-3.7178-2.494-5.5485-5.913-5.5485-2.878 0-5.707 1.3939-6.169 4.3356l3.522.8001c.308-1.162 1.233-1.8843 2.467-1.8843 1.441 0 2.16.8255 2.16 1.7034 0 .5669-.334.9542-1.08.9542h-1.336c-2.674 0-6.041.9287-6.041 4.2324v.1032c0 2.5558 2.158 4.1037 4.549 4.1037zm1.157-2.9417c-.848 0-1.671-.4128-1.671-1.3939 0-1.0842 1.183-1.5747 2.006-1.5747h2.391v.311c0 1.3924-.952 2.6576-2.726 2.6576zm15.167 2.9926c3.754 0 5.579-2.2194 5.579-4.566 0-3.069-2.331-4.0401-4.878-4.3822l-.776-.0947c-1.11-.1598-1.622-.427-1.622-1.1507 0-.6192.591-1.1352 1.569-1.1352 1.156 0 1.799.6969 2.005 1.6257l3.469-.8765c-.281-1.5493-1.85-3.845-5.422-3.845-2.905 0-5.425 1.9084-5.425 4.4119 0 2.9149 2.061 3.8733 4.446 4.2819l.515.0791c1.439.2064 2.186.4651 2.186 1.343 0 .516-.463 1.1874-1.646 1.1874-1.337 0-2.108-.8778-2.287-1.8843l-3.497.9287c.231 1.4702 1.748 4.0769 5.784 4.0769zm13.445 0c-4.036 0-5.553-2.6053-5.785-4.0769l3.496-.9287c.181 1.0065.952 1.8829 2.289 1.8829 1.182 0 1.644-.67 1.644-1.1874 0-.8213-.654-1.0998-1.923-1.3006l-.778-.1201c-2.385-.4086-4.445-1.367-4.445-4.2819 0-2.5021 2.519-4.4119 5.424-4.4119 3.574 0 5.141 2.2957 5.424 3.845l-3.469.8765c-.206-.9288-.849-1.6257-2.006-1.6257-.977 0-1.568.516-1.568 1.1352 0 .7237.511.9909 1.621 1.1507l.512.0622c2.649.311 5.141 1.2397 5.141 4.4133 0 2.348-1.825 4.5674-5.577 4.5674z" fill="#000"/><path d="m.00003656 25.2036c-.0090454 5.3144 1.66077344 10.4948 4.76938344 14.7964l12.02698-19.648 4.3356 7.4526-1.1913-5.5442 5.1158-8.6896 8.27 14.2353-1.18-5.4906 1.1631-1.9734 12.034 19.6579c3.1081-4.3014 4.7779-9.4812 4.7694-14.795 0-13.92-11.2187-25.20499987-25.0565-25.20499987-13.8378-.00141362-25.05646344 11.28359987-25.05646344 25.20359987z" fill="#00cfb6"/></svg>