<svg fill="none" height="40" viewBox="0 0 200 40" width="200" xmlns="http://www.w3.org/2000/svg"><g clip-rule="evenodd" fill-rule="evenodd"><path d="m4.76388 40c-2.99673-4.1551-4.76388-9.2675-4.76388-14.7955 0-13.9199 11.2057-25.2045 25.0287-25.2045 13.8231 0 25.0287 11.2842 25.0287 25.2045 0 5.528-1.7671 10.6404-4.7638 14.7955l-12.0215-19.6581-1.1609 1.9737 1.1778 5.4895-8.2603-14.2333-5.1099 8.6885 1.1899 5.5444-4.3297-7.4518z" fill="#b1eb21"/><g fill="#000"><path d="m66.5379 30.7789h-3.9661v-19.4019h4.5857l8.4281 12.6619v-12.6619h3.9661v19.4019h-4.0898l-8.924-13.3809zm16.9528-11.5224c1.413-1.3381 3.1482-2.0072 5.1561-2.0072s3.7183.6691 5.1062 1.9824c1.388 1.3133 2.0823 2.924 2.0823 4.8815 0 1.9823-.6943 3.6423-2.1072 4.9805-1.4128 1.3133-3.1231 1.9825-5.1311 1.9825-2.0325 0-3.7431-.6443-5.131-1.9577-1.3881-1.3132-2.0823-2.9487-2.0823-4.9311.0004-1.9572.6942-3.6175 2.107-4.9309zm2.8014 7.3349c.6196.6194 1.4129.9415 2.3302.9415 1.8591 0 3.2471-1.4125 3.2471-3.3949 0-.9663-.3222-1.7842-.9417-2.4036-.6196-.6442-1.413-.9664-2.3303-.9664s-1.6853.3222-2.3053.9664c-.6196.6194-.9418 1.4373-.9418 2.4036-.0004.9913.3218 1.8092.9418 2.4534zm15.2459-7.0127c.571-1.2147 1.984-2.1814 3.743-2.1814.223 0 .412.0125.571.0452v3.8428c-.233-.0331-.47-.0474-.72-.0474-2.503 0-3.594 1.5628-3.594 3.9419v5.5999h-3.867v-13.2317h3.842v2.0307zm88.406-2.1814c-1.759 0-3.172.9667-3.743 2.1814h-.025v-2.0307h-3.842v13.2317h3.867v-5.5999c0-2.3791 1.09-3.9419 3.595-3.9419.249 0 .486.0143.719.0474v-3.8428c-.159-.0327-.348-.0452-.571-.0452zm-72.972 11.6967h.049v1.6849h3.744v-19.4019h-3.843v7.6818h-.049c-.992-1.1645-2.306-1.7594-3.967-1.7594-1.809 0-3.321.6939-4.536 2.1064-1.214 1.3875-1.809 2.9732-1.809 4.7326 0 1.8585.595 3.4939 1.76 4.8566s2.677 2.0318 4.536 2.0318 3.247-.6443 4.115-1.9328zm-6.495-4.956c0-1.9576 1.413-3.3451 3.272-3.3451 1.86 0 3.272 1.3875 3.272 3.3451 0 .9909-.322 1.8088-.941 2.453-.62.6194-1.413.9415-2.331.9415-.917 0-1.71-.3221-2.33-.9415-.619-.6442-.942-1.4617-.942-2.453zm17.385-12.761v15.5863h8.303v3.816h-12.294v-19.4023zm9.766 15.7098c0 1.1897.422 2.1561 1.289 2.8745.867.7185 1.934 1.0655 3.173 1.0651 1.759 0 3.073-.6442 3.965-1.9079l.05.0249v1.6359h3.57v-8.2021c0-3.469-2.256-5.3275-5.751-5.3275-2.899 0-4.933 1.0405-6.073 3.1468l2.95 1.7594c.669-1.1894 1.636-1.7842 2.949-1.7842 1.389 0 2.133.7185 2.133 1.6355 0 .6442-.347.9663-1.042.9663h-1.314c-1.487 0-2.726.223-3.94.793-1.19.57-1.959 1.7097-1.959 3.2709zm8.23-1.7345v.2972c0 1.4622-.991 2.5524-2.652 2.5524-.993 0-1.686-.446-1.686-1.3381 0-.9913.892-1.5115 2.007-1.5115zm5.108-7.8054h4.264l3.297 7.5575 2.95-7.5575h3.991l-8.032 19.7489h-4.14l3.248-7.9293zm22.347 10.2833c-1.661 0-3.05-.9913-3.273-2.6019h9.618c.025-.2973.05-.7681.05-1.3875 0-1.9576-.62-3.5681-1.835-4.7824-1.215-1.2142-2.801-1.8336-4.759-1.8336-1.909 0-3.569.6691-4.957 2.0317-1.364 1.3628-2.057 2.9737-2.057 4.8815 0 2.0318.693 3.6922 2.082 5.0054 1.413 1.2885 3.122 1.9328 5.18 1.9328 2.702 0 4.586-.9909 5.701-2.9982l-2.8-1.8336c-.596.9664-1.785 1.5858-2.95 1.5858zm-.298-7.4585c1.76 0 2.727 1.1401 2.826 2.3046h-5.702c.075-.5203.372-1.041.893-1.5364.52-.5202 1.19-.7682 1.983-.7682z"/><path d="m197.411 16.4112c-.339.0004-.675-.0661-.989-.1957-.313-.1297-.597-.3199-.837-.5596-.239-.2398-.429-.5244-.558-.8376-.129-.3133-.195-.6489-.194-.9877 0-.6843.271-1.3408.756-1.8248.485-.4839 1.142-.7558 1.827-.7558.686 0 1.343.2719 1.827.7558.484.484.757 1.1405.757 1.8248 0 .3394-.068.6754-.198.9888-.13.3135-.32.5981-.56.8378-.242.2398-.527.4298-.841.5592s-.65.1956-.99.1948zm0-4.6915c-1.158 0-2.089.9381-2.089 2.1109 0 1.1743.931 2.111 2.089 2.111 1.15 0 2.098-.9381 2.098-2.111 0-1.1741-.949-2.1109-2.098-2.1109zm-.386 2.5238v1.0607h-.612v-2.9471h1.168c.574 0 1.055.3007 1.055.929.009.1829-.041.3638-.144.516-.101.1523-.25.2677-.423.3292l.613 1.1729h-.668l-.537-1.0607zm.989-.938c0-.2916-.245-.3665-.481-.3665h-.508v.7316h.517c.227 0 .472-.0929.472-.3651z"/></g></g></svg>