<svg xmlns="http://www.w3.org/2000/svg" width="98" height="40" fill="none"><path fill="#00B67A" d="m11.261 16.366 4.905-1.27 2.058 6.327-6.963-5.057Zm11.253-8.179h-8.597L11.26 0 8.606 8.187 0 8.18l6.962 5.057-2.655 8.187 6.954-5.057 4.299-3.122 6.954-5.057Z"/><path fill="#000" d="M28.682 6.51H38.2v1.777h-3.742v9.99H32.4v-9.99h-3.726V6.51h.008Zm9.112 3.247h1.76V11.4h.032c.059-.233.166-.457.324-.673.158-.216.349-.423.573-.598.224-.182.473-.324.747-.44.273-.108.556-.166.838-.166.215 0 .373.008.456.017.083.008.166.025.257.033v1.81a5.98 5.98 0 0 0-.406-.058 3.446 3.446 0 0 0-.407-.025c-.315 0-.614.066-.896.191a2.064 2.064 0 0 0-.73.556c-.208.25-.374.548-.498.914-.125.365-.183.78-.183 1.254v4.052h-1.875V9.757h.008Zm13.61 8.52H49.56v-1.188h-.033a2.56 2.56 0 0 1-1.029 1.03c-.456.257-.921.39-1.394.39-1.12 0-1.934-.274-2.432-.83-.498-.557-.747-1.396-.747-2.517V9.757h1.876v5.223c0 .747.141 1.278.431 1.585.283.308.69.465 1.204.465.398 0 .722-.058.987-.182.266-.125.482-.282.64-.49.165-.2.282-.448.356-.73a3.6 3.6 0 0 0 .108-.922V9.765h1.876v8.511Zm3.194-2.733c.059.548.266.93.623 1.154.365.216.797.332 1.303.332.174 0 .373-.016.597-.041.224-.025.44-.083.63-.158.2-.075.358-.19.49-.34.125-.15.183-.34.175-.581a.803.803 0 0 0-.266-.59 1.868 1.868 0 0 0-.63-.374 6.342 6.342 0 0 0-.88-.24c-.332-.067-.664-.142-1.004-.216a9.53 9.53 0 0 1-1.013-.283 3.09 3.09 0 0 1-.871-.448 1.97 1.97 0 0 1-.614-.714c-.158-.29-.232-.648-.232-1.08 0-.465.116-.847.34-1.162a2.58 2.58 0 0 1 .854-.756 3.96 3.96 0 0 1 1.154-.407 7.02 7.02 0 0 1 1.212-.116c.44 0 .863.05 1.261.141.398.092.764.241 1.087.457.324.208.59.482.805.814.216.332.349.739.407 1.212h-1.959c-.091-.448-.29-.756-.614-.905a2.514 2.514 0 0 0-1.112-.232c-.133 0-.29.008-.473.033a2.59 2.59 0 0 0-.514.124c-.158.058-.29.15-.407.266a.642.642 0 0 0-.166.457.71.71 0 0 0 .24.556c.158.141.366.257.623.357.257.091.548.174.88.24.332.067.672.142 1.02.217.34.075.673.174 1.005.282.331.108.622.258.88.448.256.191.464.424.622.706.157.283.24.64.24 1.055 0 .506-.116.93-.348 1.287-.233.349-.531.64-.896.855-.366.216-.78.382-1.229.482-.448.1-.896.15-1.336.15-.54 0-1.037-.059-1.493-.183a3.636 3.636 0 0 1-1.187-.549 2.72 2.72 0 0 1-.789-.921c-.19-.366-.29-.806-.307-1.312h1.892v-.017Zm6.191-5.787h1.42V7.199h1.875v2.558h1.693v1.403h-1.693v4.55c0 .2.008.366.025.515a.947.947 0 0 0 .116.365c.058.1.15.175.274.225.124.05.282.074.498.074.132 0 .265 0 .398-.008s.265-.025.398-.058v1.453c-.207.025-.415.042-.606.067a4.85 4.85 0 0 1-.605.033c-.498 0-.897-.05-1.195-.142-.3-.09-.54-.232-.706-.415a1.442 1.442 0 0 1-.348-.68c-.058-.274-.1-.59-.108-.939v-5.023h-1.42v-1.42h-.016Zm6.315 0h1.776v1.154h.033c.266-.498.631-.847 1.104-1.063.473-.216.98-.324 1.535-.324.672 0 1.253.116 1.751.357.498.233.913.556 1.245.972.332.415.573.896.739 1.444.166.549.249 1.138.249 1.76 0 .574-.075 1.13-.224 1.662a4.446 4.446 0 0 1-.673 1.428 3.3 3.3 0 0 1-1.145.988c-.465.249-1.004.374-1.635.374-.273 0-.547-.025-.821-.075a3.61 3.61 0 0 1-.788-.241 2.844 2.844 0 0 1-.698-.424 2.63 2.63 0 0 1-.539-.597h-.033v4.251h-1.876V9.757Zm6.556 4.268c0-.382-.05-.756-.15-1.121-.099-.366-.248-.681-.447-.963a2.283 2.283 0 0 0-.739-.673 2.07 2.07 0 0 0-1.02-.258c-.789 0-1.386.274-1.785.822-.398.549-.597 1.28-.597 2.193 0 .431.05.83.157 1.195.108.366.258.681.473.947.208.266.457.473.747.623.29.158.631.232 1.013.232.431 0 .788-.091 1.087-.265.299-.175.54-.407.73-.681.19-.283.332-.598.415-.955a5.34 5.34 0 0 0 .116-1.096Zm3.311-7.515h1.876v1.777H76.97V6.51Zm0 3.247h1.876v8.52H76.97v-8.52Zm3.552-3.247H82.4v11.766h-1.876V6.51Zm7.626 11.999c-.68 0-1.286-.117-1.817-.34a4.012 4.012 0 0 1-1.353-.93 4.052 4.052 0 0 1-.838-1.42 5.485 5.485 0 0 1-.29-1.811c0-.648.1-1.245.29-1.793.191-.549.473-1.022.838-1.42a3.822 3.822 0 0 1 1.353-.93c.531-.225 1.137-.34 1.817-.34.68 0 1.287.115 1.818.34.53.224.979.54 1.353.93.365.398.647.871.838 1.42.19.547.29 1.145.29 1.793 0 .656-.1 1.262-.29 1.81a4.05 4.05 0 0 1-.838 1.42 3.822 3.822 0 0 1-1.353.93c-.531.224-1.137.34-1.818.34Zm0-1.487c.415 0 .78-.091 1.088-.265.307-.175.556-.407.755-.69.199-.282.34-.606.44-.963a4.41 4.41 0 0 0 .14-1.096c0-.365-.05-.722-.14-1.088a2.839 2.839 0 0 0-.44-.963 2.29 2.29 0 0 0-.755-.68 2.173 2.173 0 0 0-1.088-.266c-.415 0-.78.09-1.087.265a2.384 2.384 0 0 0-.755.681c-.199.282-.34.598-.44.963a4.445 4.445 0 0 0-.14 1.088c0 .374.049.74.14 1.096.092.357.241.681.44.963.2.283.448.515.755.69.307.182.672.265 1.087.265Zm4.847-7.265h1.419V7.199h1.875v2.558h1.693v1.403H96.29v4.55c0 .2.009.366.025.515a.947.947 0 0 0 .116.365c.059.1.15.175.274.225.125.05.282.074.498.074.133 0 .266 0 .398-.008a2.19 2.19 0 0 0 .399-.058v1.453c-.208.025-.415.042-.606.067a4.85 4.85 0 0 1-.606.033c-.498 0-.896-.05-1.195-.142-.299-.09-.54-.232-.705-.415a1.442 1.442 0 0 1-.349-.68c-.058-.274-.1-.59-.108-.939v-5.023h-1.419v-1.42h-.016Z"/></svg>