<svg fill="none" height="15" viewBox="0 0 50 35" width="35" xmlns="http://www.w3.org/2000/svg"><g clip-rule="evenodd" fill-rule="evenodd"><path d="m48.931 5.47335c-.5762-2.13995-2.2635-3.82723-4.4034-4.40337-3.9096-1.06998-19.5477-1.06998-19.5477-1.06998s-15.63816 0-19.5477 1.02883c-2.0988.57614-3.82723 2.30457-4.40337 4.44452-1.02883 3.90954-1.02883 12.01665-1.02883 12.01665s0 8.1483 1.02883 12.0167c.57614 2.14 2.26341 3.8273 4.40337 4.4034 3.95069 1.07 19.5477 1.07 19.5477 1.07s15.6381 0 19.5477-1.0288c2.1399-.5762 3.8272-2.2635 4.4034-4.4034 1.0288-3.9096 1.0288-12.0167 1.0288-12.0167s.0411-8.14831-1.0288-12.05785z" fill="#f00"/><path d="m20 24.9797 13.0044-7.4898-13.0044-7.4899z" fill="#fff"/></g></svg>