<svg xmlns="http://www.w3.org/2000/svg" width="116" height="60" fill="none"><g clip-path="url(#a)"><path fill="#EC1C2E" d="M53.75 18c-2.238-.033-4.224 1.776-4.224 4.394v11.79c.002.425-.315.801-.777.801h-3.685c-7.975.01-7.262-10.195-.474-10.205 3.018-.004 4.072 0 4.072 0v-2.859h-4.217c-2.642.004-4.643 1.01-5.989 2.511-1.346 1.5-2.034 3.498-2.033 5.484 0 1.912.653 3.896 2.015 5.4 1.362 1.503 3.432 2.531 6.294 2.531h6.957c.402 0 .743-.34.743-.738V22.705c-.005-.753.386-1.358 1.014-1.559.61-.194 1.279.059 1.682.632l.002.003.002.003c.977 1.602 3.42 5.531 5.626 9.073l2.92 4.684.929 1.489.36.576c.162.23.367.317.537.263a.385.385 0 0 0 .23-.21c.058-.113.091-.269.091-.456V22.707c-.002-.75.386-1.357 1.017-1.557.605-.194 1.276.059 1.676.633l.001.002.002.003c.98 1.6 3.423 5.53 5.63 9.072a8069.167 8069.167 0 0 0 4.209 6.748c.16.229.377.32.559.263a.402.402 0 0 0 .236-.213.99.99 0 0 0 .094-.453V18.09h-2.885v11.163s-1.787-3.03-4.832-8.258c-2.98-5.122-8.602-3.005-8.604 1.402v6.854s-1.744-3.032-4.787-8.26c-1.212-2.08-2.86-2.966-4.392-2.99Zm-8.784.089c-16.577-.002-16.42 23.615.224 23.626h6.503c2.798.002 4.595-1.658 4.593-4.717v-5.982s3.648 6.047 5.079 8.414c2.435 4.024 8.327 3.233 8.313-1.794V31.02s3.647 6.045 5.08 8.415c2.435 4.023 8.328 3.231 8.313-1.797v-19.55h-2.88v19.117c.002.904-.505 1.408-.987 1.56v.001c-.589.188-1.23-.063-1.627-.634l-.001-.002-.002-.002c-.082-.131-7.888-12.631-9.84-15.825-.162-.23-.399-.324-.61-.258-.218.07-.357.302-.357.662v14.494c.003.907-.495 1.41-.976 1.565-.58.182-1.21-.068-1.606-.638v-.001l-.002-.002-.367-.586-.931-1.493c-.775-1.24-1.82-2.916-2.924-4.688a1699.295 1699.295 0 0 1-5.618-9.059c-.162-.23-.401-.322-.612-.256-.22.07-.361.302-.36.66v14.406c0 .925-.757 1.678-1.682 1.678h-6.957c-3.165 0-5.482-1.148-7.003-2.834-1.52-1.685-2.244-3.902-2.246-6.037-.003-2.215.765-4.445 2.27-6.125 1.507-1.68 3.754-2.806 6.69-2.81h4.22v-2.892h-3.697Z"/></g><defs><clipPath id="a"><path fill="#fff" d="M32.62 18h50.451v24H32.62z"/></clipPath></defs></svg>