<svg xmlns="http://www.w3.org/2000/svg" width="154" height="60" fill="none"><g clip-path="url(#a)"><path fill="#33629A" d="M83.087 26.089c0-2.578.044-4.978.177-7.2l-6.8 1.289v.622l.667.089c.489.044.8.222.978.489.178.31.31.755.4 1.422.089 1.289.178 4.222.133 8.844 0 4.578-.044 7.467-.133 8.578 2.444.533 4.355.756 5.778.756 2.666 0 4.755-.756 6.266-2.311 1.511-1.511 2.311-3.645 2.311-6.267 0-2.089-.577-3.822-1.733-5.2-1.156-1.378-2.622-2.044-4.356-2.044-1.155 0-2.355.31-3.688.933Zm.133 13.689c-.089-1.422-.178-5.69-.178-12.667.4-.133.933-.222 1.6-.222 1.067 0 1.911.533 2.534 1.644.622 1.111.933 2.445.933 4.134 0 2.088-.356 3.777-1.067 5.2-.711 1.377-1.6 2.089-2.711 2.089a8.3 8.3 0 0 0-1.111-.178ZM50.953 19.333H33.175v.89l.934.088c.71.133 1.2.4 1.51.8.312.444.49 1.156.534 2.133.356 4.8.356 9.29 0 13.423-.089.977-.266 1.688-.533 2.133-.311.444-.8.711-1.511.8l-.934.133v.89h11.467v-.89l-1.2-.089a2.177 2.177 0 0 1-1.511-.8c-.311-.444-.489-1.155-.533-2.133a81.668 81.668 0 0 1-.223-6.089l2.4.045c1.29.044 2.178 1.022 2.623 2.977h.889V26.4h-.89c-.444 1.911-1.288 2.889-2.622 2.933l-2.4.045c0-4 .09-6.845.223-8.578h3.51c2.49 0 4.179 1.6 5.156 4.8l1.067-.311-.178-5.956Zm-2.089 13.69c0 2.31.667 4.221 1.956 5.732 1.289 1.512 3.2 2.223 5.6 2.223 2.4 0 4.355-.756 5.778-2.311 1.422-1.511 2.089-3.423 2.089-5.734 0-2.31-.667-4.222-1.956-5.733-1.289-1.511-3.2-2.222-5.6-2.222-2.4 0-4.355.755-5.778 2.31-1.422 1.512-2.089 3.423-2.089 5.734Zm9.912-5.068c.533 1.29.755 2.978.755 5.023 0 4.71-.978 7.022-2.889 7.022-.978 0-1.733-.667-2.267-2-.533-1.333-.755-3.022-.755-5.022 0-4.667.978-6.978 2.889-6.978.978-.044 1.733.622 2.267 1.956Zm37.555 10.8c1.467 1.467 3.333 2.223 5.556 2.223 1.377 0 2.577-.267 3.644-.845 1.067-.533 1.911-1.2 2.489-2l-.445-.533c-.977.755-2.088 1.111-3.377 1.111-1.778 0-3.156-.578-4.089-1.778-.978-1.2-1.422-2.71-1.334-4.666h9.512c0-2.134-.534-3.867-1.645-5.245-1.111-1.333-2.667-2-4.667-2-2.488 0-4.4.8-5.777 2.356-1.378 1.555-2.045 3.466-2.045 5.733 0 2.311.711 4.178 2.178 5.645ZM99.62 27.6c.489-1.067 1.111-1.6 1.955-1.6 1.334 0 2 1.689 2 5.111l-4.71.089c.044-1.333.266-2.533.755-3.6Zm20.622-1.778c-1.2-.533-2.711-.844-4.533-.844-1.867 0-3.334.489-4.445 1.422-1.111.933-1.689 2.089-1.689 3.467 0 1.2.356 2.133 1.023 2.8.666.666 1.733 1.244 3.111 1.733 1.244.444 2.133.889 2.578 1.289.444.444.711.933.711 1.6 0 .622-.223 1.2-.711 1.644-.445.49-1.067.711-1.867.711-1.956 0-3.422-1.422-4.445-4.266l-.755.222.178 4.444c1.6.623 3.377.934 5.333.934 2.044 0 3.6-.445 4.756-1.378 1.155-.889 1.733-2.178 1.733-3.778 0-1.067-.267-1.955-.845-2.622-.577-.667-1.511-1.245-2.844-1.778-1.467-.533-2.489-1.022-3.022-1.466-.534-.445-.8-.978-.8-1.645s.178-1.2.578-1.644c.4-.445.888-.623 1.511-.623 1.777 0 3.066 1.29 3.866 3.823l.756-.223-.178-3.822Zm-42.755-.4c-.623-.31-1.29-.444-2.045-.444-.755 0-1.511.31-2.355.933-.845.622-1.467 1.467-1.956 2.622l.044-3.555-6.755 1.333v.622l.667.045c.844.089 1.333.755 1.422 1.955.266 2.756.266 5.69 0 8.8-.09 1.2-.578 1.823-1.422 1.956l-.667.089v.844h9.422v-.844l-1.2-.09c-.844-.088-1.333-.755-1.422-1.955a45.411 45.411 0 0 1-.089-8.177c.267-.445.844-.712 1.733-.8.89-.09 1.911.177 2.978.8l1.645-4.134Z"/></g><defs><clipPath id="a"><path fill="#fff" d="M32.731 18h88.89v24H32.73z"/></clipPath></defs></svg>