<svg xmlns="http://www.w3.org/2000/svg" width="237" height="60" fill="none"><g fill="#0057D9" clip-path="url(#a)"><path d="M85.439 36.233c-2.556 0-4.053-1.523-4.053-4.104V18h3.82v13.896c0 .723.31 1.085 1.007 1.085h.93v3.252h-1.704ZM153.624 36.233c-2.556 0-4.054-1.523-4.054-4.104V18h3.821v13.896c0 .723.31 1.085 1.007 1.085h.929v3.252h-1.703Z"/><path d="M99.761 23.277h-3.82v7.026c0 1.807-.93 2.581-2.169 2.581-1.239 0-2.169-.774-2.169-2.581v-7.026h-3.82v7.258c0 3.563 2.658 5.706 5.595 5.706.936 0 2.314-.476 2.593-1.386v.665c0 2.065-1.445 3.072-3.072 3.072a3.93 3.93 0 0 1-3.382-1.73l-2.556 2.22c1.55 2.272 4.028 2.84 5.835 2.84 4.208 0 6.97-2.478 6.97-6.634V23.277h-.005ZM38.882 29.52c0-4.156 2.968-7.047 6.996-7.047 4.053 0 7.022 2.891 7.022 7.048 0 4.156-2.97 7.047-7.022 7.047-4.028 0-6.996-2.89-6.996-7.047Zm10.12 0c0-2.374-1.343-3.665-3.124-3.665-1.756 0-3.073 1.29-3.073 3.666 0 2.375 1.317 3.691 3.073 3.691 1.78 0 3.123-1.316 3.123-3.691ZM80.156 30.476h-9.114c.285 2.04 1.446 2.865 3.124 2.865 1.317 0 2.324-.438 3.046-1.523l2.634 2.143c-1.291 1.756-3.382 2.608-5.68 2.608-4.156 0-6.996-2.814-6.996-7.048 0-4.157 2.71-7.048 6.61-7.048 3.794 0 6.401 2.865 6.401 7.048 0 .284 0 .67-.025.955Zm-9.036-2.53h5.24c-.335-1.73-1.264-2.453-2.58-2.453-1.447 0-2.35.775-2.66 2.453ZM196.75 30.476h-9.113c.284 2.04 1.446 2.865 3.124 2.865 1.317 0 2.323-.438 3.046-1.523l2.634 2.143c-1.291 1.756-3.382 2.608-5.68 2.608-4.157 0-6.996-2.814-6.996-7.048 0-4.157 2.711-7.048 6.609-7.048 3.795 0 6.402 2.865 6.402 7.048 0 .284 0 .67-.026.955Zm-9.035-2.53h5.241c-.336-1.73-1.266-2.453-2.582-2.453-1.446 0-2.349.775-2.659 2.453ZM155.571 29.53c0 3.987 2.65 7.068 6.093 7.068 1.89 0 3.021-.854 3.824-2.072v1.707h3.806V29.53c0-5.566-4.198-7.069-6.789-7.069-4.416 0-6.934 3.082-6.934 7.07Zm3.91.025c0-2.382 1.243-3.703 3.03-3.703 1.786 0 3.029 1.32 3.029 3.703 0 2.382-1.243 3.677-3.029 3.677-1.787 0-3.03-1.295-3.03-3.677ZM204.713 26.246h-2.917v4.876c0 1.239.491 1.859 1.472 1.859h1.445v3.252h-1.936c-3.02 0-4.802-1.858-4.802-4.956V18.738l3.821.031v4.508h2.917v2.969ZM36.389 36.241c-2.556 0-4.053-1.523-4.053-4.105V18h3.82v13.904c0 .723.31 1.085 1.007 1.085h.93v3.252h-1.704ZM141.322 22.469c-2.592 0-6.789 1.503-6.789 7.069v11.107h3.806v-6.11c.802 1.217 1.933 2.071 3.824 2.071 3.443 0 6.093-3.081 6.093-7.069 0-3.987-2.518-7.068-6.934-7.068Zm-.006 10.771c-1.786 0-3.029-1.294-3.029-3.677 0-2.382 1.243-3.702 3.029-3.702 1.787 0 3.03 1.32 3.03 3.703 0 2.382-1.243 3.676-3.03 3.676ZM66.058 28.178v8.055h-3.82v-7.822c0-1.807-.93-2.582-2.169-2.582-1.24 0-2.169.775-2.169 2.582v7.822h-3.82v-8.055c0-3.562 2.581-5.705 5.99-5.705 3.407 0 5.988 2.143 5.988 5.705ZM182.774 28.178v8.055h-3.821v-7.822c0-1.807-.929-2.582-2.168-2.582-1.24 0-2.169.775-2.169 2.582v7.822h-3.821v-8.055c0-3.562 2.582-5.705 5.99-5.705 3.407 0 5.989 2.143 5.989 5.705ZM117.213 18.256a11.074 11.074 0 1 0 0 22.147 11.074 11.074 0 0 0 0-22.147Zm.472 21.2a10.226 10.226 0 0 1-2.343-.169.083.083 0 0 1-.067-.081.085.085 0 0 1 .067-.082c.651-.13 1.925-.462 2.907-1.19.935-.694 1.659-1.82 1.12-3.194-1.261-3.213-5.027-2.43-5.591-2.292a.057.057 0 0 1-.026 0 .056.056 0 0 1-.037-.031.053.053 0 0 1-.004-.025l.138-2.333c.249-2.17-.214-2.953-.214-2.953-1.114-2.218-3.581-1.743-3.581-1.743a2.842 2.842 0 0 0-1.152.477 4.11 4.11 0 0 0-1.568 2.33.083.083 0 0 1-.091.062.081.081 0 0 1-.071-.084 6.775 6.775 0 0 1 .33-1.71 10.164 10.164 0 0 1 11.836-7.06.102.102 0 0 1 .058.034.1.1 0 0 1 .024.063.1.1 0 0 1-.02.065.105.105 0 0 1-.056.038 3.65 3.65 0 0 0-1.593.875s-.935.727-1.045 2.542c-.026.482.009.966.106 1.439l.928 4.68c.127.666.503 1.26 1.052 1.658.436.325.982.465 1.52.39 0 0 2.052-.095 1.72-2.135l-.251-1.22a.096.096 0 0 1 0-.041.127.127 0 0 1 .016-.038.103.103 0 0 1 .069-.043c.578-.093 3.303-.713 3.452-4.211a.106.106 0 0 1 .021-.06.107.107 0 0 1 .053-.036.103.103 0 0 1 .114.039 10.149 10.149 0 0 1 .86 10.345 10.153 10.153 0 0 1-8.681 5.693Z"/></g><defs><clipPath id="a"><path fill="#fff" d="M32.336 18h172.606v24H32.336z"/></clipPath></defs></svg>