<svg xmlns="http://www.w3.org/2000/svg" width="162" height="60" fill="none"><g clip-path="url(#a)"><path fill="#100F0D" fill-rule="evenodd" d="M104.917 41.602v-.036l.029.013a.538.538 0 0 1-.029.023Zm.045-.017.031.013c-.008.008-.021.016-.031.024v-.037Zm-9.678 4.33-.01-.038h.056a.746.746 0 0 1-.046.038Zm-.024-.082h.052a.486.486 0 0 1-.041.037l-.011-.037Zm.049-19.717.012-.032c.01.01.018.021.027.032h-.04Zm-.02.045.013-.03.026.03h-.038Zm5.329-.077.014.032h-.036c.008-.01.015-.024.022-.032Zm.032.077h-.034c.007-.012.015-.02.022-.03l.012.03Zm-.316 15.902.001.044-.044-.044h.043c-.028-.878-.465-15.103.348-15.915l.076-.077h-5.576l.076.077c.45.45.431 1.869.431 1.884v16.461c0 1.037-.449 1.344-.453 1.347l-.125.082H105.007v-4.464l-.077.077c-.494.494-4.163.526-4.596.528Zm15.317-.378v-.027l.024.013-.024.014Zm.044-.003.026.013c-.007.005-.017.01-.026.014v-.027Zm-10.033 4.224-.013-.029h.034a.839.839 0 0 1-.021.03Zm-.034-.073h.032l-.019.028-.013-.028Zm.149-19.717.013-.024c.005.006.008.016.012.024h-.025Zm-.025.045.012-.021.01.02h-.022Zm9.462 3.869.03.026-.03.012v-.038Zm.044-.02c.011.009.023.017.032.026l-.032.013v-.04Zm-.044 7.823.02.01-.02.012v-.022Zm0-4.483.024.012c-.007.006-.016.01-.024.016v-.028Zm.044 4.455.023.01-.023.014v-.024Zm0-4.432.026.013-.026.015v-.028Zm-4.419 8.867v.045h-.002l-.039-.044h-.001l-.003.003v-.001c.001 0 .001-.002.003-.002h.001l.002-.001h.039V37.3l-.045-.001.044-.044h.001v.044c.406.003 3.449.044 4.397.594l.067.04v-4.67l-.07.05c-.796.568-3.978.645-4.394.653v.044h-.001l-.044-.043.045-.001V29.55h-.044l.044-.044v.044c.419-.008 3.787-.051 4.388.55l.076.076v-4.105h-9.633l.044.069c.19.293.317 1.328.317 2.111v16.107c0 .95-.433 1.486-.438 1.49l-.06.074h10.207v-4.35l-.071.05c-.816.574-4.297.615-4.83.618Zm-16.701-.555v-.027l.024.013a.405.405 0 0 1-.024.014Zm.044-.003.026.013c-.007.005-.016.01-.026.014v-.027ZM84.15 45.906l-.014-.029h.035a.8.8 0 0 1-.021.03Zm-.035-.073h.033l-.02.028-.013-.028Zm.15-19.717.013-.024.012.024h-.026Zm-.025.045.012-.021.01.02h-.022ZM93.7 30.03c.011.008.021.017.03.026l-.03.012v-.038Zm.046-.02c.01.009.023.017.031.026l-.031.013v-.04Zm-.046 7.823.02.01-.02.012v-.022Zm0-4.483.026.012-.026.016v-.028Zm.046 4.455.022.01-.022.014v-.024Zm0-4.432.025.013-.025.015v-.028Zm-4.42 8.867v.045h-.002l-.038-.044h-.002l-.003.003v-.001c.001 0 .001-.002.003-.002h.001l.002-.001h.039V37.3l-.045-.001.045-.044v.044c.406.003 3.45.044 4.397.594l.067.04v-4.67l-.07.05c-.796.568-3.977.645-4.394.653v.044l-.045-.043.045-.001V29.55h-.044l.044-.044v.044c.419-.008 3.787-.051 4.388.55l.076.076v-4.105h-9.633l.045.069c.19.293.316 1.328.316 2.111v16.107c0 .952-.434 1.486-.438 1.49l-.06.074h10.207v-4.35l-.07.05c-.817.574-4.298.615-4.831.618ZM69.627 26.116l.014-.029.02.029h-.034Zm-.02.045.011-.027.018.027h-.03Zm5.85-.06.01.015h-.015l.004-.015Zm.032.047.01.013h-.014l.004-.013Zm3.447-.032.011-.018.007.018h-.018Zm-.03.045.011-.017.006.017h-.017Zm5.072 0a.22.22 0 0 1 .12-.045h-.13a.274.274 0 0 1 .13-.045h-5.26l.027.062c.38.91.179 2.594-1.661 13.717l.022.14-.022.133h-.002l-.021-.135.023-.138c-.174-1.11-.402-2.373-.646-3.71-.725-3.989-1.547-8.509-1.017-10.01l.02-.06h-6.05l.06.075c.605.724 1.41 5.176 2.263 9.89.637 3.517 1.295 7.155 1.964 9.853l.008.034h5.833l.006-.037c.847-5.486 3.298-19.724 4.453-19.724h-.12Zm45.263 19.696-.016-.024h.029l-.013.024Zm-.025.045-.015-.025h.029l-.014.025Zm-6.123-11.958.002-.002-.003.004.001-.002c-.453.654-1.317.744-1.71.75v.043h-.002l-.043-.043h.045v-5.657l-.045-.002.043-.043h.002v.045c.742.012 1.599.312 1.783.631.476.952.537 3.112-.073 4.276Zm-1.131 11.933-.013.022-.01-.022h.023Zm.027-.044-.012.02-.01-.02h.022Zm-5.319.003-.004-.003h.004v.003Zm.033-19.72.008-.01.002.01h-.01Zm-.037.045.01-.012a.577.577 0 0 1 .003.012h-.013Zm12.626 19.693-.519-.809-.005-.01-.009-.004c-.608-.36-.671-1.88-.738-3.49-.073-1.752-.148-3.564-.902-4.318-.386-.386-1.095-.795-1.309-.916l-.042.028a.87.87 0 0 0-.022-.011v-.028l.02-.013.044.024c.705-.454 1.3-1.125 1.72-1.95.454-.891.694-1.945.694-3.046 0-1.494-.372-2.854-.74-3.423-.355-.547-1.403-1.817-3.497-1.817h-7.376l.012.054c.05.223.117.392.182.557.115.29.223.563.223 1.096v16.225c-.035.548-.158.911-.257 1.204-.08.236-.149.44-.149.67v.045h5.442l-.037-.066c-.499-.908-.704-2.148-.644-3.903.016-.484.002-3.417 0-3.81l-.043.002.043-.046v.044c1.382-.057 1.797.124 2.055 3.786l.015.205c.106 1.509.198 2.812.72 3.765l.012.023h5.151l-.044-.068Zm-57.073.012-.035-.033h.047l-.012.033Zm-.017.046c-.012-.01-.024-.022-.036-.035h.049l-.013.035Zm-6.366-.013-.012-.022h.023l-.01.022Zm-.027-.047-.012-.019h.02l-.008.02Zm-.902-9.137h-.009l-.008-.044h-2.593l-.01.044h-.007l-.03-.036v-.008h.047c.168-1.004.5-2.172.822-3.305.254-.891.49-1.733.654-2.493l-.021-.111c.006-.033.016-.069.022-.1h.004l.02.101a9.29 9.29 0 0 0-.025.11l1.117 5.798h.045l.002.008-.03.036Zm-4.096-10.6h-.002l.002-.002v.003Zm-.044.046v-.001Zm.33 19.716-.012.02-.007-.02h.02Zm.029-.044-.01.016-.007-.016h.017Zm-9.742-11.89.001-.001-.003.004.002-.002c-.454.654-1.317.744-1.711.75v.043h-.002l-.043-.043h.045v-5.657l-.045-.002.043-.043h.002v.045c.742.012 1.599.312 1.783.631.476.953.537 3.113-.073 4.276Zm-1.131 11.934-.013.022a.294.294 0 0 1-.01-.022h.023Zm.026-.044-.012.02-.01-.02h.022Zm-5.319.003-.003-.003h.004v.003Zm.033-19.72.008-.01c0 .004.002.006.003.01h-.011Zm-.036.045.009-.012.003.012h-.012Zm25.966 16.626c-1.266-4.575-2.782-10.603-3.285-16.675l-.003-.041h-6.916l.003.047c.163 2.975-.861 6.916-1.946 11.09-.677 2.601-1.375 5.29-1.781 7.782l.04.03-.003.019-.028.013c-.006-.004-.012-.01-.018-.013l.009-.05c-.535-.407-.576-1.842-.618-3.363-.05-1.834-.102-3.73-.972-4.407a27.117 27.117 0 0 0-1.31-.908l-.04.026-.017-.01v-.032l.017-.011.04.027c.708-.454 1.304-1.127 1.726-1.954.454-.891.694-1.945.694-3.046 0-1.494-.373-2.853-.74-3.423-.355-.547-1.404-1.817-3.497-1.817H44.9l.012.054c.05.223.117.392.182.557.115.29.223.563.223 1.096v16.225c-.034.548-.158.911-.256 1.204-.08.236-.15.44-.15.67v.045h5.443l-.037-.066c-.5-.907-.705-2.147-.645-3.903.016-.484.002-3.417 0-3.81l-.043.002.043-.046v.044c1.382-.057 1.797.124 2.056 3.786l.015.21c.106 1.506.198 2.808.719 3.76l.013.023h8.72l-.03-.063c-.62-1.338-.031-5.142.696-5.685h-.018l.026-.009-.008.009h3.537l-.006-.04.045.04h-.039c.06.456.178.956.302 1.486.332 1.41.708 3.009.057 4.196l-.037.066h6.636l-.098-.079c-.802-.652-1.331-3.033-1.336-3.056ZM32.38 30.022v.011l-.011-.009.011-.002Zm.045.035v.01l-.011-.008.011-.003Zm11.408-.003.014.004-.014.01v-.014Zm.045-.033.015.005-.015.01v-.015Zm-2.912 15.856-.007.008v-.008h.007Zm.038-.044-.006.007-.001-.007h.007Zm-5.346.052-.005-.008h.006v.008Zm-.039-.046-.005-.006h.006v.006Zm-3.284-15.713.056-.015.033-.009c.775-.2 2.578-.668 3.504-.36v-.035l.03.044-.03-.009c-.053 1.829-.025 3.819.003 5.745.052 3.617.105 7.357-.361 10.384l-.008.051h5.494l-.008-.052c-.502-2.948-.43-6.528-.362-9.99.04-2.048.081-4.164.004-6.13l-.042.003.041-.046.001.043c1.158-.093 2.168.022 3.174.36l.059.02v-4.06H32.336v4.056Z" clip-rule="evenodd"/><path fill="#F7D419" d="M32.336 14.078V24.29h7.127V14.078h-7.127Zm6.096 9.184h-5.069v-8.155h5.069v8.155Z"/><path fill="#211C1D" d="M43.71 17.639h-.01c-.569-.914-1.143-1.721-1.722-2.534h-.442v3.554h.488V16.11h.005c.574.92 1.147 1.732 1.726 2.55h.442v-3.555h-.488v2.534Zm3.518 1.02-1.132-3.554h-.508L44.36 18.66h.528l.31-.97h1.071l.28.97h.68Zm-1.873-1.406c.142-.467.284-.899.411-1.447h.01c.142.548.27.98.4 1.447h-.821Zm2.447 1.406h.61v-3.076h.934v-.478h-2.478v.478h.934v3.076Zm2.345-3.554h-.604v3.554h.604v-3.554Zm1.88 3.615c.929 0 1.508-.827 1.508-1.888 0-.995-.64-1.788-1.509-1.788-.868 0-1.508.793-1.508 1.788 0 1.06.579 1.888 1.508 1.888Zm0-3.168c.604 0 .858.624.858 1.28 0 .68-.224 1.38-.859 1.38-.634 0-.858-.7-.858-1.38 0-.656.254-1.28.858-1.28Zm2.365.558h.006c.573.92 1.147 1.732 1.726 2.55h.442v-3.555h-.488v2.534h-.01c-.569-.914-1.142-1.721-1.721-2.534h-.442v3.554h.487V16.11Zm3.174 1.58h1.071l.28.97h.68l-1.133-3.555h-.507l-1.23 3.554h.53l.309-.97Zm.569-1.884h.01c.142.548.269.98.401 1.447h-.823c.143-.467.284-.899.412-1.447Zm3.447 2.376H60.38v-3.077h-.605v3.554h1.808v-.477Zm-18.37 4.542a.893.893 0 0 1-.426.087c-.523 0-1.03-.498-1.03-1.34 0-.807.44-1.32 1.091-1.32.233 0 .487.085.65.187l.198-.421a1.514 1.514 0 0 0-.863-.275c-1.067 0-1.727.849-1.727 1.818 0 1.046.66 1.86 1.706 1.86.346 0 .686-.092 1.011-.22v-1.467h-.61v1.091Zm1.772-1.091h.996v-.477h-.996v-.976H46v-.477h-1.625v3.555h1.808v-.478h-1.199v-1.147Zm2.895-1.99c-.868 0-1.508.792-1.508 1.787 0 1.061.579 1.89 1.508 1.89.93 0 1.508-.829 1.508-1.89 0-.995-.64-1.788-1.508-1.788Zm0 3.168c-.635 0-.858-.7-.858-1.381 0-.655.254-1.28.858-1.28s.858.625.858 1.28c0 .68-.223 1.381-.858 1.381Zm3.823-.087a.892.892 0 0 1-.427.087c-.523 0-1.03-.498-1.03-1.34 0-.807.442-1.32 1.092-1.32.233 0 .487.085.649.187l.198-.421a1.515 1.515 0 0 0-.863-.275c-1.066 0-1.726.849-1.726 1.818 0 1.046.66 1.86 1.706 1.86.345 0 .685-.092 1.01-.22v-1.467h-.609v1.091Zm3.22-1.995c0-.69-.422-1.026-1.103-1.026h-.95v3.555h.61v-1.34h.275l.573 1.34h.696l-.716-1.472c.39-.209.614-.63.614-1.057Zm-1.189.731c-.06.005-.203.01-.254.015V20.18h.27c.36 0 .563.208.563.574 0 .478-.29.691-.579.706Zm2.53-1.757-1.23 3.555h.528l.31-.97h1.071l.28.97h.68l-1.133-3.555h-.507Zm-.234 2.149c.141-.468.284-.9.41-1.448h.011c.142.549.269.98.401 1.448h-.822Zm6.33-.783h-1.263v-1.366h-.605v3.555h.605v-1.711h1.264v1.711h.609v-3.545h-.61v1.356Zm1.194 2.188h.604v-3.554h-.604v3.554Zm2.736-.446c-.588 0-1.086-.498-1.086-1.34 0-.807.453-1.32 1.071-1.32.234 0 .478.106.625.197l.193-.431a1.492 1.492 0 0 0-.818-.275c-1.06 0-1.716.849-1.716 1.818 0 1.046.66 1.86 1.707 1.86.294 0 .619-.118.802-.245l-.168-.442a1.15 1.15 0 0 1-.61.178Zm-7.245-3.108h-.95v3.555h.61v-1.34h.274c.726 0 1.168-.59 1.168-1.189 0-.69-.421-1.026-1.102-1.026Zm-.086 1.757c-.06.005-.208.01-.254.014V20.18h.274c.356 0 .559.208.559.574 0 .478-.29.691-.579.706Z"/></g><defs><clipPath id="a"><path fill="#fff" d="M32.336 14.078h97v31.845h-97z"/></clipPath></defs></svg>