<svg xmlns="http://www.w3.org/2000/svg" width="91" height="60" fill="none"><path fill="#E01F26" d="M32.071 46V14h26.71v32h-26.71Z"/><path fill="#fff" d="M39.494 26.212V19.23c1.009 0 1.42.277 1.42 1.201v4.578c0 .926-.411 1.203-1.42 1.203Zm5.404-6.104c0-2.589-1.238-3.978-4.168-3.978h-5.677v21.458h4.44v-8.279h1.237c2.93 0 4.168-1.387 4.168-3.977v-5.224Zm10.94 8.323h-4.21v5.41c0 .555-.23.787-.689.787-.46 0-.685-.232-.685-.787V19.83c0-.464.23-.742.685-.742.455 0 .688.276.688.742v4.898h4.213v-4.713c0-2.313-1.144-3.977-4.717-3.977-3.572 0-5.31 1.391-5.31 3.977v13.642c0 2.634 1.738 4.025 5.309 4.025 3.57 0 4.716-1.666 4.716-4.025v-5.227ZM55.103 43.89v-1.736c0-.576.011-.702.014-1.064-.038.362-.048.632-.119 1.064-.092.583-.285 1.736-.285 1.736h-.605s-.197-1.154-.293-1.736a10.253 10.253 0 0 1-.13-1.064c.014.38.014.488.014 1.064v1.736h-.656v-3.82h.921c.123.708.237 1.473.33 1.98.039.23.054.328.103.637.046-.304.07-.432.105-.632.094-.508.215-1.287.344-1.984h.91v3.82h-.653Zm-3.432-3.4c-.33 0-.352.372-.352 1.495 0 1.163.033 1.477.352 1.477.332 0 .359-.314.359-1.477 0-1.123-.027-1.494-.359-1.494Zm0 3.47c-.762 0-1.096-.354-1.096-1.975 0-1.567.334-1.974 1.096-1.974.763 0 1.102.422 1.102 1.974 0 1.587-.34 1.976-1.102 1.976Zm-2.277 0c-.861 0-1.118-.472-1.118-1.914 0-1.484.235-2.035 1.09-2.035.853 0 .963.552.963 1.17a2.866 2.866 0 0 1-.02.308l-.67.02c.01-.098.016-.23.016-.297 0-.474-.056-.72-.29-.72-.286 0-.346.256-.346 1.526 0 1.198.034 1.446.367 1.446.275 0 .32-.303.32-.755 0-.13-.006-.26-.019-.39l.654.016c.014.107.02.216.02.324 0 .87-.227 1.304-.97 1.304l.003-.002Zm-2.107-.07v-.845h.78v.845h-.78Zm-.602 0-.163-.297c-.124.209-.244.365-.588.365-.735 0-1.069-.405-1.069-1.855 0-1.672.3-2.094 1.114-2.094.735 0 .94.43.94 1.158 0 .065-.006.185-.011.236l-.674.018c.009-.079.012-.158.01-.237 0-.44-.06-.696-.277-.696-.32 0-.357.26-.357 1.594 0 1.226.077 1.378.357 1.378.315 0 .39-.248.39-.77 0-.07 0-.12-.006-.252h-.372v-.549h.998v2l-.292.001Zm-2.987-2.217c-.03-.233-.051-.46-.06-.588-.01.128-.025.355-.053.581l-.125.998h.368s-.074-.524-.128-.991h-.002Zm.349 2.217-.128-.703h-.546l-.121.703h-.683l.722-3.834h.73l.782 3.834h-.756Zm-2.356 0v-1.736c0-.576.011-.702.016-1.064-.04.362-.051.632-.119 1.064-.093.582-.29 1.736-.29 1.736h-.606s-.196-1.154-.29-1.736a10.31 10.31 0 0 1-.13-1.064c.017.38.017.488.017 1.064v1.736h-.655v-3.82h.921c.123.708.235 1.473.328 1.98.041.23.056.328.105.637.043-.304.07-.432.104-.632.092-.508.214-1.287.343-1.984h.91v3.82h-.654Zm-3.322.07c-.861 0-1.116-.472-1.116-1.914 0-1.484.235-2.035 1.086-2.035.852 0 .967.552.967 1.17a2.866 2.866 0 0 1-.02.308l-.671.02c.01-.098.015-.23.015-.297 0-.474-.053-.72-.294-.72-.284 0-.343.256-.343 1.526 0 1.198.033 1.446.367 1.446.274 0 .317-.303.317-.755 0-.13-.005-.26-.018-.39l.655.016c.013.107.02.216.019.324 0 .87-.228 1.304-.97 1.304l.006-.002Zm-2.478-3.383h-.115v1.318h.16c.22 0 .354-.184.354-.651 0-.487-.118-.668-.399-.668v.001Zm.138 1.856h-.253v1.456h-.719V40.07h.901c.69 0 1.073.323 1.073 1.17 0 .891-.357 1.194-1.002 1.194v-.001Z"/></svg>