<svg xmlns="http://www.w3.org/2000/svg" width="212" height="60" fill="none"><path fill="#E40784" d="m170.501 39.086.04-.002h-.08l.04.002ZM160.981 42a5.32 5.32 0 1 1 .005-10.64A5.32 5.32 0 0 1 160.98 42Zm0-7.53a2.206 2.206 0 0 0-2.037 1.367 2.203 2.203 0 0 0 .482 2.405 2.206 2.206 0 0 0 3.397-.337 2.205 2.205 0 0 0-.278-2.788 2.214 2.214 0 0 0-1.564-.647ZM160.981 18c-.737 0-1.474.044-2.207.13v3.368a15.344 15.344 0 0 1 16.161 8.802 15.33 15.33 0 0 1 1.228 8.588h3.369A18.667 18.667 0 0 0 160.981 18Z"/><path fill="#E40784" d="M160.981 24.556c-.74.001-1.479.07-2.207.206v3.415a8.787 8.787 0 0 1 10.716 10.711h3.414a12.133 12.133 0 0 0-11.923-14.332Z"/><path fill="#0E0E0E" d="M97.495 24.617h-2.63A5.39 5.39 0 0 0 89.48 30v9.058h3.737v-9.058a1.647 1.647 0 0 1 1.647-1.646h2.63v-3.738ZM105.57 35.321a3.5 3.5 0 0 1-2.476-5.976 3.498 3.498 0 0 1 3.815-.76 3.503 3.503 0 0 1 2.162 3.235 3.507 3.507 0 0 1-3.501 3.501Zm0-10.739a7.24 7.24 0 1 0 3.5 13.57v.908h3.738v-7.24a7.245 7.245 0 0 0-7.238-7.238ZM70.357 34.958a5.13 5.13 0 1 1 0-6.37l.084.103 1.534-1.534-.071-.083a7.287 7.287 0 1 0 0 9.397l.07-.083-1.533-1.534-.084.104ZM50.091 24.486a7.288 7.288 0 0 0-6.101 11.272 7.287 7.287 0 0 0 12.773-1.06l.073-.167h-2.422l-.035.053a5.128 5.128 0 0 1-9.301-1.734h12.219l.014-.103c.044-.324.066-.65.067-.976a7.294 7.294 0 0 0-7.287-7.285Zm-5.014 6.208a5.129 5.129 0 0 1 10.028 0H45.077ZM74.016 39.06h2.156V30.87a4.251 4.251 0 1 1 8.505 0v8.188h2.156v-8.47h-.007a6.406 6.406 0 0 0-7.44-6.04 6.403 6.403 0 0 0-3.214 1.534v-7.94h-2.156V39.06ZM35.267 24.486h-2.485v2.156h2.485v7.843a4.579 4.579 0 0 0 4.574 4.574h2.255v-2.157h-2.255a2.42 2.42 0 0 1-2.417-2.417v-7.843h3.49v-2.156h-3.49v-4.98h-2.157v4.98ZM125.245 25.47a7.173 7.173 0 0 0-2.357-.794c-.082-.012-.163-.027-.246-.037-.092-.012-.185-.02-.277-.028a7.487 7.487 0 0 0-.533-.027l-.056-.002h-.032a7.24 7.24 0 0 0 0 14.478h.032c.232 0 .461-.015.688-.037l.034-.003a7.204 7.204 0 0 0 2.779-.867v.907h3.735l-.028-20.916h-3.739v7.326Zm0 6.353a3.5 3.5 0 1 1 0-.005v.005ZM141.705 39.032h3.737v-7.23a7.252 7.252 0 0 0-5.348-6.986 7.248 7.248 0 1 0 1.611 13.337v.88Zm-3.501-3.71a3.5 3.5 0 0 1-2.475-5.975 3.499 3.499 0 0 1 5.976 2.473v.004a3.5 3.5 0 0 1-3.501 3.498ZM153.139 24.584a5.392 5.392 0 0 0-5.387 5.385v9.091h3.743V29.97a1.647 1.647 0 0 1 1.644-1.646h2.633v-3.739h-2.633Z"/></svg>