<svg id="glipy_copy" viewBox="0 0 64 64" xmlns="http://www.w3.org/2000/svg" xmlns:xlink="http://www.w3.org/1999/xlink" data-name="glipy copy" width="300" height="300" version="1.1" xmlns:svgjs="http://svgjs.dev/svgjs"><g width="100%" height="100%" transform="matrix(1,0,0,1,0,0)"><linearGradient id="linear-gradient" gradientUnits="userSpaceOnUse" x1="5.384" x2="58.616" y1="32" y2="32"><stop stop-opacity="1" stop-color="#4c9540" offset="0"/><stop stop-opacity="1" stop-color="#0f5130" offset="1"/></linearGradient><path d="m26.06985 55.80833 13.12929.00019a7.23641 7.23641 0 0 1 -13.12929-.00019zm18.56887-49.80503c13.94848.116 19.16585 18.12544 7.68556 25.718-9.0528 6.15035-21.84426-.724-21.69541-11.70806a14.0539 14.0539 0 0 1 14.00985-14.00994zm-4.36307 18.02277a1.31364 1.31364 0 0 1 .55038.78052l.05 2.6519a3.07717 3.07717 0 0 0 3.07218 3.06217h1.391a3.07512 3.07512 0 0 0 3.07218-3.05215l.05-2.66192a1.264 1.264 0 0 1 .5304-.77056c9.20721-6.77109-1.10974-19.78409-9.79679-12.35873a7.97434 7.97434 0 0 0 1.08065 12.34877zm2.60182 3.40237v.02a1.07193 1.07193 0 0 0 1.07076 1.0707c1.36278-.004 2.59107.277 2.47178-1.59109h-3.5525zm-1.49105-5.0736a3.161 3.161 0 0 1 1.441 2.57183h3.63258a3.10617 3.10617 0 0 1 1.431-2.56181 5.89512 5.89512 0 0 0 2.66192-4.97349c.05125-5.04667-6.38287-7.83532-9.977-4.263a5.95279 5.95279 0 0 0 .8105 9.22647zm13.04928 31.45226-43.61077-.0001a4.13714 4.13714 0 0 1 -2.92217-7.01485 4.04972 4.04972 0 0 1 2.922-1.21094 1.95886 1.95886 0 0 0 2.11148-1.94132v-19.94407a19.67093 19.67093 0 0 1 25.99843-18.6432 16.01241 16.01241 0 1 0 13.38949 29.01052v9.55676h-19.74396a1.00071 1.00071 0 1 0 0 2.00141h22.25574a4.10413 4.10413 0 0 1 -.40024 8.18579zm-30.36152-43.2606a15.67011 15.67011 0 0 0 -7.13506 13.14926 1.00083 1.00083 0 0 0 2.00142.00006 13.65879 13.65879 0 0 1 6.22446-11.46814 1.00213 1.00213 0 0 0 -1.09082-1.68118zm-14.44181 5.04025a1.00072 1.00072 0 0 0 1.95164-.44368 4.19754 4.19754 0 0 1 3.12856-5.006 1.001 1.001 0 0 0 -.45723-1.94865 6.209 6.209 0 0 0 -4.62297 7.39833zm-2.03653.302a8.12443 8.12443 0 0 1 6.05061-9.6841 1.00087 1.00087 0 0 0 -.44954-1.9506 10.089 10.089 0 0 0 -7.55173 12.08518 1.001 1.001 0 0 0 1.95066-.45051z" fill="url(#linear-gradient)" data-original-color="linear-gradient" stroke="none" stroke-opacity="1"/></g></svg>