<svg enable-background="new 0 0 512 512" height="300" viewBox="0 0 512 512" width="300" xmlns="http://www.w3.org/2000/svg" version="1.1" xmlns:xlink="http://www.w3.org/1999/xlink" xmlns:svgjs="http://svgjs.dev/svgjs"><g width="100%" height="100%" transform="matrix(1,0,0,1,0,0)"><g id="_x31_4_Local_Seo"><g><path d="m484.862 397.951h-7.519c-.529-2.171-1.059-4.342-1.748-6.513l6.566-3.759c5.56-3.177 7.467-10.326 4.289-15.886l-5.295-9.214c-3.123-5.507-10.273-7.466-15.939-4.289l-6.566 3.865c-1.536-1.694-3.123-3.229-4.712-4.712l3.865-6.672c3.125-5.613 1.271-12.55-4.342-15.886l-9.214-5.295c-5.454-3.125-12.603-1.218-15.886 4.342l-3.759 6.566c-2.119-.689-4.289-1.271-6.46-1.748v-7.572c0-6.408-5.242-11.65-11.651-11.65h-7.307v-1.218c0-69.686-37.543-134.342-100.346-168.761-12.867-7.149-27.323-12.973-42.786-16.998-15.462-3.971-31.931-6.196-48.716-6.196-6.142 0-12.338.423-18.534 1.006 7.625-14.298 12.708-28.171 12.708-39.821 0-47.287-38.391-85.731-85.572-85.731-47.234 0-85.625 38.444-85.625 85.731 0 25.629 24.57 62.167 46.81 89.967-39.344 36.431-61.69 86.578-61.69 140.802 0 111.201 94.098 196.455 198.945 191.69 37.225-.742 77.788-14.933 109.877-39.556 3.6 2.807 8.737 3.336 12.92.9l6.619-3.812c1.483 1.641 3.072 3.229 4.712 4.765l-3.812 6.619c-3.229 5.56-1.271 12.709 4.289 15.833l9.108 5.295c5.772 3.337 12.867 1.165 15.886-4.236l3.865-6.619c2.119.688 4.236 1.271 6.407 1.747v7.625c0 6.408 5.242 11.597 11.704 11.597h10.536c6.408 0 11.651-5.189 11.651-11.597v-7.625c2.171-.476 4.341-1.059 6.46-1.747l3.812 6.619c3.284 5.719 10.485 7.414 15.833 4.236l9.214-5.242c5.56-3.177 7.519-10.273 4.289-15.939l-3.812-6.566c1.641-1.536 3.229-3.124 4.712-4.765l6.619 3.865c5.613 3.177 12.763 1.218 15.886-4.289l5.295-9.161c3.178-5.56 1.271-12.709-4.289-15.886l-6.566-3.812c.636-2.118 1.219-4.289 1.695-6.46h7.572c6.46 0 11.704-5.242 11.704-11.65v-10.591c.002-6.406-5.242-11.596-11.702-11.596zm-368.923-339.164c15.78 0 28.595 12.868 28.595 28.701 0 15.78-12.815 28.594-28.595 28.594-15.833 0-28.647-12.814-28.647-28.594 0-15.833 12.814-28.701 28.647-28.701zm204.346 383.274c-.848.476-1.589 1.112-2.278 1.8-11.172-3.071-19.804-10.114-22.822-18.957-2.543-7.731-1.377-16.998-.424-24.676 1.059-9.372 2.171-19.063-1.006-28.648-3.178-9.849-13.027-19.963-25.1-18.957-8.367.635-15.992 6.249-21.976 16.309-3.865 6.619-6.725 14.139-11.278 19.223-3.706 4.077-10.114 6.83-14.297 4.342-3.814-2.277-4.661-7.255-5.56-15.197-.689-5.719-1.324-11.649-4.183-16.998-7.996-15.039-30.183-16.681-43.633-6.408-10.273 7.785-16.839 21.023-19.592 39.45-2.013 13.291-2.383 27.111-6.831 39.238-6.09 16.151-21.287 28.965-39.08 33.308-31.719-22.558-55.442-54.912-67.303-91.609 5.083-6.883 10.009-12.867 16.522-12.867 7.784 0 16.045 9.055 27.429 9.214 13.344 0 22.876-13.238 23.088-25.1.264-12.815-7.361-23.299-13.821-29.866-5.56-5.56-12.126-10.432-17.157-16.045-3.019-3.283-7.996-9.902-7.361-17.21.371-4.554 2.808-9.108 5.401-13.927 3.602-6.725 7.732-14.403 6.037-23.246-2.118-10.856-11.861-17.475-22.346-21.393 8.525-13.98 18.956-26.795 31.136-38.127 14.668 17.686 27.007 30.343 28.277 31.613 2.065 2.118 5.507 2.118 7.572 0 2.277-2.277 39.133-40.192 62.591-78.583 8.367-1.165 16.786-1.8 25.047-1.8 26.211 0 51.311 5.507 74.822 16.256-2.065 3.918-5.295 7.202-9.212 9.267-6.99 3.707-15.886 3.548-24.995 4.608-13.556 1.8-23.034 7.148-27.323 15.409-5.348 10.22-1.748 20.969 1.43 30.448 5.401 16.204 5.507 19.645-2.86 37.385-4.077 8.631-8.314 17.527-7.466 27.694 1.218 14.032 12.867 26.317 27.217 28.541 13.45 1.96 27.959-4.977 35.321-17.051 2.911-4.818 4.712-10.167 6.407-15.356 2.542-7.679 4.924-14.88 10.538-18.534 5.454-3.548 13.397-3.389 23.723.423 9.214 3.442 18.64 8.578 29.547 8.949 10.433.37 20.917-3.865 31.72-12.603 8.207 20.917 12.39 43.051 12.39 65.927 0 1.324-.053 2.648-.106 3.971-2.542 2.118-4.236 5.295-4.236 8.896v7.572c-2.171.477-4.341 1.059-6.407 1.748l-3.812-6.566c-3.178-5.56-10.273-7.467-15.939-4.289l-9.161 5.295c-5.56 3.283-7.413 10.22-4.236 15.939l3.812 6.566c-1.641 1.483-3.229 3.071-4.712 4.712l-6.619-3.865c-5.507-3.124-12.602-1.218-15.886 4.289l-5.295 9.214c-3.178 5.613-1.271 12.709 4.289 15.886l6.566 3.759c-.636 2.171-1.218 4.342-1.695 6.513h-7.625c-6.407 0-11.651 5.19-11.651 11.597v10.591c0 6.408 5.244 11.65 11.651 11.65h7.625c.477 2.171 1.059 4.342 1.748 6.46zm165.69-21.923c0 .635-.477 1.059-1.113 1.059h-11.914c-2.595 0-4.818 1.906-5.242 4.448-.688 4.395-1.906 8.843-3.494 13.185-.953 2.436.053 5.136 2.277 6.46l10.432 5.931c.424.265.583 1.006.371 1.43l-5.295 9.161c-.265.477-1.006.688-1.483.424l-10.326-6.037c-2.224-1.324-5.083-.794-6.725 1.218-2.913 3.548-6.089 6.724-9.638 9.637-2.012 1.642-2.542 4.502-1.218 6.725l5.984 10.379c.212.424.053 1.165-.371 1.43l-9.267 5.348c-.424.212-1.059.106-1.377-.423l-5.983-10.379c-1.272-2.277-4.024-3.229-6.461-2.33-4.235 1.642-8.684 2.807-13.132 3.547-2.595.424-4.447 2.595-4.447 5.19v12.02c0 .53-.477 1.006-1.06 1.006h-10.536c-.583 0-1.113-.476-1.113-1.006v-12.02c0-2.595-1.853-4.766-4.447-5.19-4.396-.741-8.791-1.959-13.079-3.547-2.436-.9-5.138.053-6.461 2.277l-6.036 10.485c-.318.477-.9.636-1.43.318l-9.161-5.295c-.424-.265-.635-.953-.371-1.43l6.037-10.326c1.271-2.277.794-5.136-1.218-6.778-3.602-2.913-6.725-6.089-9.691-9.637-1.642-2.012-4.502-2.542-6.725-1.218l-10.379 5.984c-.477.317-1.165.106-1.43-.371l-5.242-9.108c-.265-.477-.106-1.218.371-1.483l10.379-5.931c2.224-1.324 3.229-4.025 2.33-6.46-1.642-4.342-2.86-8.79-3.547-13.185-.424-2.542-2.648-4.448-5.242-4.448h-11.967c-.583 0-1.06-.477-1.06-1.059v-10.591c0-.582.477-1.006 1.06-1.006h11.967c2.595 0 4.818-1.906 5.242-4.447.688-4.449 1.906-8.896 3.547-13.186.9-2.436-.106-5.136-2.33-6.46l-10.379-5.984c-.477-.212-.636-.953-.371-1.377l5.242-9.161c.318-.529.953-.741 1.43-.477l10.379 6.037c2.277 1.324 5.083.794 6.725-1.218 2.913-3.548 6.142-6.778 9.638-9.585 2.012-1.642 2.542-4.502 1.271-6.778l-5.984-10.273c-.317-.583-.159-1.271.371-1.536l9.055-5.295c.53-.265 1.218-.106 1.483.371l6.036 10.432c1.324 2.277 4.077 3.282 6.513 2.33 4.184-1.642 8.579-2.86 13.028-3.6 2.595-.424 4.447-2.648 4.447-5.242v-11.914c0-.583.477-1.059 1.113-1.059h10.536c.583 0 1.06.476 1.06 1.059v11.914c0 2.595 1.853 4.818 4.447 5.242 4.502.741 8.897 1.959 13.081 3.6 2.489.953 5.241-.053 6.565-2.33l5.878-10.379c.318-.53 1.006-.689 1.483-.424l9.161 5.242c.53.318.688 1.006.424 1.483l-5.984 10.379c-1.324 2.277-.794 5.136 1.218 6.778 3.337 2.701 6.566 5.931 9.638 9.638 1.695 1.959 4.502 2.436 6.725 1.165l10.273-5.984c.53-.317 1.271-.105 1.536.371l5.242 9.161c.265.424.106 1.218-.371 1.483l-10.379 5.931c-2.224 1.271-3.229 4.025-2.277 6.46 1.589 4.29 2.807 8.737 3.494 13.186.424 2.542 2.648 4.447 5.242 4.447h11.914c.636 0 1.113.424 1.113 1.006v10.59z" fill="url(#SvgjsLinearGradient1019)" fill-opacity="1" data-original-color="#000000ff" stroke="none" stroke-opacity="1"/><path d="m401.25 377.617c-20.546 0-37.279 16.68-37.279 37.225 0 20.546 16.733 37.279 37.279 37.279 20.545 0 37.225-16.733 37.225-37.279 0-20.545-16.68-37.225-37.225-37.225zm0 63.914c-14.721 0-26.689-11.967-26.689-26.689 0-14.72 11.967-26.635 26.689-26.635 14.668 0 26.634 11.914 26.634 26.635.001 14.722-11.966 26.689-26.634 26.689z" fill="url(#SvgjsLinearGradient1019)" fill-opacity="1" data-original-color="#000000ff" stroke="none" stroke-opacity="1"/></g></g></g><defs><linearGradient id="SvgjsLinearGradient1019"><stop stop-opacity="1" stop-color="#4c9540" offset="0"/><stop stop-opacity="1" stop-color="#0f5130" offset="1"/></linearGradient></defs></svg>