<svg id="Layer_1" enable-background="new 0 0 41 41" viewBox="0 0 41 41" xmlns="http://www.w3.org/2000/svg" width="300" height="300" version="1.1" xmlns:xlink="http://www.w3.org/1999/xlink" xmlns:svgjs="http://svgjs.dev/svgjs"><g width="100%" height="100%" transform="matrix(1,0,0,1,0,0)"><g><g><ellipse cx="20.5" cy="20.5" fill="url(#SvgjsLinearGradient1023)" rx="20" ry="20" transform="matrix(.924 -.383 .383 .924 -6.285 9.406)" fill-opacity="1" data-original-color="#5ad0ffff" stroke="none" stroke-opacity="1"/><path d="m20.5 38.8c-10.8 0-19.5-8.5-20-19.2v.8c0 11 9 20 20 20s20-9 20-20c0-.3 0-.6 0-.8-.5 10.7-9.2 19.2-20 19.2z" fill="url(#SvgjsLinearGradient1024)" fill-opacity="1" data-original-color="#34bde8ff" stroke="none" stroke-opacity="1"/></g><path d="m31.1 14.5c-.6-.6-1.5-.6-2.1 0l-1.2 1.2c-1.5-1.5-3.5-2.6-5.7-2.9v-.8h1c.8 0 1.5-.7 1.5-1.5s-.8-1.4-1.6-1.4h-5c-.8 0-1.5.7-1.5 1.5s.7 1.5 1.5 1.5h1v.8c-2.2.3-4.2 1.4-5.7 2.9l-1.2-1.2c-.6-.6-1.5-.6-2.1 0s-.6 1.5 0 2.1l1.5 1.5c-.7 1.4-1.2 3-1.2 4.7 0 5.6 4.6 10.2 10.2 10.2s10.2-4.6 10.2-10.2c0-1.7-.4-3.3-1.2-4.7l1.5-1.5c.6-.6.6-1.6.1-2.2zm-9.1 8.4c0 .8-.7 1.5-1.5 1.5s-1.5-.6-1.5-1.5v-5.4c0-.8.7-1.5 1.5-1.5s1.5.7 1.5 1.5z" fill="url(#SvgjsLinearGradient1024)" fill-opacity="1" data-original-color="#34bde8ff" stroke="none" stroke-opacity="1"/><path d="m31.1 12.5c-.6-.6-1.5-.6-2.1 0l-1.2 1.2c-1.5-1.5-3.5-2.6-5.7-2.9v-.8h1c.8 0 1.5-.7 1.5-1.5s-.8-1.4-1.6-1.4h-5c-.8 0-1.5.7-1.5 1.5s.7 1.5 1.5 1.5h1v.8c-2.2.3-4.2 1.4-5.7 2.9l-1.2-1.2c-.6-.6-1.5-.6-2.1 0s-.6 1.5 0 2.1l1.5 1.5c-.7 1.4-1.2 3-1.2 4.7 0 5.6 4.6 10.2 10.2 10.2s10.2-4.6 10.2-10.2c0-1.7-.4-3.3-1.2-4.7l1.5-1.5c.6-.6.6-1.6.1-2.2zm-9.1 8.4c0 .8-.7 1.5-1.5 1.5s-1.5-.6-1.5-1.5v-5.4c0-.8.7-1.5 1.5-1.5s1.5.7 1.5 1.5z" fill="#ffffff" fill-opacity="1" data-original-color="#ffffffff" stroke="none" stroke-opacity="1"/></g></g><defs><linearGradient id="SvgjsLinearGradient1023"><stop stop-opacity="1" stop-color="#4c9540" offset="0"/><stop stop-opacity="1" stop-color="#0f5130" offset="1"/></linearGradient><linearGradient id="SvgjsLinearGradient1024"><stop stop-opacity="1" stop-color="#4c9540" offset="0"/><stop stop-opacity="1" stop-color="#0f5130" offset="1"/></linearGradient></defs></svg>