<svg width="114" height="69" viewBox="0 0 114 69" fill="none" xmlns="http://www.w3.org/2000/svg">
<path fill-rule="evenodd" clip-rule="evenodd" d="M82.2817 64.8977C92.4338 65.1425 102.808 64.6529 112.515 68.1245C113.094 68.3292 113.73 68.031 113.94 67.4524C114.144 66.8738 113.846 66.2374 113.268 66.0282C103.334 62.4765 92.7231 62.9216 82.3351 62.6723C81.7209 62.6545 81.2091 63.1441 81.1958 63.7583C81.178 64.3725 81.6675 64.8799 82.2817 64.8977Z" fill="#9564F8"/>
<path fill-rule="evenodd" clip-rule="evenodd" d="M81.3659 50.1569C84.5303 47.2453 87.9841 45.064 92.1589 43.9829C92.7553 43.8289 93.1113 43.2214 92.96 42.6267C92.8042 42.0321 92.1945 41.6748 91.6025 41.8287C87.0628 43.0037 83.3019 45.3546 79.8615 48.5186C79.4076 48.9343 79.3764 49.6389 79.7948 50.0911C80.2087 50.5428 80.9164 50.5726 81.3659 50.1569Z" fill="#9564F8"/>
<path fill-rule="evenodd" clip-rule="evenodd" d="M72.5643 18.3677C74.0153 13.394 76.8726 9.50322 81.2521 6.69349C81.7684 6.36191 81.9197 5.67295 81.5859 5.15622C81.2566 4.63949 80.5667 4.48905 80.0504 4.82062C75.2036 7.93167 72.0347 12.2373 70.428 17.7441C70.2544 18.3334 70.5971 18.9521 71.1846 19.1239C71.7766 19.2961 72.3952 18.957 72.5643 18.3677Z" fill="#9564F8"/>
<path fill-rule="evenodd" clip-rule="evenodd" d="M22.5576 11.6187C21.6942 12.6348 20.9197 13.7297 20.261 14.8953C19.9673 15.4143 19.451 16.5172 19.3709 17.4629C19.2819 18.4706 19.6245 19.3207 20.5058 19.7684C21.6763 20.3622 22.611 20.3003 23.332 19.9411C24.0263 19.5962 24.5693 18.9183 24.912 18.0095C25.5662 16.2724 25.4683 13.6175 25.1256 12.1025C26.0469 11.1519 27.0572 10.2897 28.1388 9.52332C36.1945 3.81528 48.0112 5.92003 57.104 14.4547C60.2863 17.4429 61.8173 23.7184 62.614 30.4893C63.8557 41.0317 63.1481 52.8065 63.0501 56.2562C63.0279 57.1081 63.108 57.6137 63.1525 57.7147C63.3617 58.2114 63.7311 58.3405 63.9892 58.3894C64.3631 58.4562 64.6613 58.385 64.9016 58.2604C65.2265 58.0895 65.4936 57.7886 65.6182 57.3244C65.685 57.068 65.7027 56.7111 65.6938 56.3306C65.6849 56.0666 65.6315 55.7782 65.6849 55.5891C66.0321 54.3776 66.4505 53.1946 66.8599 52.0031C68.2263 47.9979 69.9933 44.2447 71.956 40.4958C78.1915 28.5839 84.2221 15.9978 94.4454 6.92232C94.9038 6.51508 94.9484 5.81099 94.5389 5.35167C94.1339 4.89236 93.4307 4.85051 92.9678 5.2582C82.5398 14.513 76.3444 27.3159 69.9843 39.4637C68.3153 42.6526 66.7843 45.846 65.5114 49.1863C65.6404 43.2775 65.5915 35.0984 64.5099 27.8616C63.5486 21.4254 61.7194 15.7374 58.6261 12.8324C48.6654 3.48281 35.6738 1.45463 26.8525 7.70788C25.9089 8.37727 25.0099 9.11343 24.1732 9.91188C19.5578 1.57793 9.67722 -1.76235 0.944925 2.22371C0.384135 2.47873 0.139351 3.13922 0.393041 3.69779C0.651182 4.25635 1.30986 4.50293 1.87065 4.24791C9.73951 0.656183 18.6632 3.86157 22.5576 11.6187ZM23.2029 14.4089C22.8424 14.918 22.5086 15.4459 22.1971 15.9915C22.0324 16.2844 21.7475 16.8474 21.6274 17.3984C21.6007 17.5275 21.5962 17.7295 21.5962 17.823C21.9033 17.9743 22.1436 18.0473 22.3395 17.949C22.5843 17.8279 22.7089 17.5431 22.8291 17.2248C23.1317 16.4264 23.2296 15.368 23.2029 14.4089Z" fill="#9564F8"/>
</svg>
