<svg fill="none" height="64" viewBox="0 0 60 64" width="60" xmlns="http://www.w3.org/2000/svg" xmlns:xlink="http://www.w3.org/1999/xlink"><linearGradient id="a" gradientUnits="userSpaceOnUse" x1="42.9542" x2="44.9554" y1="6.1326" y2="41.5073"><stop offset=".02" stop-color="#a75584"/><stop offset=".42" stop-color="#b6496f"/><stop offset=".57" stop-color="#be4768"/><stop offset=".82" stop-color="#d64455"/><stop offset=".91" stop-color="#e0434d"/></linearGradient><linearGradient id="b" gradientUnits="userSpaceOnUse" x1="19.9542" x2="7.48596" y1="29.0506" y2="60.9414"><stop offset="0" stop-color="#ffe065"/><stop offset=".02" stop-color="#ffdb54"/><stop offset=".13" stop-color="#ffc906"/><stop offset=".14" stop-color="#fdc30b"/><stop offset=".26" stop-color="#f59d30"/><stop offset=".32" stop-color="#f28f3f"/><stop offset=".47" stop-color="#ed6948"/></linearGradient><linearGradient id="c" gradientUnits="userSpaceOnUse" x1="27.4414" x2="32.5618" y1="17.9466" y2="45.3413"><stop offset=".02" stop-color="#cf5c6c"/><stop offset=".09" stop-color="#d85f68"/><stop offset=".27" stop-color="#ea6561"/><stop offset=".4" stop-color="#f1685f"/><stop offset=".65" stop-color="#f0764f"/><stop offset=".96" stop-color="#f08441"/></linearGradient><path d="m51.5124 9.79928v22.56972s.0769 3.4954-2.8152 6.8138c-2.8912 3.3193-6.6888 3.7215-7.6942 3.7215h-4.3248l.5475-25.1068s.0721-3.7745 3.2241-6.9274c3.0047-3.0047 6.8388-2.79111 6.8388-2.79111h2.565s1.6588-.15682 1.6588 1.71933z" fill="url(#a)"/><path d="m22.9041 27.6131.1261 15.2902h-12.6386s-1.50381-.0346-1.50381-1.2103v-4.5855s-.0558-3.3762 2.55541-6.2116c2.6112-2.8354 5.7266-3.2087 6.6964-3.2087.9699 0 4.7655-.075 4.7655-.075z" fill="url(#b)"/><path d="m37.2878 42.9043h-14.9602l.5764-15.2902s-.1771-3.6398 3.1856-6.8754c2.3072-2.2196 4.4489-2.7806 6.3192-2.7806h4.8126l.0664 24.9471z" fill="url(#c)"/><path d="m36.6655 42.9053h.6225l-.0664-24.9481-.557 24.9481z" fill="#b50d31" opacity=".61"/><path d="m22.9042 27.4255-.5907 15.4788h.7023z" fill="#c84e28" opacity=".59"/><g fill="#4a4a4a"><path d="m16.6475 48.0459h1.9271v7.6807h-1.9271v-.812c-.3762.3579-.7534.6157-1.1315.7735s-.7889.2367-1.2306.2367c-.9919 0-1.8501-.3848-2.5737-1.1545-.7235-.7697-1.0862-1.7261-1.0862-2.8701 0-1.1439.3502-2.158 1.0506-2.9152.7005-.7572 1.551-1.1363 2.5526-1.1363.4608 0 .8928.0875 1.2969.2607.4041.1742.7784.4349 1.1209.7832v-.8476zm-2.0263 1.5818c-.5955 0-1.091.2107-1.4845.6321-.3936.4214-.5908.9612-.5908 1.6202 0 .6591.2001 1.2094.6013 1.6376.4012.4281.8948.6427 1.4808.6427.5859 0 1.1074-.2107 1.5057-.6321.3983-.4215.5984-.9728.5984-1.6559s-.1991-1.2094-.5984-1.6241c-.3983-.4137-.9025-.6215-1.5125-.6215z"/><path d="m21.2746 44.8824c.3377 0 .6273.1222.8698.3676.2415.2444.3627.5417.3627.89 0 .3482-.1193.6369-.3589.8793-.2396.2425-.5253.3637-.8592.3637-.3338 0-.635-.1231-.8765-.3704s-.3627-.5474-.3627-.9006c0-.3531.1193-.6282.3589-.8688.2395-.2405.5282-.3598.8659-.3598zm-.9641 3.1626h1.9272v7.6807h-1.9272z"/><path d="m23.5371 48.0459h1.652v.967c.1789-.381.4166-.6706.7129-.8688.2964-.1973.6216-.2964.9747-.2964.2492 0 .5109.0664.7841.1973l-.6004 1.6587c-.2261-.1126-.4118-.1694-.558-.1694-.2963 0-.5475.1838-.7514.5504-.204.3665-.3069 1.0872-.3069 2.16l.0067.3742v3.1067h-1.9127v-7.6806z"/><path d="m34.2822 48.0459h1.9272v7.6807h-1.9272v-.812c-.3762.3579-.7533.6157-1.1314.7735s-.789.2367-1.2306.2367c-.992 0-1.8502-.3848-2.5737-1.1545s-1.0862-1.7261-1.0862-2.8701c0-1.1439.3502-2.158 1.0506-2.9152s1.551-1.1363 2.5525-1.1363c.4609 0 .8929.0875 1.297.2607s.7784.4349 1.1209.7832v-.8476zm-2.0262 1.5818c-.5956 0-1.0911.2107-1.4846.6321-.3945.4214-.5907.9612-.5907 1.6202 0 .6591.2001 1.2094.6013 1.6376.4012.4281.8948.6427 1.4807.6427.586 0 1.1074-.2107 1.5058-.6321.3983-.4215.5984-.9728.5984-1.6559s-.1992-1.2094-.5984-1.6241c-.3984-.4137-.9025-.6215-1.5125-.6215z"/><path d="m37.9463 45.0806h1.9271v10.646h-1.9271z"/><path d="m45.2313 47.8477c.7245 0 1.4057.1809 2.0436.5436s1.1353.8544 1.4932 1.4759c.3579.6216.5369 1.2922.5369 2.0118 0 .7197-.1799 1.4028-.5398 2.033-.3598.6312-.8505 1.1238-1.472 1.4788-.6216.3551-1.3066.533-2.0542.533-1.1016 0-2.0416-.3915-2.82-1.1757-.7793-.7841-1.168-1.7357-1.168-2.8556 0-1.1998.4397-2.2004 1.32-2.9999.7716-.6966 1.6587-1.0449 2.6613-1.0449zm.0318 1.8146c-.5985 0-1.0978.2078-1.4962.6244-.3983.4166-.5974.9496-.5974 1.5991 0 .6494.1962 1.2094.5907 1.6241.3935.4146.8919.6215 1.4961.6215s1.1055-.2097 1.5067-.6283c.4003-.4185.6014-.9573.6014-1.6164 0-.659-.1973-1.194-.5908-1.6058-.3935-.4117-.8967-.6176-1.5096-.6176z"/></g></svg>