<svg fill="none" height="32" viewBox="0 0 92 32" width="92" xmlns="http://www.w3.org/2000/svg"><path d="m37.5878 11.2715c-.9608-.5696-2.0441-.8545-3.2499-.8545-1.1366-.0138-2.2556.2816-3.2374.8545-.9534.5544-1.7389 1.3566-2.2732 2.3214-.5502.9943-.8323 2.1145-.8187 3.2507-.0126 1.1398.2694 2.2636.8187 3.2624.5283.9688 1.3097 1.776 2.2608 2.3356.9608.5701 2.0441.8552 3.2498.8552 1.2058 0 2.2891-.2851 3.2499-.8552.9525-.5608 1.7374-1.3664 2.2733-2.3331.5566-.9964.8432-2.1211.8311-3.2624.013-1.1377-.2736-2.2588-.8311-3.2507-.5389-.962-1.3233-1.764-2.2733-2.3239zm-.8062 8.2477c-.3062.3433-.6833.6162-1.1052.7997-.4218.1836-.8785.2734-1.3385.2633-.994 0-1.8086-.3502-2.4436-1.0506s-.9525-1.5964-.9525-2.688c0-1.0755.3175-1.9635.9525-2.6639s1.4496-1.0494 2.4436-1.0472c.9775 0 1.792.3502 2.4437 1.0506.6516.7004.9774 1.5883.9774 2.6639 0 1.07-.3258 1.9607-.9774 2.6722zm6.0392-13.67193h2.9324v17.10543h-2.9324zm27.5641 0h2.9324v17.10543h-2.9324zm14.075 4.91133v6.2338c0 .9941-.2565 1.7599-.7697 2.2974-.5131.5375-1.1852.8062-2.0164.8062-.7813 0-1.3839-.22-1.8078-.6599-.4239-.44-.6358-1.1811-.6358-2.2234v-6.4541h-2.9324v6.9403c0 1.7266.3951 3.0136 1.1853 3.8608.7901.8472 1.8768 1.2708 3.2598 1.2708.8639 0 1.5806-.1426 2.1503-.428.5964-.306 1.1213-.7349 1.5401-1.2584l.0241.0731v1.295c0 1.0107-.2565 1.7887-.7696 2.3339-.5132.5453-1.2177.8182-2.1137.8187-1.2285 0-2.0319-.4521-2.4104-1.3564l-2.4237 1.2467c.3238.6052.7682 1.1375 1.3058 1.5643.8866.7092 2.0638 1.0636 3.5316 1.063 1.8247 0 3.2502-.5172 4.2764-1.5518 1.0262-1.0345 1.539-2.4153 1.5385-4.1425v-11.7295zm-18.1311-2.61315c.3558-.00445.7043.10154.9974.30338l1.2468-2.06878c-.2882-.22915-.6048-.42023-.9418-.56852-.4809-.22164-1.1204-.33247-1.9183-.33247-.9775 0-1.7962.32167-2.4561.96499-.66.64333-.9899 1.52714-.9899 2.65143v1.66232h-1.9782v2.5658h1.9832v9.6291h2.9323v-9.6282h2.9199v-2.5659h-2.9199v-1.31985c0-.8622.3749-1.2933 1.1246-1.2933zm-9.3108 3.40775c-.9608-.758-2.1743-1.1367-3.6405-1.1362-1.4335 0-2.5575.3048-3.372.9143-.8146.6095-1.39 1.5238-1.7264 2.7429l2.6166.4746c.113-.5569.3416-.9874.6857-1.2875.3823-.3325.9483-.4987 1.698-.4987 1.4961 0 2.2442.7411 2.2442 2.2234v.1471l-2.6149.3665c-1.792.2444-3.0423.7209-3.751 1.4296-.7087.7088-1.0617 1.5765-1.0589 2.6033-.014.7005.1813 1.3893.561 1.9781.3743.5705.8982 1.0271 1.5144 1.3199.6558.3139 1.375.4726 2.102.4638 1.5798 0 2.7118-.4804 3.3962-1.4412l.3183 1.0996h2.4678v-8.0149c.0011-1.4995-.4791-2.6276-1.4405-3.3846zm-1.4902 7.1232c0 .7009-.2364 1.2506-.709 1.649-.4727.3984-1.0589.5979-1.7588.5984-.6682 0-1.1947-.1424-1.5792-.4272-.1819-.1273-.3295-.2977-.4296-.496-.1-.1982-.1495-.4182-.1439-.6402 0-.5042.1751-.8921.5253-1.1636s.9082-.463 1.674-.5744l2.4187-.3665zm-32.8894-6.292c-1.5992 1.3016-4.0844 1.6175-7.5395.9484v-7.45976h-2.9764v6.71256c-.1397-.0416-.2801-.0832-.4231-.1289-2.66972-.8311-5.7143-.4887-7.42401.0831l.59678 2.5434c1.18109-.4912 3.91979-.817 6.05423-.1504.4064.1271.8046.2435 1.1961.3524v7.6659h2.9764v-6.9902c1.0559.1883 2.1258.287 3.1983.2951 1.6698 0 3.1119-.2826 4.3412-.8445v7.5396h2.9773v-17.07806h-2.9773z" fill="#e6485c"/></svg>