<svg fill="none" height="48" viewBox="0 0 58 48" width="58" xmlns="http://www.w3.org/2000/svg"><path d="m47.6593 6.5961v19.4168c-.1238.1548-2.6012 3.2826-7.1071.4955.7588.4335 1.7033-.1084 1.7033-.9755v-18.78196c0-.8671-.9136-1.40904-1.6568-1.00646.4645-.23225 4.5987-2.26064 7.0606.85162z" fill="#29cdff"/><path d="m17.1254 26.8026c-.9135.449-5.1251 2.2451-7.18448-1.0529v-18.58069c2.21418-3.94838 6.84388-1.70322 7.15358-1.54838-.8826-.34065-1.8736.29419-1.8736 1.28516v18.61161c0 1.0065 1.022 1.6413 1.9045 1.2852z" fill="#176dba"/><path d="m47.6594 6.00773v.5729c-2.4619-3.11226-6.5961-1.08387-7.0607-.85161-.0309.01548-.0464.01548-.0464.01548l-6.271 3.60774-.0464.01549-3.8091-2.26065-.6812-.40258-.7588-.44903 8.5781-4.95484s3.8555-2.41548 7.3703.13936c1.1613.83613 2.6323 1.88903 2.7252 4.56774z" fill="#76efff"/><path d="m41.8222 32.129s-2.3691.2323-5.6981-1.8116l-7.4323-4.382-5.2025-2.8645v-6.4413l17.0787 9.8787c4.5058 2.7871 6.9832-.3406 7.1071-.4954v.1858c-.0155 0 .3096 5.1871-5.8529 5.9303z" fill="#27b2ff"/><path d="m28.6763 25.9354-.2633.2323c-5.8374 3.7626-8.6245 5.9458-11.7987 5.7755-6.62707-.3716-6.68901-6.1936-6.68901-6.1936 2.05931 3.2981 6.27101 1.502 7.18451 1.0529.1084-.0619.1703-.0929.1703-.0929l6.1936-3.6387z" fill="#0091e2"/><path d="m34.3125 15.5922-17.2025-9.95608h-.0155c-.3252-.15484-4.9394-2.41548-7.15358 1.54839v-.21678s.04645-6.627093 6.68908-6.627093c2.8025 0 6.3019 2.338063 10.0954 4.614193.2942.18581 1.6104.94452 3.0658 1.79613l-.7587-.44903 5.28 3.09677z" fill="#27b2ff"/><g fill="#1a1a35"><path d="m1.06836 47.3342v-10.8078c0-.1084.12387-.1703.21677-.0929l7.04516 6.6426v-6.5187h1.88901v10.7922c0 .1239-.1393.1859-.23223.0929l-7.01419-6.5961v6.4878z"/><path d="m12.1392 42.7354c0-1.1922.418-2.1987 1.2696-3.0348.8517-.8361 1.8891-1.2542 3.1123-1.2542s2.2761.4181 3.1277 1.2542c.8517.8361 1.2697 1.8736 1.2697 3.0968 0 1.2387-.418 2.2606-1.2697 3.0968-.8516.8206-1.9045 1.2387-3.1587 1.2387-1.2387 0-2.2606-.4181-3.0967-1.2697-.8362-.8052-1.2542-1.8581-1.2542-3.1278zm1.9509.0465c0 .8206.2168 1.471.6658 1.951.4491.48 1.0375.7277 1.7807.7277s1.3316-.2323 1.7806-.7123c.4491-.48.6658-1.1148.6658-1.92 0-.8051-.2167-1.44-.6658-1.92-.449-.48-1.0374-.7277-1.7806-.7277-.7278 0-1.3161.2477-1.7652.7277-.449.48-.6813 1.0994-.6813 1.8736z"/><path d="m22.8389 38.6477h1.6722l.3871.7587c.4026-.3871.7432-.6503 1.022-.7742.2942-.1393.6812-.2167 1.1303-.2167 1.0064 0 1.8116.4025 2.3845 1.2232.6503-.8207 1.5174-1.2232 2.6323-1.2232 2.0129 0 3.0193 1.1303 3.0193 3.3909v5.1097h-2.0748v-4.5987c0-.7897-.1084-1.3471-.3097-1.6877-.2168-.3407-.5574-.4955-1.0529-.4955-.5729 0-.9755.2013-1.2387.5884-.2632.4025-.3871 1.0374-.3871 1.9045v4.289h-2.0749v-4.5677c0-1.471-.4645-2.2142-1.378-2.2142-.5729 0-1.0065.2013-1.2697.6038-.2632.4026-.4026 1.0375-.4026 1.9046v4.2735h-2.0593z"/><path d="m43.8192 38.7406h1.9974v8.2994h-1.9974v-.6349c-.8207.7433-1.7032.8671-2.6478.8671-1.1922 0-2.1832-.418-2.9574-1.2387-.7742-.8516-1.1613-1.9045-1.1613-3.1742 0-1.2387.3871-2.2761 1.1613-3.1122.7742-.8362 1.7342-1.2387 2.8955-1.2387 1.0065 0 1.9045.1084 2.6942.9135v-.6813zm-4.7226 4.1187c0 .7897.2168 1.44.6658 1.9355.449.511 1.0219.7587 1.7187.7587.7432 0 1.3316-.2477 1.7807-.7277.449-.511.6813-1.1458.6813-1.92s-.2323-1.4245-.6813-1.92c-.4491-.4955-1.0375-.7432-1.7652-.7432-.6813 0-1.2542.2477-1.7187.7432-.4645.511-.6813 1.1303-.6813 1.8735z"/><path d="m54.534 36.5109h1.9975v10.5291h-1.9975v-.6349c-.8206.7432-1.7032.8671-2.6477.8671-1.1923 0-2.1832-.4181-2.9574-1.2387-.7742-.8516-1.1613-1.9045-1.1613-3.1742 0-1.2387.3871-2.2761 1.1613-3.1122.7742-.8362 1.7342-1.2388 2.8955-1.2388 1.0064 0 1.9045.1084 2.6941.9136v-2.911zm-4.7225 6.3484c0 .7897.2167 1.44.6658 1.9355.449.511 1.0219.7587 1.7187.7587.7432 0 1.3316-.2477 1.7806-.7277.449-.511.6813-1.1458.6813-1.92s-.2323-1.4246-.6813-1.92c-.449-.4955-1.0374-.7433-1.7651-.7433-.6813 0-1.2542.2478-1.7188.7433-.4645.5109-.6812 1.1303-.6812 1.8735z"/></g></svg>